<?xml version="1.0" encoding="iso-8859-1"?>
<!-- Uploaded to: SVG Repo, www.svgrepo.com, Generator: SVG Repo Mixer Tools -->
<svg height="800px" width="800px" version="1.1" id="Layer_1" xmlns="http://www.w3.org/2000/svg" xmlns:xlink="http://www.w3.org/1999/xlink" 
	 viewBox="0 0 512 512" xml:space="preserve">
<circle style="fill:#6B7F9E;" cx="256" cy="256" r="256"/>
<path style="fill:#FFE356;" d="M129.135,203.797h300.558c12.185,0,22.219,10.035,22.219,22.219V368.65
	c0,12.185-10.035,22.219-22.219,22.219H129.135c-12.185,0-22.219-10.035-22.219-22.219V226.016
	C106.916,213.831,116.95,203.797,129.135,203.797z"/>
<path style="fill:#6C7678;" d="M135.825,202.124v3.345h-6.57h-0.119h-0.119h-0.119h-0.119h-0.119h-0.119h-0.119h-0.119h-0.119
	l-0.239-3.345h0.119h0.119h0.119h0.119h0.119h0.119h0.119h0.119h0.119h6.57H135.825z M129.254,205.469v-3.345 M117.667,205.111
	c-2.031,1.195-3.942,2.628-5.615,4.301l2.389,2.27c1.434-1.434,3.106-2.748,4.898-3.703L117.667,205.111z M106.557,218.49v0.119
	v0.119v0.119v0.119v0.119v0.119v0.119v0.119v0.119v0.119v0.119v0.119v0.119v0.119v0.119v0.119v0.119v0.119v0.119v0.119v0.119v0.119
	v0.119v0.119v0.119v0.119v0.119v0.119v0.119v0.119v0.119v0.119v0.119v0.119v0.119v0.119v0.119v0.119v0.119v0.119v0.119v0.119v0.119
	v0.119v0.119v0.119v0.119v0.119l0,0l3.345,0.119l0,0v-0.119v-0.119v-0.119v-0.119v-0.119v-0.119v-0.119v-0.119v-0.119v-0.119v-0.119
	v-0.119v-0.119v-0.119v-0.119v-0.119v-0.119v-0.119v-0.119v-0.119v-0.119v-0.119v-0.119v-0.119v-0.119v-0.119v-0.119v-0.119v-0.119
	v-0.119v-0.119v-0.119v-0.119v-0.119v-0.119v-0.119v-0.119v-0.119v-0.119v-0.119v-0.119v-0.119v-0.119v-0.119v-0.119v-0.119v-0.119
	v-0.119l-3.106-1.075L106.557,218.49z M105.363,235.453h3.345v6.57h-3.345V235.453z M105.363,251.938h3.345v6.57h-3.345V251.938z
	 M105.363,268.424h3.345v6.57h-3.345V268.424z M105.363,284.909h3.345v6.57h-3.345V284.909z M105.363,301.394h3.345v6.57h-3.345
	V301.394z M105.363,317.88h3.345v6.57h-3.345V317.88z M105.363,334.365h3.345v6.57h-3.345V334.365z M105.363,350.85h3.345v6.57
	h-3.345V350.85z M105.363,367.336h3.345v1.075v0.119v0.119v0.119v0.119v0.119v0.119v0.119v0.119v0.119v0.119v0.119v0.119v0.119
	v0.119v0.119v0.119v0.119v0.119v0.119v0.119v0.119v0.119v0.119v0.119v0.119v0.119v0.119v0.119v0.119v0.119v0.119v0.119v0.119v0.119
	v0.119v0.119v0.119v0.119v0.119l0,0l-3.225,0.836v-0.119v-0.119v-0.119v-0.119v-0.119v-0.119v-0.119v-0.119v-0.119v-0.119v-0.119
	v-0.119v-0.119v-0.119v-0.119v-0.119v-0.119v-0.119v-0.119v-0.119v-0.119v-0.119v-0.119v-0.119v-0.119V370.8v-0.119v-0.119v-0.119
	v-0.119v-0.119v-0.119v-0.119v-0.119v-0.119v-0.119v-0.119v-0.119v-0.119v-0.119v-1.075L105.363,367.336z M110.977,383.701
	c0.239,0.239,0.478,0.478,0.717,0.717c1.434,1.553,2.867,2.867,4.659,3.942l1.792-2.748c-1.672-1.075-3.225-2.509-4.539-4.062l0,0
	l-2.509,2.15H110.977z M126.148,392.063h0.119h0.119h0.119h0.119h0.119h0.119h0.119h0.119h0.119h0.119h0.119h0.119h0.119h0.119
	h0.119h0.119h0.119h0.119h0.119h0.119h0.119h3.703v-3.345h-3.703h-0.119h-0.119h-0.119h-0.119h-0.119h-0.119h-0.119h-0.119h-0.119
	h-0.119h-0.119h-0.119h-0.119h-0.119h-0.119h-0.119h-0.119h-0.119h-0.119h-0.119h-0.119l-0.478,3.225L126.148,392.063z
	 M142.873,392.302v-3.345h6.57v3.345H142.873z M159.358,392.302v-3.345h6.57v3.345H159.358z M175.843,392.302v-3.345h6.57v3.345
	H175.843z M192.329,392.302v-3.345h6.57v3.345H192.329z M208.814,392.302v-3.345h6.57v3.345H208.814z M225.299,392.302v-3.345h6.57
	v3.345H225.299z M241.784,392.302v-3.345h6.57v3.345H241.784z M258.27,392.302v-3.345h6.57v3.345H258.27z M274.755,392.302v-3.345
	h6.57v3.345H274.755z M291.24,392.302v-3.345h6.57v3.345H291.24z M307.726,392.302v-3.345h6.57v3.345H307.726z M324.211,392.302
	v-3.345h6.57v3.345H324.211z M340.696,392.302v-3.345h6.57v3.345H340.696z M357.182,392.302v-3.345h6.57v3.345H357.182z
	 M373.667,392.302v-3.345h6.57v3.345H373.667z M390.152,392.302v-3.345h6.57v3.345H390.152z M406.637,392.302v-3.345h6.57v3.345
	H406.637z M423.123,392.302v-3.345h5.973h0.119h0.119h0.119h0.119l0,0l0.119,3.345h-0.119h-0.119h-0.119h-0.119h-0.119H423.123z
	 M439.966,389.674c2.15-1.075,4.062-2.509,5.734-4.181l-2.27-2.389c-1.434,1.434-3.106,2.628-4.898,3.584l1.553,2.986H439.966z
	 M451.434,376.653L451.434,376.653v-0.119v-0.119v-0.119v-0.119v-0.119v-0.119v-0.119v-0.119v-0.119v-0.119v-0.119v-0.119V375.1
	v-0.119v-0.119v-0.119v-0.119v-0.119v-0.119v-0.119v-0.119v-0.119v-0.119v-0.119v-0.119v-0.119v-0.119v-0.119v-0.119v-0.119v-0.119
	v-0.119v-0.119v-0.119v-0.119v-0.119v-0.119v-0.119v-0.119v-0.119v-0.119v-0.119v-0.119v-0.119v-0.119v-0.119v-0.119v-0.119
	l-3.345-0.119v0.119v0.119v0.119v0.119v0.119v0.119v0.119v0.119v0.119v0.119v0.119v0.119v0.119v0.119v0.119v0.119v0.119v0.119v0.119
	v0.119v0.119v0.119v0.119v0.119v0.119v0.119v0.119v0.119v0.119v0.119v0.119v0.119v0.119v0.119v0.119v0.119v0.119v0.119v0.119v0.119
	v0.119v0.119v0.119v0.119v0.119v0.119v0.119v0.119l0,0l3.106,1.195L451.434,376.653z M452.868,359.69h-3.345v-6.57h3.345V359.69z
	 M452.868,343.205h-3.345v-6.57h3.345V343.205z M452.868,326.72h-3.345v-6.57h3.345V326.72z M452.868,310.234h-3.345v-6.57h3.345
	V310.234z M452.868,293.749h-3.345v-6.57h3.345V293.749z M452.868,277.264h-3.345v-6.57h3.345V277.264z M452.868,260.778h-3.345
	v-6.57h3.345V260.778z M452.868,244.293h-3.345v-6.57h3.345V244.293z M452.868,227.808h-3.345v-1.672v-0.119v-0.119v-0.119v-0.119
	v-0.119v-0.119v-0.119v-0.119v-0.119v-0.119v-0.119v-0.119v-0.119v-0.119v-0.119v-0.119v-0.119v-0.119v-0.119v-0.119v-0.119v-0.119
	v-0.119v-0.119v-0.119v-0.119v-0.119v-0.119v-0.119v-0.119v-0.119v-0.119v-0.119v-0.119v-0.119l3.225-0.717v0.119v0.119v0.119v0.119
	v0.119v0.119v0.119v0.119v0.119v0.119v0.119v0.119v0.119v0.119v0.119v0.119v0.119v0.119v0.119v0.119v0.119v0.119v0.119v0.119v0.119
	v0.119v0.119v0.119v0.119v0.119v0.119v0.119v0.119v0.119v0.119v1.672L452.868,227.808z M447.731,211.322
	c-1.434-1.911-3.225-3.464-5.137-4.898l-1.911,2.748c1.672,1.195,3.106,2.628,4.42,4.181L447.731,211.322z M432.799,202.482
	L432.799,202.482h-0.119h-0.119h-0.119h-0.119h-0.119h-0.119h-0.119h-0.119h-0.119h-0.119h-0.119h-0.119h-0.119h-0.119h-0.119
	h-0.119h-0.119h-0.119h-0.119h-0.119h-0.119h-0.119h-0.119h-0.119h-0.119h-3.106v3.345h3.106h0.119h0.119h0.119h0.119h0.119h0.119
	h0.119h0.119h0.119h0.119h0.119h0.119h0.119h0.119h0.119h0.119h0.119h0.119h0.119h0.119h0.119h0.119h0.119h0.119h0.119l0,0
	l0.478-3.225L432.799,202.482z M416.075,202.124v3.345h-6.57v-3.345H416.075z M399.589,202.124v3.345h-6.57v-3.345H399.589z
	 M383.104,202.124v3.345h-6.57v-3.345H383.104z M366.619,202.124v3.345h-6.57v-3.345H366.619z M350.133,202.124v3.345h-6.57v-3.345
	H350.133z M333.648,202.124v3.345h-6.57v-3.345H333.648z M317.163,202.124v3.345h-6.57v-3.345H317.163z M300.678,202.124v3.345
	h-6.57v-3.345H300.678z M284.192,202.124v3.345h-6.57v-3.345H284.192z M267.707,202.124v3.345h-6.57v-3.345H267.707z
	 M251.222,202.124v3.345h-6.57v-3.345H251.222z M234.736,202.124v3.345h-6.57v-3.345H234.736z M218.251,202.124v3.345h-6.57v-3.345
	H218.251z M201.766,202.124v3.345h-6.57v-3.345H201.766z M185.28,202.124v3.345h-6.57v-3.345H185.28z M168.795,202.124v3.345h-6.57
	v-3.345H168.795z M152.31,202.124v3.345h-6.57v-3.345H152.31z"/>
<path style="fill:#ECF0F1;" d="M103.929,168.198l162.942,94.133c0.478,0.239,0.717,0.717,0.717,1.314s-0.358,0.956-0.956,1.195
	l-9.318,3.584c-2.27,0.836-4.659,0.717-6.809-0.358l-113.964-58.296c-1.553-0.836-2.509-2.509-2.27-4.301l1.075-8.84
	c0.239-1.792-0.597-3.345-2.15-4.181l-33.448-17.083l4.062-7.048L103.929,168.198z"/>
<path style="fill:#FF7069;" d="M56.862,154.102l22.578,12.424l0.836,0.478c7.765,4.301,15.649,8.601,23.414,12.902l24.131,13.26
	c0.956,0.597,2.27,0.119,2.748-0.836l3.464-6.451c0.597-0.956,0.119-2.27-0.836-2.748l-19.711-10.871
	c0.478-1.672,0.956-3.225,1.553-4.898c1.075-3.345,2.15-6.809,3.106-10.154c0.956-3.225-0.478-7.406-3.225-9.557
	c-6.092-4.539-12.185-9.079-18.397-13.618c-6.092-4.539-12.185-9.079-18.397-13.499c-2.748-2.031-6.929-0.956-9.198,2.389
	c-2.389,3.584-4.898,7.168-7.287,10.751c-2.389,3.584-4.898,7.168-7.287,10.751c-2.27,3.345-1.314,7.765,2.27,9.676H56.862z
	 M68.928,152.429c4.898,2.748,9.915,5.376,14.813,8.123c4.898,2.748,9.915,5.376,14.813,8.123c2.27,1.195,4.539,0.597,5.137-1.434
	c0.717-2.15,1.314-4.301,2.031-6.451c0.717-2.15,1.314-4.301,2.031-6.451c0.597-2.031-0.358-4.778-2.031-5.973
	c-3.823-2.867-7.765-5.734-11.587-8.601c-3.823-2.867-7.765-5.734-11.587-8.601c-1.792-1.314-4.301-0.597-5.734,1.553
	c-1.553,2.27-3.106,4.539-4.659,6.809s-3.106,4.539-4.659,6.809C66.061,148.487,66.658,151.235,68.928,152.429z"/>
<path style="fill:#FFFFFF;" d="M97.598,220.521l181.338-50.412c0.478-0.119,0.956-0.597,0.956-1.075
	c0.119-0.597-0.119-1.075-0.597-1.434l-8.123-5.734c-2.031-1.434-4.301-1.911-6.69-1.314l-124.834,28.073
	c-1.792,0.358-2.986,1.792-3.225,3.584l-1.195,8.84c-0.239,1.792-1.434,3.106-3.106,3.464l-36.674,8.243l2.27,7.765H97.598z"/>
<path style="fill:#FF7069;" d="M48.5,222.313l24.967-6.331l0.956-0.239c8.601-2.15,17.322-4.42,25.923-6.57l26.639-6.809
	c1.075-0.239,2.15,0.358,2.509,1.434l1.792,7.048c0.239,1.075-0.358,2.15-1.434,2.509l-21.861,5.495
	c0.119,1.672,0.119,3.464,0.239,5.137c0.119,3.584,0.358,7.168,0.478,10.632c0.119,3.345-2.27,7.168-5.495,8.362
	c-7.048,2.867-14.096,5.734-21.144,8.601s-14.096,5.734-21.144,8.601c-3.225,1.314-6.929-0.836-8.243-4.659
	c-1.434-4.062-2.867-8.123-4.42-12.304c-1.434-4.062-2.867-8.123-4.42-12.304c-1.314-3.823,0.717-7.765,4.659-8.72V222.313z
	 M59.729,226.972c5.495-1.434,10.99-2.748,16.366-4.181c5.495-1.434,10.99-2.748,16.366-4.181c2.509-0.597,4.539,0.597,4.659,2.748
	c0.119,2.27,0.239,4.539,0.358,6.809s0.239,4.539,0.358,6.809c0.119,2.15-1.434,4.539-3.464,5.376
	c-4.42,1.792-8.959,3.584-13.379,5.376c-4.42,1.792-8.959,3.584-13.379,5.376c-2.031,0.836-4.42-0.478-5.256-2.986
	c-0.956-2.628-1.792-5.137-2.748-7.765c-0.956-2.628-1.792-5.137-2.748-7.765c-0.836-2.389,0.478-4.898,2.867-5.495V226.972z"/>
<path style="fill:#C6CBD6;" d="M145.142,193.881c2.389,0,4.42,1.911,4.42,4.42c0,2.389-1.911,4.42-4.42,4.42
	c-2.389,0-4.42-1.911-4.42-4.42C140.722,195.912,142.634,193.881,145.142,193.881z"/>
<path style="fill:#6C7678;" d="M233.422,362.796c-1.911,0.956-5.017,1.553-8.123,1.553c-9.318,0-15.052-6.212-15.052-17.322
	c0-11.707,6.451-17.68,15.171-17.68c3.345,0,5.973,0.717,7.884,1.672l1.434-5.615c-1.195-0.597-4.42-1.792-9.557-1.792
	c-12.543,0-22.219,8.362-22.219,23.653c0,14.335,8.482,22.697,21.025,22.697c4.898,0,8.72-0.956,10.632-1.911l-1.195-5.495V362.796z
	 M258.389,323.733c-11.588,0-19.472,9.318-19.472,23.533c0,13.618,7.406,22.936,18.874,22.936c10.99,0,19.352-8.004,19.352-23.653
	C277.144,333.529,270.335,323.733,258.389,323.733z M258.15,329.348c8.123,0,11.826,8.84,11.826,17.441
	c0,9.557-4.062,17.799-11.946,17.799c-7.765,0-11.946-8.362-11.946-17.56c0-8.84,3.703-17.799,12.065-17.799V329.348z
	 M315.968,324.45h-6.809v27.356c0,8.959-3.584,12.902-9.198,12.902c-5.137,0-8.959-3.823-8.959-12.902V324.45h-6.809v26.878
	c0,13.499,6.212,18.874,15.53,18.874c9.557,0,16.246-5.615,16.246-19.113V324.33V324.45z M325.286,369.605h6.809v-17.68
	c1.075,0.239,2.389,0.239,3.823,0.239c8.123,0,16.844-3.823,16.844-14.693c0-4.181-1.553-7.526-4.062-9.676
	c-2.748-2.389-6.929-3.584-12.424-3.584c-4.659,0-8.243,0.358-10.99,0.836V369.605z M332.095,329.945
	c0.836-0.119,2.509-0.358,4.539-0.358c5.495,0,9.318,2.748,9.318,8.243c0,5.734-3.823,9.079-10.035,9.079
	c-1.553,0-2.867-0.119-3.823-0.358v-16.485V329.945z M376.892,323.853c-11.587,0-19.472,9.318-19.472,23.533
	c0,13.618,7.406,22.936,18.874,22.936c10.99,0,19.352-8.004,19.352-23.653C395.647,333.648,388.838,323.853,376.892,323.853z
	 M376.653,329.467c8.123,0,11.826,8.84,11.826,17.441c0,9.557-4.062,17.799-11.946,17.799c-7.765,0-11.946-8.362-11.946-17.56
	c0-8.84,3.703-17.799,12.065-17.799V329.467z M435.069,324.569h-6.331v16.605c0,7.168,0.119,13.021,0.717,19.113h-0.119
	c-1.911-4.778-4.539-10.035-7.287-14.932l-11.826-20.905h-7.406v45.155h6.331v-16.844c0-7.884-0.119-13.738-0.478-19.472h0.239
	c2.031,5.137,4.778,10.393,7.526,15.291l11.826,21.144h6.929v-45.155H435.069z"/>
</svg>