<?xml version="1.0" encoding="iso-8859-1"?>
<!-- Uploaded to: SVG Repo, www.svgrepo.com, Generator: SVG Repo Mixer Tools -->
<svg height="800px" width="800px" version="1.1" id="Layer_1" xmlns="http://www.w3.org/2000/svg" xmlns:xlink="http://www.w3.org/1999/xlink" 
	 viewBox="0 0 512 512" xml:space="preserve">
<path style="fill:#E4E7ED;" d="M256,0c141.389,0,256,114.611,256,256S397.383,512,256,512C114.611,512,0,397.383,0,256
	C0,114.611,114.611,0,256,0z"/>
<path style="fill:#75BD80;" d="M81.617,139.239H432.69c10.552,0,19.183,8.426,19.183,18.737v198.806
	c0,10.305-8.631,18.737-19.183,18.737H81.617c-10.552,0-19.183-8.432-19.183-18.737V157.976
	C62.434,147.671,71.065,139.239,81.617,139.239z"/>
<path style="fill:#83CF8F;" d="M77.365,136.486h354.963c9.48,0,17.238,7.577,17.238,16.834v202.606
	c0,9.257-7.758,16.834-17.238,16.834H77.365c-9.486,0-17.238-7.577-17.238-16.834V153.321
	C60.127,144.063,67.885,136.486,77.365,136.486z"/>
<polygon style="fill:#6C7678;" points="60.127,158.916 449.566,158.916 449.566,213.297 60.127,213.297 "/>
<polygon style="fill:#FFFFFF;" points="89.748,237.196 419.945,237.196 419.945,266.968 89.748,266.968 "/>
<polygon style="fill:#E4E7ED;" points="89.748,301.166 139.877,301.166 139.877,350.157 89.748,350.157 "/>
<g>
	<polygon style="fill:#6C7678;" points="166.788,301.166 416.217,301.166 416.217,308.37 166.788,308.37 	"/>
	<polygon style="fill:#6C7678;" points="166.788,322.301 416.217,322.301 416.217,329.504 166.788,329.504 	"/>
	<polygon style="fill:#6C7678;" points="166.788,343.435 309.779,343.435 309.779,350.633 166.788,350.633 	"/>
	<polygon style="fill:#6C7678;" points="451.879,158.922 449.566,158.922 449.566,213.297 451.879,213.297 	"/>
</g>
<polygon style="fill:#E4E7ED;" points="267.913,242.695 412.007,242.695 412.007,261.475 267.913,261.475 "/>
</svg>