<?xml version="1.0" encoding="iso-8859-1"?>
<!-- Uploaded to: SVG Repo, www.svgrepo.com, Generator: SVG Repo Mixer Tools -->
<svg height="800px" width="800px" version="1.1" id="Layer_1" xmlns="http://www.w3.org/2000/svg" xmlns:xlink="http://www.w3.org/1999/xlink" 
	 viewBox="0 0 511.985 511.985" xml:space="preserve">
<path style="fill:#CCD1D9;" d="M403.269,164.058c-6.766-16.328-25.483-24.078-41.811-17.328L46.109,277.351
	c-17.031,7.062-30.062,19.703-37.858,34.921h132.871c-0.719-1.391-1.453-2.75-2.234-4.078l247.055-102.325
	C402.269,199.104,410.035,180.386,403.269,164.058z"/>
<path style="fill:#DA4453;" d="M138.887,308.194l10.562-4.359l-24.5-59.138l-78.841,32.655
	c-38.092,15.781-56.185,59.467-40.405,97.559c15.781,38.093,59.467,56.186,97.56,40.405c38.093-15.78,56.186-59.451,40.405-97.544
	C142.278,314.413,140.684,311.225,138.887,308.194z M74.717,367.489c-11.781,0-21.328-9.546-21.328-21.343
	c0-11.78,9.547-21.327,21.328-21.327c11.796,0,21.343,9.547,21.343,21.327C96.06,357.943,86.514,367.489,74.717,367.489z"/>
<path style="fill:#E6E9ED;" d="M385.942,306.116l-247.055-102.34c1.797-3.016,3.391-6.219,4.781-9.562
	c0-0.016,0.016-0.016,0.016-0.031H5.688c7.312,17.671,21.359,32.546,40.421,40.452l315.35,130.604
	c16.327,6.766,35.045-0.984,41.811-17.312S402.269,312.882,385.942,306.116z"/>
<path style="fill:#ED5564;" d="M138.887,203.776c1.797-3.016,3.391-6.219,4.781-9.562c15.781-38.093-2.312-81.764-40.405-97.544
	c-38.092-15.781-81.779,2.312-97.56,40.405c-15.781,38.092,2.312,81.779,40.405,97.56l78.841,32.64l24.5-59.124L138.887,203.776z
	 M94.389,173.808c-4.5,10.875-16.984,16.047-27.858,11.547c-10.891-4.516-16.046-16.984-11.547-27.874
	c4.516-10.875,16.984-16.047,27.875-11.531C93.732,150.45,98.904,162.918,94.389,173.808z"/>
<g>
	<path style="fill:#434A54;" d="M181.714,266.665c-5.891,0-10.656-4.781-10.656-10.671c0-5.891,4.766-10.672,10.656-10.672
		s10.671,4.781,10.671,10.672C192.386,261.884,187.604,266.665,181.714,266.665z"/>
	<path style="fill:#434A54;" d="M501.33,245.322h-42.672c-5.89,0-10.671,4.781-10.671,10.672c0,5.89,4.781,10.671,10.671,10.671
		h42.672c5.89,0,10.655-4.781,10.655-10.671C511.985,250.103,507.22,245.322,501.33,245.322z"/>
	<path style="fill:#434A54;" d="M426.66,245.322h-42.671c-5.891,0-10.656,4.781-10.656,10.672c0,5.89,4.766,10.671,10.656,10.671
		h42.671c5.891,0,10.672-4.781,10.672-10.671C437.332,250.103,432.551,245.322,426.66,245.322z"/>
	<path style="fill:#434A54;" d="M351.99,245.322h-42.655c-5.891,0-10.671,4.781-10.671,10.672c0,5.89,4.78,10.671,10.671,10.671
		h42.655c5.891,0,10.672-4.781,10.672-10.671C362.662,250.103,357.881,245.322,351.99,245.322z"/>
</g>
</svg>