<?xml version="1.0" encoding="iso-8859-1"?>
<!-- Uploaded to: SVG Repo, www.svgrepo.com, Generator: SVG Repo Mixer Tools -->
<svg height="800px" width="800px" version="1.1" id="Layer_1" xmlns="http://www.w3.org/2000/svg" xmlns:xlink="http://www.w3.org/1999/xlink" 
	 viewBox="0 0 512 512" xml:space="preserve">
<circle style="fill:#6B7F9E;" cx="256" cy="256" r="256"/>
<path style="fill:#FFE356;" d="M23.241,108.644H232.69c2.475,0,4.47,1.994,4.47,4.47v159.321c0,2.475-1.994,4.47-4.47,4.47H23.241
	c-2.475,0-4.47-1.994-4.47-4.47V113.113C18.772,110.638,20.766,108.644,23.241,108.644z"/>
<polygon style="fill:#FCD34E;" points="33.281,108.644 63.398,108.644 63.398,141.03 48.615,126.797 33.281,141.03 "/>
<path style="fill:#FFFFFF;" d="M266.521,173.761v215.224h94.41h107.268v-33.625h30.049v-57.897c0,0-22.898-19.322-56.522-27.161
	c0,0-39.332-69.381-52.947-80.795C388.779,189.507,370.901,177.337,266.521,173.761z"/>
<polygon style="fill:#6C7678;" points="39.125,322.493 39.125,340.371 16.984,340.371 16.984,388.985 266.521,388.985 
	266.521,339.683 218.594,339.683 218.594,322.286 39.057,322.286 "/>
<polygon style="fill:#83CF8F;" points="218.594,322.286 257.582,322.286 257.582,271.334 4.126,271.334 4.126,322.286 
	39.057,322.286 "/>
<path style="fill:#596366;" d="M477,388.985c0.344-2.475,0.481-4.951,0.481-7.495c0-32.181-26.061-58.31-58.31-58.31
	c-32.18,0-58.31,26.061-58.31,58.31c0,2.544,0.206,5.02,0.481,7.495h115.589H477z M155.952,388.985
	c0.344-2.475,0.481-4.951,0.481-7.495c0-32.181-26.061-58.31-58.31-58.31c-32.18,0-58.241,26.061-58.241,58.31
	c0,2.544,0.206,5.02,0.481,7.495H155.952z"/>
<g>
	<path style="fill:#6C7678;" d="M463.179,381.49c0,24.273-19.666,44.008-44.008,44.008c-24.273,0-44.008-19.666-44.008-44.008
		c0-24.273,19.666-44.008,44.008-44.008C443.445,337.483,463.179,357.149,463.179,381.49z"/>
	<path style="fill:#6C7678;" d="M141.03,381.49c0,23.723-19.185,42.907-42.907,42.907s-42.907-19.185-42.907-42.907
		s19.185-42.907,42.907-42.907S141.03,357.767,141.03,381.49z"/>
</g>
<path style="fill:#ECF0F1;" d="M39.813,391.323H14.853c-3.919,0-7.151-3.232-7.151-7.151v-24.479c0-3.919,3.232-7.151,7.151-7.151
	h24.961V391.323z M440.694,381.49c0,11.896-9.627,21.522-21.522,21.522s-21.522-9.627-21.522-21.522s9.627-21.522,21.522-21.522
	S440.694,369.594,440.694,381.49z M121.777,381.49c0,13.065-10.589,23.654-23.654,23.654s-23.654-10.589-23.654-23.654
	s10.589-23.654,23.654-23.654S121.777,368.425,121.777,381.49z M275.803,377.571v-18.566v-0.756V188.27
	c0-0.894,0.756-1.65,1.65-1.65h0.275c0.894,0,1.65,0.756,1.65,1.65v165.716c0.206-0.069,0.481-0.069,0.688-0.069h70.962
	c2.338,0,4.263,1.925,4.263,4.263v0.756c0,2.338-1.925,4.263-4.263,4.263h-70.962c-0.206,0-0.481,0-0.688-0.069v14.371h81.551
	v11.414h-94.41v-11.414h9.283V377.571z M500.173,392.698h-33.349v-38.713h33.349c4.263,0,7.701,3.438,7.701,7.701v23.31
	C507.874,389.26,504.436,392.698,500.173,392.698z M339.408,293.2h-21.66c-1.513,0-2.682-1.238-2.682-2.682v-0.481
	c0-1.513,1.238-2.682,2.682-2.682h21.66c1.513,0,2.682,1.238,2.682,2.682v0.481C342.09,292.031,340.852,293.2,339.408,293.2z"/>
<path style="fill:#FFE45E;" d="M17.259,352.542h-0.481c-1.375,0-2.544-1.169-2.544-2.544v-7.77c0-1.375,1.169-2.544,2.544-2.544
	h0.481c1.375,0,2.544,1.169,2.544,2.544v7.77C19.803,351.373,18.634,352.542,17.259,352.542z"/>
<path style="fill:#8597B1;" d="M384.997,202.916h15.196c0,0,37.2,55.422,41.532,67.387h-30.118c-1.582,0-3.026-0.894-3.713-2.338
	l-27.092-58.379c-1.444-3.094,0.825-6.601,4.263-6.601L384.997,202.916z M397.649,264.733l-24.273-57.485
	c-1.1-2.613-3.644-4.263-6.464-4.263h-44.145c-3.301,0-5.982,2.682-5.982,5.982v55.422c0,3.301,2.682,5.982,5.982,5.982h71.168
	C396.824,270.371,398.818,267.414,397.649,264.733z"/>
<path style="fill:#FF7069;" d="M498.179,313.966c-5.363,0.55-9.627,5.088-9.627,10.589v11.552c0,5.501,4.263,10.039,9.627,10.589
	v-32.799V313.966z"/>
<g>
	<path style="fill:#FFFFFF;" d="M48.064,236.334c-2.75-2.544-6.532-3.782-11.483-3.782H25.923v30.874h9.97
		c5.157,0,9.145-1.375,11.965-4.194c2.819-2.75,4.263-6.739,4.263-11.896C52.121,242.523,50.746,238.878,48.064,236.334
		L48.064,236.334z M210.411,232.552h-9.077l10.177,19.047v11.827h8.389v-12.102l10.177-18.841h-9.008l-5.295,11.483l-5.295-11.483
		L210.411,232.552z M185.863,252.218l6.532,11.277h9.489l-9.008-13.477c3.507-1.994,5.226-4.745,5.226-8.32
		c0-6.12-4.194-9.145-12.583-9.145h-10.108v30.874h8.32v-11.277h2.132V252.218z M183.731,238.878h1.65
		c2.819,0,4.263,1.1,4.263,3.232c0,2.544-1.444,3.851-4.401,3.851h-1.582v-7.082H183.731z M169.979,256.688h-9.97v-5.845h9.283
		v-6.739h-9.283v-4.813h9.97v-6.739H151.62v30.874h18.359v-6.807V256.688z M134.704,248.367c-0.206,0.825-0.481,1.994-0.756,3.438
		c-0.275,1.513-0.481,2.75-0.619,3.713c-0.069-1.375-0.55-3.782-1.444-7.289l-4.194-15.678h-9.42l10.108,30.874h9.833l10.108-30.874
		h-9.352l-4.263,15.746V248.367z M114.97,263.495v-30.874h-8.389v30.874H114.97z M101.63,263.495v-6.739H89.734v-24.135h-8.32
		v30.874H101.63z M75.982,256.688h-9.97v-5.845h9.283v-6.739h-9.283v-4.813h9.97v-6.739H57.622v30.874h18.359v-6.807V256.688z
		 M41.67,254.418c-1.169,1.444-3.026,2.2-5.57,2.2h-1.857v-17.328h2.407c2.269,0,3.988,0.688,5.088,2.063
		c1.1,1.375,1.719,3.438,1.719,6.326C43.457,250.705,42.839,252.974,41.67,254.418L41.67,254.418z"/>
	<path style="fill:#FFFFFF;" d="M127.966,138.349c5.363,0,10.589,0.481,15.678,1.444l0,0l0.344,0.069
		c0.55,0.138,1.1,0.206,1.65,0.344h0.138l0.344,0.069c0.481,0.138,0.963,0.206,1.444,0.344l0.344,0.069
		c0.619,0.138,1.169,0.275,1.788,0.481l0.344,0.069c0.55,0.138,1.169,0.344,1.719,0.481l0.344,0.138
		c0.481,0.138,0.894,0.275,1.375,0.413l0.344,0.138l0.344,0.138c0.481,0.138,0.894,0.275,1.375,0.481l0.344,0.138h0.069
		c0.55,0.206,1.1,0.413,1.582,0.55l0,0l0.344,0.138l0,0c0.481,0.206,1.031,0.413,1.513,0.619l0.138,0.069l0.344,0.138
		c0.413,0.206,0.894,0.344,1.306,0.55l0,0l0.344,0.138l0.344,0.138c0.413,0.206,0.825,0.344,1.238,0.55l0.069,0.069l0.344,0.138
		c0.55,0.275,1.031,0.481,1.582,0.756l0,0l0.344,0.138c27.436,13.752,46.277,42.082,46.277,74.882v0.481H44.351v-0.481
		c0-35.687,22.348-66.149,53.772-78.182l0.413-0.138c0.413-0.138,0.894-0.344,1.306-0.481l0.481-0.138h0.069
		c3.094-1.1,6.326-1.994,9.558-2.682l0,0l0.481-0.138c0.481-0.069,0.963-0.206,1.444-0.275l0.481-0.069
		c1.238-0.206,2.544-0.481,3.782-0.619l0,0l0,0c3.851-0.55,7.839-0.825,11.827-0.825V138.349z M116.345,160.49
		c-2.475,6.601-4.538,13.615-6.12,20.904c-4.401-0.413-8.664-0.963-12.927-1.65C102.455,172.248,108.919,165.647,116.345,160.49z
		 M88.153,178.024c-5.982-1.306-11.758-2.888-17.328-4.745c11.346-13.271,27.23-22.554,45.314-25.373
		c1.1,0.206,2.2,0.344,3.369,0.619c-12.79,6.945-23.585,17.19-31.287,29.568L88.153,178.024z M64.774,181.325
		c5.914,2.2,12.033,4.194,18.497,5.776c-4.194,9.145-6.807,19.185-7.495,29.774H52.947C53.84,203.81,58.035,191.708,64.774,181.325z
		 M91.866,188.957c5.295,1.031,10.796,1.857,16.365,2.407c-1.375,8.183-2.2,16.709-2.407,25.442H84.439
		c0.688-9.97,3.301-19.391,7.495-27.917L91.866,188.957z M152.101,216.875c-0.206-8.87-1.1-17.465-2.475-25.717
		c7.289-0.825,14.44-2.132,21.247-3.782c4.676,8.939,7.564,18.909,8.251,29.499h-27.092H152.101z M179.399,185.107
		c3.988-1.169,7.839-2.475,11.552-3.919c6.739,10.383,11.002,22.554,11.896,35.687h-15.059
		C187.101,205.529,184.144,194.802,179.399,185.107z M184.969,173.142c-3.438,1.169-6.945,2.2-10.589,3.163
		c-7.426-11.414-17.603-20.835-29.499-27.505C160.765,152.445,174.724,161.178,184.969,173.142z M165.441,178.368
		c-5.776,1.169-11.689,2.132-17.741,2.75c-1.994-8.939-4.676-17.397-7.908-25.304c10.177,5.501,18.909,13.202,25.579,22.554H165.441
		z M120.264,182.012c2.475,0.069,5.02,0.138,7.495,0.138c3.369,0,6.67-0.069,9.97-0.275c-2.2-9.833-5.088-19.116-8.733-27.711
		c-3.644,8.595-6.601,17.947-8.733,27.78V182.012z M139.655,191.983c-3.919,0.275-7.839,0.344-11.896,0.344
		c-3.163,0-6.326-0.069-9.42-0.206c-1.306,7.976-2.063,16.228-2.269,24.685h25.923c-0.206-8.526-1.031-16.847-2.269-24.823H139.655z
		"/>
</g>
<polygon style="fill:#FCD34E;" points="181.944,108.644 212.061,108.644 212.061,141.03 197.209,126.797 181.944,141.03 "/>
</svg>