<?xml version="1.0" encoding="iso-8859-1"?>
<!-- Uploaded to: SVG Repo, www.svgrepo.com, Generator: SVG Repo Mixer Tools -->
<svg height="800px" width="800px" version="1.1" id="Layer_1" xmlns="http://www.w3.org/2000/svg" xmlns:xlink="http://www.w3.org/1999/xlink" 
	 viewBox="0 0 512 512" xml:space="preserve">
<circle style="fill:#6B7F9E;" cx="256" cy="256" r="256"/>
<path style="fill:#FFFFFF;" d="M89.646,61.404h332.891h49.56c6.013,0,10.932,4.92,10.932,10.932v65.048v237.233
	c-95.658,182.389-358.218,182.389-453.876,0V137.384V72.336c0-6.013,4.92-10.932,10.932-10.932H89.646z"/>
<path style="fill:#6C7678;" d="M40.085,61.404h432.011c6.013,0,10.932,4.92,10.932,10.932v21.865H29.153V72.336
	C29.153,66.323,34.073,61.404,40.085,61.404z"/>
<path style="fill:#FFFFFF;" d="M231.22,72.883h219.194c1.64,0,2.915,1.275,2.915,2.915v5.466c0,1.64-1.275,2.915-2.915,2.915H231.22
	c-1.64,0-2.915-1.275-2.915-2.915v-5.466C228.305,74.158,229.58,72.883,231.22,72.883z"/>
<circle style="fill:#83CF8F;" cx="50.836" cy="77.073" r="6.377"/>
<circle style="fill:#FFE356;" cx="75.616" cy="77.073" r="6.377"/>
<circle style="fill:#FF7069;" cx="100.578" cy="77.073" r="6.377"/>
<circle style="fill:#83CF8F;" cx="113.697" cy="319.772" r="26.967"/>
<circle style="fill:#FFE356;" cx="256" cy="319.772" r="26.967"/>
<circle style="fill:#FF7069;" cx="398.303" cy="319.772" r="26.967"/>
<g>
	<path style="fill:#E4E7ED;" d="M75.069,371.337h51.929v5.466H75.069V371.337z M75.069,354.209h77.256v5.466H75.069V354.209z"/>
	<path style="fill:#E4E7ED;" d="M217.372,371.337h51.929v5.466h-51.929V371.337z M217.372,354.209h77.256v5.466h-77.256V354.209z"/>
	<path style="fill:#E4E7ED;" d="M359.675,371.337h51.929v5.466h-51.929V371.337z M359.675,354.209h77.256v5.466h-77.256V354.209z"/>
</g>
<g>
	<path style="fill:#ECF0F1;" d="M75.069,396.663h99.485v77.984h-51.747c-17.31-10.568-33.344-23.14-47.738-37.535V396.663z
		 M436.931,437.113c-14.394,14.212-30.246,26.967-47.738,37.535h-51.747v-77.984h99.485V437.113z M206.258,474.648v-77.984h99.485
		v77.984H206.258z"/>
	<polygon style="fill:#ECF0F1;" points="58.488,283.331 453.694,283.331 453.694,285.153 58.488,285.153 	"/>
</g>
<path style="fill:#FFE45E;" d="M233.589,179.656c0.364-5.102,0.547-10.568,0.364-16.763c3.28,0.911,7.106,1.275,11.843,1.275h7.653
	h7.653c4.737,0,8.746-0.364,12.026-1.458c-0.182,6.195-0.182,11.661,0.364,16.763h-39.903V179.656z"/>
<path style="fill:#83CF8F;" d="M214.457,248.165c0,1.822-2.186,3.28-4.92,2.915c-2.733-0.182-4.92-2.004-4.92-4.009
	c0-0.729,0.364-1.458,0.911-1.822l27.695-65.23l0,0v-0.547h40.268v0.547l0,0l27.695,65.23c0.547,0.547,0.911,1.093,0.911,1.822
	c0,1.822-2.186,3.644-4.92,4.009c-2.733,0.182-4.92-1.093-4.92-2.915c0-1.275,0-0.911,0,0c0,1.822-2.186,3.644-4.92,4.009
	c-2.733,0.182-4.92-1.093-4.92-2.915c0-1.275,0-0.911,0,0c0,1.822-2.186,3.644-4.92,4.009c-2.733,0.182-4.92-1.093-4.92-2.915
	c0-1.275,0-1.093,0,0c0,1.822-2.186,3.644-4.92,4.009c-2.733,0.182-4.92-1.093-4.92-2.915c0-1.275,0-1.093,0,0
	c0,1.822-2.186,3.644-4.92,4.009c-2.733,0.182-4.92-1.093-4.92-2.915c0-1.275,0-1.093,0,0c0,0.364-0.182,0.911-0.364,1.275
	c-0.182-0.364-0.364-0.729-0.364-1.275c0-1.093,0-1.275,0,0c0,1.822-2.186,3.28-4.92,2.915c-2.733-0.182-4.92-2.004-4.92-4.009
	c0-1.093,0-1.275,0,0c0,1.822-2.186,3.28-4.92,2.915c-2.733-0.182-4.92-2.004-4.92-4.009c0-1.093,0-1.275,0,0
	c0,1.822-2.186,3.28-4.92,2.915c-2.733-0.182-4.92-2.004-4.92-4.009c0-0.911,0-1.275,0,0c0,1.822-2.186,3.28-4.92,2.915
	c-2.733-0.182-4.92-2.004-4.92-4.009c0-0.911,0-1.275,0,0H214.457z"/>
<path style="fill:#FF7069;" d="M253.449,164.168h-6.742c-13.119,0-19.132-2.369-20.043-8.746
	c-0.729-5.466,1.093-11.479,4.555-16.399l1.093-17.127h2.915v17.31c4.191,4.373,11.297,6.559,18.403,6.377
	c7.288,0.182,14.577-2.004,18.585-6.742v-16.945h2.915l1.093,17.674c3.098,4.737,4.92,10.568,4.191,15.852
	c-0.911,6.377-6.924,8.746-20.043,8.746h-6.742H253.449z"/>
<path style="fill:#FFFFFF;" d="M207.533,240.877c0,0.182,0,0.364,0,0.729c0,0.911-0.547,1.822-1.275,2.369l1.275-2.915V240.877z
	 M273.674,183.3c0.547,0,1.093,0.182,1.64,0.547l1.093,2.369c-0.182,1.275-1.275,2.369-2.551,2.369
	c-1.458,0-2.551-1.093-2.551-2.551c0-1.458,1.093-2.551,2.551-2.551L273.674,183.3z M262.195,183.3c1.458,0,2.551,1.093,2.551,2.551
	c0,1.458-1.093,2.551-2.551,2.551c-1.458,0-2.551-1.093-2.551-2.551C259.644,184.393,260.737,183.3,262.195,183.3z M250.716,183.3
	c1.458,0,2.551,1.093,2.551,2.551c0,1.458-1.093,2.551-2.551,2.551c-1.458,0-2.551-1.093-2.551-2.551
	C248.165,184.393,249.258,183.3,250.716,183.3z M239.237,183.3c1.458,0,2.551,1.093,2.551,2.551c0,1.458-1.093,2.551-2.551,2.551
	c-1.458,0-2.551-1.093-2.551-2.551C236.686,184.393,237.779,183.3,239.237,183.3z M280.962,197.33
	c-0.547,0.364-1.093,0.729-1.822,0.729c-1.458,0-2.551-1.093-2.551-2.551s1.093-2.551,2.551-2.551l2.004,4.555L280.962,197.33z
	 M267.661,192.774c1.458,0,2.551,1.093,2.551,2.551c0,1.458-1.093,2.551-2.551,2.551c-1.458,0-2.551-1.093-2.551-2.551
	C265.11,193.868,266.204,192.774,267.661,192.774z M256.182,192.774c1.458,0,2.551,1.093,2.551,2.551
	c0,1.458-1.093,2.551-2.551,2.551c-1.458,0-2.551-1.093-2.551-2.551C253.631,193.868,254.725,192.774,256.182,192.774z
	 M244.703,192.774c1.458,0,2.551,1.093,2.551,2.551c0,1.458-1.093,2.551-2.551,2.551c-1.458,0-2.551-1.093-2.551-2.551
	C242.152,193.868,243.246,192.774,244.703,192.774z M233.224,192.774c1.458,0,2.551,1.093,2.551,2.551
	c0,1.458-1.093,2.551-2.551,2.551c-1.458,0-2.551-1.093-2.551-2.551C230.673,193.868,231.767,192.774,233.224,192.774z
	 M284.971,206.986L284.971,206.986c-1.458,0-2.551-1.093-2.551-2.551c0-0.729,0.364-1.458,0.729-1.822l1.822,4.555V206.986z
	 M273.492,201.702c1.458,0,2.551,1.093,2.551,2.551c0,1.458-1.093,2.551-2.551,2.551s-2.551-1.093-2.551-2.551
	C270.941,202.796,272.034,201.702,273.492,201.702z M262.013,201.702c1.458,0,2.551,1.093,2.551,2.551
	c0,1.458-1.093,2.551-2.551,2.551s-2.551-1.093-2.551-2.551C259.462,202.796,260.555,201.702,262.013,201.702z M250.534,201.702
	c1.458,0,2.551,1.093,2.551,2.551c0,1.458-1.093,2.551-2.551,2.551c-1.458,0-2.551-1.093-2.551-2.551
	C247.983,202.796,249.076,201.702,250.534,201.702z M239.055,201.702c1.458,0,2.551,1.093,2.551,2.551
	c0,1.458-1.093,2.551-2.551,2.551c-1.458,0-2.551-1.093-2.551-2.551C236.504,202.796,237.597,201.702,239.055,201.702z
	 M227.576,201.702c1.458,0,2.551,1.093,2.551,2.551c0,1.458-1.093,2.551-2.551,2.551c-1.458,0-2.551-1.093-2.551-2.551
	C225.025,202.796,226.118,201.702,227.576,201.702z M288.615,215.915c-0.547-0.547-0.911-1.275-0.911-2.004v-0.182L288.615,215.915z
	 M278.776,211.177c1.458,0,2.551,1.093,2.551,2.551c0,1.458-1.093,2.551-2.551,2.551c-1.458,0-2.551-1.093-2.551-2.551
	C276.225,212.27,277.318,211.177,278.776,211.177z M267.297,211.177c1.458,0,2.551,1.093,2.551,2.551
	c0,1.458-1.093,2.551-2.551,2.551c-1.458,0-2.551-1.093-2.551-2.551C264.746,212.27,265.839,211.177,267.297,211.177z
	 M255.818,211.177c1.458,0,2.551,1.093,2.551,2.551c0,1.458-1.093,2.551-2.551,2.551s-2.551-1.093-2.551-2.551
	C253.267,212.27,254.36,211.177,255.818,211.177z M244.339,211.177c1.458,0,2.551,1.093,2.551,2.551
	c0,1.458-1.093,2.551-2.551,2.551s-2.551-1.093-2.551-2.551C241.788,212.27,242.881,211.177,244.339,211.177z M232.86,211.177
	c1.458,0,2.551,1.093,2.551,2.551c0,1.458-1.093,2.551-2.551,2.551s-2.551-1.093-2.551-2.551
	C230.309,212.27,231.402,211.177,232.86,211.177z M221.381,211.177c1.458,0,2.551,1.093,2.551,2.551
	c0,1.458-1.093,2.551-2.551,2.551s-2.551-1.093-2.551-2.551C218.83,212.27,219.923,211.177,221.381,211.177z M284.606,220.105
	c1.458,0,2.551,1.093,2.551,2.551c0,1.458-1.093,2.551-2.551,2.551c-1.458,0-2.551-1.093-2.551-2.551
	C282.056,221.199,283.149,220.105,284.606,220.105z M273.127,220.105c1.458,0,2.551,1.093,2.551,2.551
	c0,1.458-1.093,2.551-2.551,2.551c-1.458,0-2.551-1.093-2.551-2.551C270.577,221.199,271.67,220.105,273.127,220.105z
	 M261.648,220.105c1.458,0,2.551,1.093,2.551,2.551c0,1.458-1.093,2.551-2.551,2.551c-1.458,0-2.551-1.093-2.551-2.551
	C259.098,221.199,260.191,220.105,261.648,220.105z M250.169,220.105c1.458,0,2.551,1.093,2.551,2.551
	c0,1.458-1.093,2.551-2.551,2.551c-1.458,0-2.551-1.093-2.551-2.551C247.618,221.199,248.712,220.105,250.169,220.105z
	 M238.69,220.105c1.458,0,2.551,1.093,2.551,2.551c0,1.458-1.093,2.551-2.551,2.551c-1.458,0-2.551-1.093-2.551-2.551
	C236.14,221.199,237.233,220.105,238.69,220.105z M227.211,220.105c1.458,0,2.551,1.093,2.551,2.551
	c0,1.458-1.093,2.551-2.551,2.551c-1.458,0-2.551-1.093-2.551-2.551C224.661,221.199,225.754,220.105,227.211,220.105z
	 M215.732,220.105c1.458,0,2.551,1.093,2.551,2.551c0,1.458-1.093,2.551-2.551,2.551c-0.729,0-1.458-0.364-2.004-0.911l1.822-4.373
	h0.182V220.105z M289.89,229.762c1.458,0,2.551,1.093,2.551,2.551c0,1.458-1.093,2.551-2.551,2.551
	c-1.458,0-2.551-1.093-2.551-2.551C287.34,230.856,288.433,229.762,289.89,229.762z M278.411,229.762
	c1.458,0,2.551,1.093,2.551,2.551c0,1.458-1.093,2.551-2.551,2.551c-1.458,0-2.551-1.093-2.551-2.551
	C275.861,230.856,276.954,229.762,278.411,229.762z M266.932,229.762c1.458,0,2.551,1.093,2.551,2.551
	c0,1.458-1.093,2.551-2.551,2.551c-1.458,0-2.551-1.093-2.551-2.551C264.382,230.856,265.475,229.762,266.932,229.762z
	 M255.453,229.762c1.458,0,2.551,1.093,2.551,2.551c0,1.458-1.093,2.551-2.551,2.551s-2.551-1.093-2.551-2.551
	C252.902,230.856,253.996,229.762,255.453,229.762z M243.974,229.762c1.458,0,2.551,1.093,2.551,2.551
	c0,1.458-1.093,2.551-2.551,2.551s-2.551-1.093-2.551-2.551C241.423,230.856,242.517,229.762,243.974,229.762z M232.495,229.762
	c1.458,0,2.551,1.093,2.551,2.551c0,1.458-1.093,2.551-2.551,2.551s-2.551-1.093-2.551-2.551
	C229.944,230.856,231.038,229.762,232.495,229.762z M221.016,229.762c1.458,0,2.551,1.093,2.551,2.551
	c0,1.458-1.093,2.551-2.551,2.551s-2.551-1.093-2.551-2.551C218.465,230.856,219.559,229.762,221.016,229.762z M210.995,230.127
	c0.729,0.547,1.093,1.275,1.093,2.186c0,1.458-1.093,2.551-2.551,2.551c-0.182,0-0.364,0-0.547,0L210.995,230.127z M295.539,238.69
	c1.458,0,2.551,1.093,2.551,2.551c0,1.458-1.093,2.551-2.551,2.551s-2.551-1.093-2.551-2.551
	C292.988,239.784,294.081,238.69,295.539,238.69z M284.06,238.69c1.458,0,2.551,1.093,2.551,2.551c0,1.458-1.093,2.551-2.551,2.551
	s-2.551-1.093-2.551-2.551C281.509,239.784,282.602,238.69,284.06,238.69z M272.581,238.69c1.458,0,2.551,1.093,2.551,2.551
	c0,1.458-1.093,2.551-2.551,2.551s-2.551-1.093-2.551-2.551C270.03,239.784,271.123,238.69,272.581,238.69z M261.102,238.69
	c1.458,0,2.551,1.093,2.551,2.551c0,1.458-1.093,2.551-2.551,2.551s-2.551-1.093-2.551-2.551
	C258.551,239.784,259.644,238.69,261.102,238.69z M249.623,238.69c1.458,0,2.551,1.093,2.551,2.551c0,1.458-1.093,2.551-2.551,2.551
	c-1.458,0-2.551-1.093-2.551-2.551C247.072,239.784,248.165,238.69,249.623,238.69z M238.144,238.69
	c1.458,0,2.551,1.093,2.551,2.551c0,1.458-1.093,2.551-2.551,2.551c-1.458,0-2.551-1.093-2.551-2.551
	C235.593,239.784,236.686,238.69,238.144,238.69z M226.665,238.69c1.458,0,2.551,1.093,2.551,2.551c0,1.458-1.093,2.551-2.551,2.551
	c-1.458,0-2.551-1.093-2.551-2.551C224.114,239.784,225.207,238.69,226.665,238.69z M215.186,238.69
	c1.458,0,2.551,1.093,2.551,2.551c0,1.458-1.093,2.551-2.551,2.551c-1.458,0-2.551-1.093-2.551-2.551
	C212.635,239.784,213.728,238.69,215.186,238.69z"/>
<path style="fill:#C6CBD6;" d="M441.851,170.727h6.924l10.75,17.856l-10.75,17.856h-6.924l10.75-17.856L441.851,170.727z
	 M70.149,170.727h-6.924l-10.75,17.856l10.75,17.856h6.924l-10.75-17.856L70.149,170.727z"/>
<path style="fill:#FFFFFF;" d="M156.88,190.406h7.47c0.364,0,0.547,0.182,0.547,0.547l0,0c0,0.364-0.182,0.547-0.547,0.547h-7.47
	c-0.364,0-0.547-0.182-0.547-0.547l0,0C156.333,190.588,156.515,190.406,156.88,190.406z"/>
<path style="fill:#FFE45E;" d="M398.121,158.155c0,0,8.928,6.559,10.204,14.394c0.729,4.737,0.729,7.653,0.547,9.293
	c-7.106,3.28-19.496,9.11-21.683,11.297c-6.559,6.742-18.221,34.255-22.958,35.712c-4.191,1.275-31.522,0.547-31.522,0.547
	s-5.284,0-6.377-1.093c-0.364-2.369,8.199-2.733,8.199-2.733l-0.364-4.373c-0.182-1.64,4.737-4.373,6.195-4.191
	c0,0,4.373,10.932,13.301,7.47l-8.382-10.932c0.182-0.182,0.182-0.364,0.182-0.364l4.737-8.199c0,0,1.458-2.369,8.382,2.733
	c6.924,5.102,9.475,7.653,9.475,7.653l8.564-13.848c0,0,3.644-21.5,10.021-32.433c6.559-10.932,11.297-10.75,11.297-10.75
	L398.121,158.155z"/>
<path style="fill:#C6CBD6;" d="M408.871,181.842c-0.182,1.093-0.364,1.458-0.364,1.458s-2.004,3.098-4.92,19.678
	c-2.915,16.763-1.822,28.424-1.822,28.424h-5.284l2.004-39.903c-2.915,0.182-7.288,1.275-10.204,4.555
	c-9.839,10.75-17.674,34.619-24.233,35.712c-0.547,0.182-3.644,0.182-4.555,0.182H349.29c-8.017-0.182-25.509-0.364-22.958-3.644
	c1.093,1.093,6.377,1.093,6.377,1.093s27.513,0.729,31.522-0.547c4.737-1.458,16.399-28.789,22.958-35.712
	C389.375,190.952,401.583,185.122,408.871,181.842z"/>
<g>
	<path style="fill:#FF7069;" d="M350.93,204.436c1.275-0.182,3.826,0,7.653,2.915c6.924,5.102,9.475,7.653,9.475,7.653
		s-1.093,1.458-8.199-2.186c-4.92-2.551-7.835-6.559-8.928-8.564V204.436z"/>
	<path style="fill:#FF7069;" d="M340.362,216.826c1.458,3.644,5.102,7.835,9.293,8.199
		C346.557,221.745,342.548,216.461,340.362,216.826z"/>
	<path style="fill:#FF7069;" d="M105.498,182.024h49.196c5.648,0,9.475,3.462,10.386,7.653l7.47,38.081
		c0.729,4.191-4.737,7.653-10.386,7.653H98.027c-5.648,0-11.115-3.462-10.386-7.653l7.47-38.081
		C95.841,185.486,99.849,182.024,105.498,182.024z"/>
</g>
<path style="fill:#FFE45E;" d="M166.537,197.512l2.004,10.021c-1.093,0-2.004-0.182-3.098-0.547
	c-8.564-3.462-20.043-0.911-20.589,6.013s1.458,10.021,0.729,12.208h-15.488h-15.488c-0.729-2.004,1.275-5.102,0.729-12.208
	c-0.547-6.924-12.026-9.475-20.589-6.013c-1.093,0.364-2.004,0.547-3.098,0.547l2.004-10.021l36.441,0.364L166.537,197.512z"/>
<path style="fill:#FFFFFF;" d="M123.9,221.199h12.39v4.92c0,1.822-1.458,3.462-3.462,3.462h-5.648c-1.822,0-3.462-1.458-3.462-3.462
	v-4.92H123.9z"/>
<path style="fill:#C6CBD6;" d="M116.248,151.231c-2.915,5.102-6.013,28.789-6.013,28.789h4.373c0,0-0.182-18.767,4.191-27.878
	c3.098-6.195,7.106-8.928,11.115-8.746c4.191,0,8.017,2.551,11.115,8.746c4.373,8.928,4.191,27.878,4.191,27.878h4.373
	c0,0-3.098-23.505-6.013-28.789c-2.733-6.195-8.199-9.657-13.848-9.657c-5.648-0.182-11.115,3.462-13.848,9.657H116.248z"/>
<path style="fill:#FFE45E;" d="M109.506,178.927h5.831v14.759h-5.831V178.927z M144.49,178.927h5.831v14.759h-5.831V178.927z"/>
<path style="fill:#FFFFFF;" d="M108.231,190.588h0.364v0.911c-0.182,0.182-0.364,0.364-0.364,0.547v2.186
	c0,0.364,0.364,0.729,0.729,0.729h7.106c0.364,0,0.729-0.364,0.729-0.729v-2.186c0-0.364-0.364-0.729-0.729-0.729v-0.729h0.729
	c0.547,0,0.911,0.364,0.911,0.911v3.098c0,0.547-0.364,0.911-0.911,0.911h-8.381c-0.547,0-0.911-0.364-0.911-0.911v-3.098
	c0-0.547,0.364-0.911,0.911-0.911H108.231z M143.396,190.588h0.364v0.911c-0.182,0.182-0.364,0.364-0.364,0.547v2.186
	c0,0.364,0.364,0.729,0.729,0.729h7.106c0.364,0,0.729-0.364,0.729-0.729v-2.186c0-0.364-0.364-0.729-0.729-0.729v-0.729h0.729
	c0.547,0,0.911,0.364,0.911,0.911v3.098c0,0.547-0.364,0.911-0.911,0.911h-8.382c-0.547,0-0.911-0.364-0.911-0.911v-3.098
	c0-0.547,0.364-0.911,0.911-0.911H143.396z"/>
<g>
	<circle style="fill:#ECF0F1;" cx="130.095" cy="226.665" r="1.822"/>
	<polygon style="fill:#ECF0F1;" points="122.989,221.927 137.019,221.927 137.019,220.834 122.989,220.834 	"/>
	<polygon style="fill:#ECF0F1;" points="58.488,109.87 453.694,109.87 453.694,111.51 58.488,111.51 	"/>
</g>
<path style="fill:#FF7069;" d="M239.055,264.017h28.789c4.009,0,7.288,3.28,7.288,7.288l0,0c0,4.009-3.28,7.288-7.288,7.288h-28.789
	c-4.009,0-7.288-3.28-7.288-7.288l0,0C231.767,267.297,235.046,264.017,239.055,264.017z"/>
</svg>