<?xml version="1.0" encoding="iso-8859-1"?>
<!-- Uploaded to: SVG Repo, www.svgrepo.com, Generator: SVG Repo Mixer Tools -->
<svg height="800px" width="800px" version="1.1" id="Layer_1" xmlns="http://www.w3.org/2000/svg" xmlns:xlink="http://www.w3.org/1999/xlink" 
	 viewBox="0 0 512 512" xml:space="preserve">
<circle style="fill:#FF7069;" cx="256" cy="256" r="256"/>
<polygon style="fill:#FFE356;" points="36.441,55.755 268.937,55.755 279.322,338.904 26.238,338.904 "/>
<g>
	<path style="fill:#FCD34E;" d="M90.01,82.357h4.92c0.547,1.822,0.547,3.462,0,5.102h-4.009
		c0.547,43.183,16.763,70.878,37.352,83.086c8.017,4.737,16.763,7.106,25.509,7.106l0,0c8.746,0,17.492-2.369,25.509-7.106
		c20.589-12.208,36.806-39.903,37.352-83.086h-4.009c-0.547-1.64-0.547-3.462,0-5.102h5.102c1.093,0,2.186,0.364,2.915,1.275
		c0.729,0.729,1.275,1.822,1.275,2.915c-0.364,45.916-17.856,75.433-40.085,88.552c-8.928,5.284-18.403,7.835-28.06,7.835l0,0
		c-9.657,0-19.314-2.551-28.06-7.835c-22.229-13.119-39.539-42.636-40.085-88.552c0-1.093,0.364-2.186,1.275-2.915
		c0.729-0.729,1.822-1.275,2.915-1.275H90.01z"/>
	<polygon style="fill:#FCD34E;" points="277.865,301.552 278.047,305.925 27.513,305.925 27.513,301.552 	"/>
</g>
<g>
	<circle style="fill:#6B7F9E;" cx="87.277" cy="81.811" r="6.924"/>
	<circle style="fill:#6B7F9E;" cx="218.283" cy="81.811" r="6.924"/>
</g>
<path style="fill:#FFFFFF;" d="M88.735,79.26h4.92c0.547,1.822,0.547,3.462,0,5.102h-4.009
	c0.547,43.183,16.763,70.878,37.352,83.086c8.017,4.737,16.763,7.106,25.509,7.106l0,0c8.746,0,17.492-2.369,25.509-7.106
	c20.589-12.208,36.806-39.903,37.352-83.086h-4.009c-0.547-1.64-0.547-3.462,0-5.102h5.102c1.093,0,2.186,0.364,2.915,1.275
	c0.729,0.729,1.275,1.822,1.275,2.915c-0.364,45.916-17.856,75.433-40.085,88.552c-8.928,5.284-18.403,7.835-28.06,7.835l0,0
	c-9.657,0-19.314-2.551-28.06-7.835c-22.229-13.119-39.539-42.636-40.085-88.552c0-1.093,0.364-2.186,1.275-2.915
	c0.729-0.729,1.822-1.275,2.915-1.275H88.735z"/>
<g>
	<polygon style="fill:#FCD34E;" points="272.763,157.973 279.322,338.904 215.004,338.904 221.563,157.973 	"/>
	<polygon style="fill:#FCD34E;" points="277.865,301.552 278.047,305.925 216.097,305.925 216.279,301.552 	"/>
</g>
<polygon style="fill:#83CF8F;" points="227.029,157.973 375.527,157.973 382.087,338.904 220.47,338.904 "/>
<g>
	<path style="fill:#75BD80;" d="M261.284,174.918h3.098c0.364,1.093,0.364,2.186,0,3.28h-2.551
		c0.364,27.695,10.75,45.369,23.869,53.022c5.102,3.098,10.75,4.555,16.399,4.555l0,0c5.648,0,11.115-1.458,16.399-4.555
		c13.119-7.835,23.505-25.509,23.869-53.022h-2.551c-0.364-1.093-0.364-2.186,0-3.28h3.28c0.729,0,1.275,0.182,1.822,0.729
		c0.547,0.547,0.729,1.093,0.729,1.822c-0.182,29.335-11.297,48.102-25.509,56.484c-5.648,3.28-11.843,4.92-18.038,4.92l0,0
		c-6.195,0-12.208-1.64-18.038-5.102c-14.212-8.381-25.327-27.149-25.509-56.484c0-0.729,0.182-1.275,0.729-1.822
		c0.547-0.547,1.093-0.729,1.822-0.729L261.284,174.918z"/>
	<polygon style="fill:#75BD80;" points="381.358,315.035 381.358,317.95 221.199,317.95 221.199,315.035 	"/>
</g>
<g>
	<circle style="fill:#6B7F9E;" cx="259.462" cy="174.554" r="4.373"/>
	<circle style="fill:#6B7F9E;" cx="343.095" cy="174.554" r="4.373"/>
</g>
<path style="fill:#FFFFFF;" d="M260.373,172.914h3.098c0.364,1.093,0.364,2.186,0,3.28h-2.551
	c0.364,27.695,10.75,45.369,23.869,53.022c5.102,3.098,10.75,4.555,16.399,4.555l0,0c5.648,0,11.115-1.458,16.399-4.555
	c13.119-7.835,23.505-25.509,23.869-53.022h-2.551c-0.364-1.093-0.364-2.186,0-3.28h3.28c0.729,0,1.275,0.182,1.822,0.729
	c0.547,0.547,0.729,1.093,0.729,1.822c-0.182,29.335-11.297,48.102-25.509,56.484c-5.648,3.28-11.843,4.92-18.038,4.92l0,0
	c-6.195,0-12.208-1.64-18.038-4.92c-14.212-8.382-25.327-27.149-25.509-56.484c0-0.729,0.182-1.275,0.729-1.822
	c0.547-0.547,1.093-0.729,1.822-0.729H260.373z"/>
<path style="fill:#FFE356;" d="M437.113,226.847c15.488,0,28.06,12.572,28.06,28.06s-12.572,28.06-28.06,28.06
	c-15.488,0-28.06-12.572-28.06-28.06S421.626,226.847,437.113,226.847z"/>
<path style="fill:#FCD34E;" d="M437.113,234.5c11.297,0,20.407,9.11,20.407,20.407c0,11.297-9.11,20.407-20.407,20.407
	c-11.297,0-20.407-9.11-20.407-20.407C416.706,243.61,425.816,234.5,437.113,234.5z"/>
<path style="fill:#FFFFFF;" d="M444.401,246.707c0,0-1.64-2.369-4.92-2.733v-3.098h-3.462v3.098c-0.182,0-0.547,0.182-0.729,0.182
	c-6.195,1.822-4.737,6.559-4.737,7.288s1.458,2.733,4.191,4.009c2.733,1.458,6.013,2.551,6.195,3.826
	c0.182,1.275-0.911,3.28-3.462,3.098c-2.369-0.182-5.466-2.551-5.466-2.551l-2.369,2.915c0,0,1.822,2.369,6.195,2.915v3.098h3.462
	v-3.098c4.555-0.729,5.102-4.191,5.102-4.191s1.275-3.826-1.822-6.013c-3.098-2.186-7.653-2.733-8.382-5.102
	c-0.729-2.186,1.64-4.009,3.826-3.462c2.186,0.729,4.009,2.186,4.009,2.186l2.186-2.915L444.401,246.707z"/>
<path style="fill:#FFE356;" d="M320.683,256.547c10.75,0,19.496,8.746,19.496,19.496c0,10.75-8.746,19.496-19.496,19.496
	c-10.75,0-19.496-8.746-19.496-19.496C301.187,265.293,309.933,256.547,320.683,256.547z"/>
<path style="fill:#FCD34E;" d="M320.683,262.013c7.835,0,14.212,6.377,14.212,14.212s-6.377,14.212-14.212,14.212
	c-7.835,0-14.212-6.377-14.212-14.212S312.848,262.013,320.683,262.013z"/>
<path style="fill:#FFFFFF;" d="M325.785,270.394c0,0-1.093-1.64-3.462-2.004v-2.186h-2.369v2.186c-0.182,0-0.364,0-0.547,0.182
	c-4.191,1.275-3.28,4.555-3.28,5.102c0,0.547,0.911,1.822,2.915,2.915c2.004,0.911,4.191,1.64,4.373,2.733
	c0.182,0.911-0.729,2.186-2.369,2.004c-1.64-0.182-3.826-1.822-3.826-1.822l-1.64,2.004c0,0,1.275,1.64,4.373,2.004v2.186h2.369
	v-2.186c3.098-0.547,3.644-2.915,3.644-2.915s0.911-2.733-1.275-4.191c-2.186-1.458-5.284-2.004-5.831-3.462
	c-0.547-1.458,1.093-2.915,2.733-2.369c1.458,0.547,2.733,1.64,2.733,1.64l1.458-2.004V270.394z"/>
<g>
	<path style="fill:#5D718F;" d="M273.674,320.501h179.291c7.47,0,13.483,6.013,13.483,13.483v136.29
		c0,7.47-6.013,13.483-13.483,13.483H273.674c-7.47,0-13.483-6.013-13.483-13.483v-136.29
		C260.191,326.514,266.204,320.501,273.674,320.501z"/>
	<path style="fill:#5D718F;" d="M271.852,343.641h195.143c6.377,0,11.479,5.102,11.479,11.479v116.977
		c0,6.377-5.102,11.479-11.479,11.479H271.852c-6.377,0-11.479-5.102-11.479-11.479V355.12
		C260.373,348.743,265.475,343.641,271.852,343.641z"/>
</g>
<path style="fill:#FFE356;" d="M383.909,286.064c25.509,0,46.28,20.772,46.28,46.28c0,25.509-20.772,46.28-46.28,46.28
	c-25.509,0-46.28-20.772-46.28-46.28C337.628,306.836,358.4,286.064,383.909,286.064z"/>
<path style="fill:#FCD34E;" d="M383.909,298.636c18.585,0,33.708,15.123,33.708,33.708s-15.123,33.708-33.708,33.708
	s-33.708-15.123-33.708-33.708S365.324,298.636,383.909,298.636z"/>
<path style="fill:#FFFFFF;" d="M395.752,318.861c0,0-2.733-3.826-8.199-4.555v-4.92h-5.831v5.284
	c-0.364,0.182-0.729,0.182-1.275,0.364c-10.204,3.098-8.017,10.932-7.835,12.208c0.182,1.275,2.186,4.555,6.924,6.742
	c4.555,2.186,10.021,4.009,10.386,6.377c0.364,2.186-1.458,5.466-5.648,4.92c-4.009-0.364-8.928-4.191-8.928-4.191l-4.009,4.737
	c0,0,3.098,4.009,10.386,4.92v4.92h5.831v-5.102c7.47-1.093,8.564-6.742,8.564-6.742s2.004-6.377-3.098-10.021
	c-5.102-3.644-12.572-4.555-13.848-8.199s2.733-6.742,6.377-5.648c3.644,1.275,6.559,3.826,6.559,3.826l3.462-4.737L395.752,318.861
	z"/>
<path style="fill:#6B7F9E;" d="M270.03,343.641h196.783c6.377,0,11.479,5.102,11.479,11.479v111.693
	c0,6.377-5.102,11.479-11.479,11.479H271.67c-6.377,0-11.479-5.102-11.479-11.479V333.984
	C260.191,339.086,265.293,343.641,270.03,343.641z"/>
<path style="fill:#5D718F;" d="M478.474,399.396v35.895h-26.967c-5.102,0-9.11-4.191-9.11-9.11v-17.492
	c0-5.102,4.191-9.11,9.11-9.11h26.967V399.396z"/>
<path style="fill:#8597B1;" d="M451.507,397.574h28.424c5.102,0,9.11,4.191,9.11,9.11v17.492c0,5.102-4.191,9.11-9.11,9.11h-28.424
	c-5.102,0-9.11-4.191-9.11-9.11v-17.492C442.397,401.583,446.588,397.574,451.507,397.574z"/>
<circle style="fill:#E3E6E6;" cx="460.436" cy="415.795" r="9.657"/>
<g>
	<circle style="fill:#FFFFFF;" cx="460.071" cy="415.431" r="8.928"/>
	<path style="fill:#FFFFFF;" d="M429.825,201.52c0,0,35.895-71.607-57.942-105.315l1.822-14.03l-42.454,13.119l34.984,42.272
		l2.186-16.216C378.443,121.349,442.397,143.396,429.825,201.52z"/>
	<path style="fill:#FFFFFF;" d="M133.193,358.036c0,0-23.322,76.709,74.887,94.019l0.547,14.212l39.721-20.043l-41.543-35.712
		l0.547,16.399c-9.839,1.64-76.527-9.293-73.976-68.692L133.193,358.036z"/>
</g>
</svg>