<svg xmlns="http://www.w3.org/2000/svg" viewBox="0 0 1000 472.69"><title>elo-30</title><path d="M0,281.31H1000V754H0Z" transform="translate(0 -281.31)"/><path d="M206,425.75a96.51,96.51,0,0,1,125,72.19l66.08-13.47A163.87,163.87,0,0,0,184.63,361.85Z" transform="translate(0 -281.31)" fill="#ffcb05"/><path d="M128.05,639.84l44.69-50.51a96.34,96.34,0,0,1,0-144.3l-44.69-50.55a163.81,163.81,0,0,0,0,245.36" transform="translate(0 -281.31)" fill="#00a4e0"/><path d="M331,536.47a96.34,96.34,0,0,1-94.39,77,95,95,0,0,1-30.57-5l-21.39,64A164.06,164.06,0,0,0,397.06,550Z" transform="translate(0 -281.31)" fill="#ef4123"/><path d="M454.84,591.43A116.14,116.14,0,0,1,448,578.17a97.26,97.26,0,0,1-2.14-73.56c9.71-26.47,28.27-46.7,52.26-57.05,30.15-13,63.47-10.44,92.38,6.71,18.35,10.52,31.35,26.77,41.23,49.78,1.24,3,2.35,6.08,3.46,8.77ZM515.06,486.6c-21.43,9.2-32.46,29.3-30.15,52.82l90.67-39C560,482.07,539.69,476,515.06,486.6Zm71.81,84.94s0,.05,0,.05l-1.89-1.29c-5.43,8.77-13.85,15.91-24.5,20.53-20.27,8.81-39.05,6.54-52.56-5.3l-1.25,1.88a0,0,0,0,0,0,0l-23,34.43a100,100,0,0,0,18.26,10c25.41,10.57,51.41,10.05,77-1.07,18.52-8,33.06-20.27,43-35.79Zm111.24-175V587.85L728,599.91l-17,39.43-33-13.68a37.31,37.31,0,0,1-16.25-13.6c-3.66-5.61-6.37-13.35-6.37-23.7V396.5Zm77.11,143a54.11,54.11,0,0,1,18.6-40.84l-30.53-34a100,100,0,0,0-.09,149.69l30.5-34a54.06,54.06,0,0,1-18.48-40.76Zm54.23,54.28A54.34,54.34,0,0,1,812.26,591l-14.59,43.33A100.09,100.09,0,0,0,927.43,559.7l-44.82-9.16a54.19,54.19,0,0,1-53.16,43.29Zm.13-154.23a100.85,100.85,0,0,0-31.69,5.09l14.45,43.37a54.25,54.25,0,0,1,70.32,40.71l44.82-9.06a100,100,0,0,0-97.9-80.11Z" transform="translate(0 -281.31)" fill="#fff"/></svg>