<svg xmlns="http://www.w3.org/2000/svg" viewBox="0 0 1001.92 779.48"><title>mastercard-18</title><path d="M983.13,879.58v2H985a1.93,1.93,0,0,0,1-.25.9.9,0,0,0,.38-.77.85.85,0,0,0-.38-.74,1.76,1.76,0,0,0-1-.26h-1.87Zm1.89-1.42a3.48,3.48,0,0,1,2.25.65,2.15,2.15,0,0,1,.78,1.78,2,2,0,0,1-.63,1.56,3.11,3.11,0,0,1-1.79.74l2.5,2.86H986.2l-2.3-2.84h-.75v2.84h-1.61v-7.58H985Zm-.5,10.2a5.92,5.92,0,0,0,2.46-.5,6.46,6.46,0,0,0,3.36-3.36,6.46,6.46,0,0,0,0-5,6.46,6.46,0,0,0-3.36-3.36,6.3,6.3,0,0,0-2.46-.47,6.31,6.31,0,0,0-5.89,8.84,6,6,0,0,0,1.34,2,6.44,6.44,0,0,0,2,1.36,6.14,6.14,0,0,0,2.5.5m0-14.52a8.37,8.37,0,0,1,5.89,2.4,8.1,8.1,0,0,1,1.77,8.94,8.39,8.39,0,0,1-1.77,2.6,9.13,9.13,0,0,1-2.64,1.75,8.53,8.53,0,0,1-6.53,0,8.6,8.6,0,0,1-2.66-1.75,8.38,8.38,0,0,1-1.75-2.69,8.12,8.12,0,0,1,4.43-10.69,8.26,8.26,0,0,1,3.29-.65m-767-29.18c0-14.45,9.46-26.32,24.94-26.32,14.78,0,24.76,11.36,24.76,26.32s-10,26.32-24.76,26.32c-15.48,0-24.94-11.87-24.94-26.32m66.56,0V803.49H266.23v10c-5.67-7.4-14.27-12-26-12-23,0-41.12,18.07-41.12,43.17s18.07,43.17,41.12,43.17c11.69,0,20.3-4.65,26-12v10h17.86V844.62Zm604,0c0-14.45,9.47-26.32,24.94-26.32,14.81,0,24.77,11.36,24.77,26.32s-10,26.32-24.77,26.32c-15.47,0-24.94-11.87-24.94-26.32m66.58,0V770.49H936.84v43c-5.67-7.4-14.27-12-26-12-23,0-41.12,18.07-41.12,43.17s18.07,43.17,41.12,43.17c11.7,0,20.3-4.65,26-12v10h17.89ZM506,817.45c11.53,0,18.92,7.22,20.81,19.94H484.14c1.9-11.87,9.11-19.94,21.85-19.94m.36-16c-24.1,0-41,17.53-41,43.17,0,26.14,17.53,43.18,42.14,43.18,12.38,0,23.72-3.1,33.7-11.53L532.48,863a39.2,39.2,0,0,1-23.92,8.6c-11.52,0-22-5.34-24.58-20.14h61c.17-2.22.36-4.47.36-6.87-.19-25.63-16-43.17-39-43.17m215.83,43.17c0-14.45,9.47-26.32,24.94-26.32,14.79,0,24.77,11.36,24.77,26.32s-10,26.32-24.77,26.32c-15.47,0-24.94-11.87-24.94-26.32m66.56,0v-41.1H770.86v10c-5.69-7.4-14.27-12-26-12-23,0-41.12,18.07-41.12,43.17s18.07,43.17,41.12,43.17c11.7,0,20.28-4.65,26-12v10h17.87V844.59Zm-167.51,0c0,24.94,17.36,43.17,43.85,43.17,12.39,0,20.64-2.75,29.56-9.8L686,863.51c-6.71,4.82-13.76,7.4-21.54,7.4-14.27-.17-24.76-10.49-24.76-26.32s10.49-26.14,24.76-26.32c7.76,0,14.81,2.58,21.54,7.4l8.59-14.45c-8.94-7.05-17.19-9.8-29.56-9.8-26.49,0-43.85,18.22-43.85,43.17m230.46-43.17c-10.31,0-17,4.82-21.68,12v-10H812.29V885.7h17.9V839.62c0-13.61,5.84-21.16,17.53-21.16a28.78,28.78,0,0,1,11.18,2.07l5.51-16.86a38.23,38.23,0,0,0-12.74-2.24M372.49,810c-8.6-5.67-20.45-8.6-33.52-8.6-20.83,0-34.24,10-34.24,26.32,0,13.4,10,21.67,28.36,24.25l8.45,1.2c9.8,1.38,14.43,4,14.43,8.6,0,6.36-6.51,10-18.74,10-12.38,0-21.32-4-27.34-8.6l-8.4,13.94c9.8,7.22,22.18,10.67,35.59,10.67,23.74,0,37.5-11.18,37.5-26.84,0-14.45-10.83-22-28.72-24.59l-8.42-1.22c-7.74-1-13.94-2.56-13.94-8.07,0-6,5.84-9.63,15.65-9.63a53,53,0,0,1,25.63,7l7.74-14.45Zm230.67-8.58c-10.31,0-17,4.82-21.66,12v-10H563.79V885.7h17.88V839.62c0-13.61,5.84-21.16,17.53-21.16a28.78,28.78,0,0,1,11.18,2.07l5.51-16.86a38.23,38.23,0,0,0-12.74-2.24m-152.54,2.06H421.37V778.55H403.3v24.94H386.63v16.34H403.3v37.51c0,19.07,7.4,30.43,28.55,30.43,7.76,0,16.7-2.4,22.37-6.36l-5.17-15.3a33.09,33.09,0,0,1-15.83,4.65c-8.93,0-11.85-5.51-11.85-13.76V819.85h29.24ZM183.33,885.72V834.13c0-19.43-12.38-32.5-32.34-32.68-10.5-.17-21.32,3.09-28.9,14.63-5.67-9.12-14.6-14.63-27.17-14.63-8.78,0-17.36,2.58-24.07,12.21V803.49H53V885.7H71V840.12c0-14.27,7.91-21.85,20.13-21.85C103,818.27,109,826,109,839.94v45.75h18.07V840.11c0-14.27,8.25-21.85,20.12-21.85,12.2,0,18,7.73,18,21.67v45.75Z" transform="translate(-1.08 -110.75)" fill="#231f20"/><path d="M993.33,612.26v-12H990.2l-3.62,8.25L983,600.24h-3.14v12h2.23v-9l3.38,7.81h2.31l3.38-7.83v9.07h2.2Zm-19.86,0v-10h4v-2H967.24v2h4v10h2.23Z" transform="translate(-1.08 -110.75)" fill="#f79410"/><path d="M637.51,663.82H366.59V177H637.51Z" transform="translate(-1.08 -110.75)" fill="#ff5f00"/><path d="M383.77,420.39A309.1,309.1,0,0,1,502,177a308.32,308.32,0,0,0-191.34-66.21c-171,0-309.6,138.63-309.6,309.64S139.69,730,310.68,730A308.23,308.23,0,0,0,502,663.83,309.14,309.14,0,0,1,383.77,420.39" transform="translate(-1.08 -110.75)" fill="#eb001b"/><path d="M1003,420.39C1003,591.4,864.39,730,693.4,730A308.4,308.4,0,0,1,502,663.83,309.67,309.67,0,0,0,502,177,308.38,308.38,0,0,1,693.4,110.75c171,0,309.59,138.63,309.59,309.64" transform="translate(-1.08 -110.75)" fill="#f79e1b"/></svg>