<?xml version="1.0" encoding="UTF-8" standalone="no"?>
<!--Uploaded to: SVG Repo, www.svgrepo.com, Generator: SVG Repo Mixer Tools -->

<svg
   version="1.1"
   id="_x32_"
   width="800px"
   height="800px"
   viewBox="0 0 512 512"
   xml:space="preserve"
   sodipodi:docname="star-filled.svg"
   inkscape:version="1.2.1 (9c6d41e410, 2022-07-14)"
   xmlns:inkscape="http://www.inkscape.org/namespaces/inkscape"
   xmlns:sodipodi="http://sodipodi.sourceforge.net/DTD/sodipodi-0.dtd"
   xmlns="http://www.w3.org/2000/svg"
   xmlns:svg="http://www.w3.org/2000/svg"><defs
   id="defs152" /><sodipodi:namedview
   id="namedview150"
   pagecolor="#505050"
   bordercolor="#eeeeee"
   borderopacity="1"
   inkscape:showpageshadow="0"
   inkscape:pageopacity="0"
   inkscape:pagecheckerboard="0"
   inkscape:deskcolor="#505050"
   showgrid="false"
   inkscape:zoom="0.92125"
   inkscape:cx="365.80733"
   inkscape:cy="400"
   inkscape:window-width="1600"
   inkscape:window-height="946"
   inkscape:window-x="-8"
   inkscape:window-y="-8"
   inkscape:window-maximized="1"
   inkscape:current-layer="g147" />
<style
   type="text/css"
   id="style143">
<![CDATA[
	.st0{fill:gold;}
]]>
</style>
<g
   id="g147">
	<path
   style="fill:#ffd700;stroke-width:0.653101;fill-opacity:1"
   d="M 47.934871,200.07598 C 141.72049,170.89823 169.50882,155.61466 169.50882,155.61466 l 25.7042,-45.15604 34.04071,-50.713708 33.346,-1.389417 25.70421,36.819539 53.49253,45.850746 29.17775,18.06242 67.3867,17.3677 c 0,0 27.78833,16.673 27.78833,19.45183 0,2.77884 -9.0312,33.346 -9.0312,33.346 l -22.92538,38.90367 c 0,0 -27.09362,34.0407 -27.09362,36.81953 0,2.77884 -3.47354,31.26187 -3.47354,34.73542 0,3.47354 0.69471,56.96608 0.69471,56.96608 l -1.38942,22.92537 -6.25237,55.57666 -50.71371,-2.77883 -34.73541,-23.62008 -37.51425,-14.58888 -38.20895,-0.69471 -51.40841,13.89417 -31.95659,0.69471 H 137.55224 125.04749 L 120.87924,430.02442 105.59566,384.17368 102.81683,327.2076 93.090912,296.64044 65.302579,266.07327 45.850746,225.78019"
   id="path866" /><path
   class="st0"
   d="M370.214,502.906c-11.484,0-22.938-2.844-33.125-8.188l-77.797-40.891c-2.016-1.078-4.547-1.078-6.578,0   l-77.797,40.891c-10.172,5.344-21.625,8.188-33.109,8.188c-15.141,0-29.609-4.719-41.844-13.594   c-22.047-16.047-32.906-42.703-28.328-69.578l14.891-86.672c0.391-2.281-0.375-4.594-2.047-6.234l-62.938-61.344   c-19.531-19.047-26.438-47-18.016-72.953c8.453-25.969,30.484-44.531,57.469-48.438l86.984-12.641   c2.297-0.328,4.281-1.766,5.313-3.859l38.906-78.828c12.047-24.453,36.5-39.672,63.813-39.672c27.297,0,51.75,15.219,63.813,39.688   l38.906,78.813c1.031,2.094,3.016,3.531,5.313,3.859l86.969,12.641c27,3.906,49.016,22.469,57.453,48.406   c8.438,25.984,1.531,53.938-18,72.984l-62.953,61.359c-1.656,1.625-2.406,3.938-2.016,6.25l14.859,86.609   c4.594,26.922-6.266,53.578-28.328,69.609C399.808,498.188,385.354,502.906,370.214,502.906z M256.011,388.875   c11.484,0,22.938,2.844,33.109,8.188l77.813,40.906c1.953,1.031,4.203,1.813,7.391-0.531c2.203-1.594,3.281-4.25,2.813-6.906   l-14.844-86.625c-3.953-23.094,3.703-46.625,20.453-62.969l62.953-61.375c1.938-1.875,2.609-4.656,1.781-7.25   c-0.813-2.5-3.047-4.375-5.672-4.75l-87-12.656c-23.203-3.375-43.234-17.938-53.594-38.938l-38.906-78.813   c-2.391-4.859-10.219-4.844-12.609-0.031l-38.906,78.859c-10.359,20.984-30.391,35.547-53.563,38.922l-87.016,12.641   c-2.641,0.391-4.875,2.266-5.703,4.797c-0.828,2.563-0.141,5.344,1.797,7.219l62.953,61.359   c16.766,16.359,24.406,39.891,20.469,62.969l-14.875,86.672c-0.453,2.625,0.625,5.281,2.813,6.875   c3.219,2.328,5.453,1.563,7.422,0.531l77.797-40.906C233.058,391.719,244.511,388.875,256.011,388.875z"
   id="path145" />
</g>
</svg>
