<?xml version="1.0" encoding="UTF-8" standalone="no"?>
<!-- Generator: Adobe Illustrator 19.0.0, SVG Export Plug-In . SVG Version: 6.00 Build 0)  -->

<svg
   version="1.1"
   id="Layer_1"
   x="0px"
   y="0px"
   viewBox="0 0 512 512"
   style="enable-background:new 0 0 512 512;"
   xml:space="preserve"
   sodipodi:docname="pacifier.svg"
   inkscape:version="1.2.1 (9c6d41e410, 2022-07-14)"
   xmlns:inkscape="http://www.inkscape.org/namespaces/inkscape"
   xmlns:sodipodi="http://sodipodi.sourceforge.net/DTD/sodipodi-0.dtd"
   xmlns="http://www.w3.org/2000/svg"
   xmlns:svg="http://www.w3.org/2000/svg"><defs
   id="defs895" /><sodipodi:namedview
   id="namedview893"
   pagecolor="#505050"
   bordercolor="#eeeeee"
   borderopacity="1"
   inkscape:showpageshadow="0"
   inkscape:pageopacity="0"
   inkscape:pagecheckerboard="0"
   inkscape:deskcolor="#505050"
   showgrid="false"
   inkscape:zoom="1.5917969"
   inkscape:cx="214.85153"
   inkscape:cy="256.94233"
   inkscape:window-width="1600"
   inkscape:window-height="999"
   inkscape:window-x="-8"
   inkscape:window-y="-8"
   inkscape:window-maximized="1"
   inkscape:current-layer="Layer_1" />
<g
   id="g848"
   transform="matrix(-1,0,0,1,511.998,0)">
	<path
   style="fill:#e6f0ff;fill-opacity:0.47450981"
   d="m 286.728,301.248 c 24.364,-24.366 47.632,-38.875 69.658,-49.34 42.861,-20.355 81.03,-25.379 113.478,-57.831 41.959,-41.952 41.959,-109.982 0,-151.941 -41.958,-41.952 -109.984,-41.952 -151.941,0 -32.448,32.448 -37.472,70.621 -57.831,113.478 -10.457,22.03 -24.969,45.294 -49.336,69.661 18.139,31.416 47.177,59.345 75.972,75.973 z"
   id="path842" />
	<path
   style="fill:#47c8ef;fill-opacity:1"
   d="M 286.728,301.248 C 257.933,284.62 228.895,256.691 210.757,225.275 235.124,200.909 249.636,177.646 260.093,155.614 176.103,87.207 94.328,57.077 63.67,87.736 38.758,112.649 53.977,171.31 97.259,237.48 c 20.692,31.65 47.811,65.018 80.028,97.237 32.212,32.212 65.581,59.33 97.234,80.026 66.168,43.286 124.83,58.502 149.744,33.589 30.656,-30.656 0.529,-112.431 -67.879,-196.424 -22.026,10.465 -45.294,24.974 -69.658,49.34 z"
   id="path844" />
	<path
   style="fill:#ffa233"
   d="m 80.862,298.199 c 8.606,-8.606 18.709,-15.451 29.906,-20.159 1.981,-0.829 4.202,-1.493 6.289,-2.024 -5.042,-9.874 -9.469,-19.795 -14.068,-29.96 -0.006,-0.009 -0.011,-0.019 -0.013,-0.027 -1.969,-2.868 -3.88,-5.729 -5.74,-8.571 l -1.08,0.461 c -16.543,6.671 -32.052,16.701 -45.463,30.113 -53.371,53.372 -53.371,139.904 0,193.272 53.37,53.374 139.901,53.374 193.272,0 13.591,-13.588 23.713,-29.335 30.383,-46.132 -13.779,-7.461 -26.296,-14.661 -37.695,-21.632 l -2.081,6.19 c -4.73,11.797 -11.786,22.418 -20.775,31.41 -36.719,36.715 -96.218,36.715 -132.937,0 -36.714,-36.72 -36.714,-96.222 0.002,-132.941 z"
   id="path846" />
</g>
<g
   id="g860"
   transform="matrix(-1,0,0,1,512,0)">
	<path
   style="fill:#000003"
   d="M 477.406,201.621 C 499.715,179.316 512,149.657 512,118.108 512,86.561 499.715,56.902 477.406,34.595 455.101,12.288 425.442,10e-4 393.895,10e-4 c -31.547,0 -61.206,12.287 -83.512,34.594 -23.876,23.874 -33.789,50.289 -44.285,78.252 -3.202,8.534 -6.438,17.144 -10.117,25.868 -59.55,-46.29 -117.963,-73.633 -158.046,-73.633 -17.715,0 -31.782,5.084 -41.807,15.111 -21.199,21.199 -19.952,60.959 3.508,111.961 6.068,13.186 13.444,26.799 21.972,40.625 -14.197,7.063 -27.097,16.351 -38.457,27.71 C 15.325,288.316 0,325.316 0,364.668 c 0,39.355 15.325,76.352 43.151,104.179 27.827,27.827 64.826,43.152 104.179,43.152 39.355,0 76.352,-15.326 104.179,-43.152 11.353,-11.353 20.626,-24.235 27.683,-38.404 41.818,25.827 80.796,40.544 110.792,40.544 0.004,0 0.007,0 0.011,0 17.719,-0.002 31.787,-5.088 41.813,-15.113 17.991,-17.99 19.973,-48.871 5.729,-89.301 -11.682,-33.158 -34.317,-72.031 -64.251,-110.55 8.726,-3.679 17.335,-6.915 25.87,-10.117 27.963,-10.498 54.376,-20.411 78.25,-44.285 z M 236.424,453.76 c -23.798,23.8 -55.438,36.905 -89.094,36.905 -33.654,0 -65.296,-13.105 -89.093,-36.905 -23.797,-23.797 -36.902,-55.436 -36.902,-89.092 0,-33.654 13.106,-65.296 36.903,-89.094 10.297,-10.296 22.071,-18.597 35.069,-24.756 4.004,5.892 8.201,11.804 12.58,17.724 -12.14,5.22 -23.099,12.646 -32.567,22.115 -40.808,40.811 -40.808,107.215 0.001,148.026 20.404,20.401 47.207,30.602 74.01,30.602 26.803,0 53.608,-10.201 74.014,-30.604 9.469,-9.474 16.876,-20.439 22.082,-32.548 5.94,4.398 11.857,8.601 17.737,12.601 -6.154,12.978 -14.447,24.735 -24.74,35.026 z M 114.893,287.879 c 1.404,-0.59 3.078,-1.084 4.717,-1.498 15.097,18.882 31.929,37.675 50.132,55.878 18.382,18.382 37.219,35.233 56.003,50.259 -0.534,1.596 -0.988,2.944 -1.167,3.469 -4.177,10.336 -10.342,19.624 -18.323,27.61 -16.247,16.244 -37.583,24.366 -58.925,24.364 -21.338,-0.002 -42.682,-8.123 -58.925,-24.364 -32.49,-32.491 -32.49,-85.362 0,-117.852 7.702,-7.704 16.617,-13.717 26.488,-17.866 z m 302.522,85.784 c 11.161,31.679 10.914,55.518 -0.692,67.125 -5.881,5.882 -14.872,8.863 -26.73,8.866 -0.003,0 -0.006,0 -0.009,0 -28.202,0 -67.133,-16.014 -108.968,-43.357 -0.456,-0.352 -0.938,-0.671 -1.454,-0.95 -31.092,-20.482 -63.734,-47.174 -94.733,-78.173 -19.074,-19.074 -36.566,-38.773 -52.028,-58.476 -0.277,-0.419 -0.59,-0.806 -0.921,-1.179 -9.192,-11.778 -17.655,-23.551 -25.291,-35.191 -0.258,-0.47 -0.551,-0.912 -0.868,-1.331 C 95.097,214.681 86.103,198.641 79.02,183.24 59.843,141.554 57,109.496 71.216,95.281 c 5.88,-5.882 14.869,-8.863 26.722,-8.863 35.799,0 92.303,27.493 148.795,72.15 -9.934,19.249 -21.862,36.164 -36.85,52.261 -0.524,0.562 -1.068,1.128 -1.602,1.69 -0.55,0.581 -1.091,1.163 -1.65,1.74 -1.115,1.156 -2.252,2.313 -3.412,3.475 -1.921,1.919 -2.982,4.431 -3.111,7.004 -0.102,2.002 0.358,4.042 1.414,5.871 6.604,11.443 14.722,22.639 23.88,33.143 16.221,18.605 35.727,35.031 55.995,46.733 0.393,0.227 0.799,0.417 1.21,0.59 0.044,0.018 0.085,0.037 0.129,0.054 0.414,0.169 0.833,0.31 1.259,0.425 0.01,0.002 0.018,0.002 0.026,0.004 0.433,0.114 0.87,0.201 1.311,0.258 0.013,0.002 0.027,0.004 0.041,0.006 0.437,0.057 0.876,0.083 1.315,0.083 0.014,0.002 0.027,0.004 0.039,0.004 0.026,0 0.052,-0.004 0.077,-0.004 0.293,-0.002 0.586,-0.017 0.877,-0.042 0.047,-0.004 0.093,-0.009 0.14,-0.015 0.31,-0.031 0.619,-0.075 0.925,-0.133 0.017,-0.004 0.033,-0.006 0.049,-0.009 0.668,-0.133 1.324,-0.327 1.96,-0.586 0.015,-0.006 0.03,-0.015 0.046,-0.021 0.286,-0.118 0.566,-0.25 0.842,-0.394 0.055,-0.027 0.109,-0.059 0.162,-0.087 0.242,-0.129 0.477,-0.269 0.707,-0.419 0.06,-0.037 0.117,-0.075 0.176,-0.114 0.238,-0.16 0.469,-0.332 0.696,-0.512 0.039,-0.031 0.079,-0.059 0.116,-0.09 0.267,-0.219 0.525,-0.448 0.773,-0.696 18.191,-18.191 37.158,-32.16 59.166,-43.515 30.048,37.996 52.65,76.245 63.976,108.391 z M 312.745,265.125 c -0.151,0.109 -0.302,0.219 -0.453,0.327 -1.068,0.767 -2.137,1.546 -3.209,2.341 -0.397,0.293 -0.794,0.592 -1.19,0.89 -0.809,0.608 -1.617,1.222 -2.429,1.848 -0.531,0.411 -1.062,0.821 -1.59,1.235 -0.668,0.523 -1.337,1.054 -2.007,1.589 -0.615,0.492 -1.231,0.984 -1.843,1.484 -0.58,0.473 -1.162,0.958 -1.744,1.44 -0.674,0.558 -1.348,1.115 -2.018,1.683 -0.539,0.454 -1.08,0.925 -1.619,1.39 -0.693,0.597 -1.389,1.189 -2.079,1.796 -0.616,0.542 -1.234,1.102 -1.852,1.654 -0.603,0.542 -1.209,1.073 -1.81,1.621 -1.224,1.115 -2.451,2.252 -3.681,3.412 -12.375,-7.931 -24.285,-17.734 -35.018,-28.656 -8.201,-8.342 -15.704,-17.339 -22.193,-26.672 -1.318,-1.896 -2.61,-3.802 -3.842,-5.723 2.105,-2.227 4.145,-4.471 6.142,-6.732 0.153,-0.171 0.31,-0.343 0.461,-0.514 0.811,-0.921 1.603,-1.845 2.396,-2.773 0.26,-0.304 0.527,-0.608 0.783,-0.912 0.702,-0.827 1.391,-1.661 2.079,-2.494 0.343,-0.417 0.692,-0.833 1.033,-1.25 0.602,-0.735 1.193,-1.477 1.783,-2.217 0.43,-0.54 0.861,-1.077 1.281,-1.617 0.496,-0.632 0.988,-1.267 1.476,-1.902 0.537,-0.698 1.067,-1.394 1.59,-2.09 0.371,-0.494 0.74,-0.988 1.107,-1.482 0.706,-0.953 1.398,-1.904 2.08,-2.852 0.188,-0.26 0.378,-0.521 0.563,-0.781 20.123,-28.202 30.068,-54.674 39.132,-78.826 10.081,-26.858 18.786,-50.053 39.398,-70.662 18.276,-18.279 42.576,-28.347 68.425,-28.347 25.848,0 50.149,10.068 68.425,28.345 18.279,18.278 28.344,42.58 28.344,68.426 0,25.849 -10.066,50.151 -28.345,68.426 -20.608,20.609 -43.804,29.316 -70.66,39.396 -24.18,9.078 -50.682,19.033 -78.916,39.199 z"
   id="path850" />
	<path
   style="fill:#ffffff;fill-opacity:1"
   d="m 431.476,52.679 c -29.464,-16.957 -66.855,-11.986 -90.934,12.092 -1.123,1.125 -2.227,2.286 -3.284,3.45 -3.961,4.361 -3.634,11.107 0.726,15.068 2.044,1.856 4.609,2.771 7.168,2.771 2.904,0 5.796,-1.179 7.9,-3.496 0.832,-0.918 1.706,-1.834 2.584,-2.715 17.266,-17.264 44.078,-20.832 65.201,-8.68 5.106,2.942 11.627,1.181 14.566,-3.926 2.939,-5.107 1.179,-11.626 -3.927,-14.564 z"
   id="path852" />
	<path
   style="fill:#ffffff;fill-opacity:1"
   d="m 333.885,90.934 c -5.176,-2.817 -11.653,-0.898 -14.465,4.278 -0.092,0.166 -0.191,0.363 -0.25,0.485 -2.634,5.269 -0.498,11.677 4.771,14.311 1.532,0.767 3.159,1.13 4.763,1.13 3.913,0 7.679,-2.16 9.548,-5.9 0.011,-0.019 0.029,-0.057 0.048,-0.096 2.613,-5.132 0.677,-11.442 -4.415,-14.208 z"
   id="path854" />
	<path
   style="fill:#000003"
   d="m 316.745,378.334 c -5.056,-3.023 -11.607,-1.375 -14.63,3.679 -3.023,5.056 -1.376,11.607 3.679,14.63 6.847,4.096 13.69,7.904 20.335,11.323 5.303,2.732 19.11,9.205 33.416,14.163 1.156,0.4 2.335,0.592 3.494,0.592 4.419,0 8.551,-2.767 10.078,-7.178 1.93,-5.567 -1.02,-11.644 -6.587,-13.572 -13.172,-4.567 -25.8,-10.482 -30.64,-12.976 -6.245,-3.211 -12.687,-6.798 -19.145,-10.661 z"
   id="path856" />
	<path
   style="fill:#000003"
   d="m 392.684,428.447 c 0.485,0 0.976,-0.033 1.47,-0.1 0.478,-0.067 0.959,-0.148 1.416,-0.238 5.782,-1.13 9.553,-6.732 8.424,-12.513 -1.129,-5.782 -6.731,-9.559 -12.513,-8.425 -0.077,0.015 -0.158,0.029 -0.239,0.042 -5.837,0.804 -9.915,6.186 -9.111,12.024 0.736,5.341 5.308,9.21 10.553,9.21 z"
   id="path858" />
</g>















</svg>
