<?xml version="1.0" encoding="UTF-8" standalone="no"?>
<!-- Created with Inkscape (http://www.inkscape.org/) -->

<svg
   width="72"
   height="72"
   viewBox="0 0 100% 100%"
   version="1.1"
   id="svg8006"
   inkscape:version="1.2.1 (9c6d41e410, 2022-07-14)"
   sodipodi:docname="babyPikituchos.svg"
   xmlns:inkscape="http://www.inkscape.org/namespaces/inkscape"
   xmlns:sodipodi="http://sodipodi.sourceforge.net/DTD/sodipodi-0.dtd"
   xmlns:xlink="http://www.w3.org/1999/xlink"
   xmlns="http://www.w3.org/2000/svg"
   xmlns:svg="http://www.w3.org/2000/svg">
  <sodipodi:namedview
     id="namedview8008"
     pagecolor="#505050"
     bordercolor="#eeeeee"
     borderopacity="1"
     inkscape:showpageshadow="0"
     inkscape:pageopacity="0"
     inkscape:pagecheckerboard="0"
     inkscape:deskcolor="#505050"
     inkscape:document-units="mm"
     showgrid="false"
     inkscape:zoom="7.6800844"
     inkscape:cx="39.192278"
     inkscape:cy="36.653243"
     inkscape:window-width="1600"
     inkscape:window-height="946"
     inkscape:window-x="-8"
     inkscape:window-y="-8"
     inkscape:window-maximized="1"
     inkscape:current-layer="layer1" />
  <defs
     id="defs8003">
    <linearGradient
       id="linearGradient3652"
       inkscape:swatch="solid">
      <stop
         style="stop-color:#000000;stop-opacity:1;"
         offset="0"
         id="stop3650" />
    </linearGradient>
    <linearGradient
       id="linearGradient3646"
       inkscape:swatch="solid">
      <stop
         style="stop-color:#fbc2ae;stop-opacity:1;"
         offset="0"
         id="stop3644" />
    </linearGradient>
    <linearGradient
       id="linearGradient989"
       inkscape:swatch="solid">
      <stop
         style="stop-color:#000000;stop-opacity:1;"
         offset="0"
         id="stop987" />
    </linearGradient>
    <linearGradient
       inkscape:collect="always"
       xlink:href="#linearGradient989"
       id="linearGradient991"
       x1="37.141519"
       y1="32.388966"
       x2="47.948691"
       y2="32.388966"
       gradientUnits="userSpaceOnUse" />
    <linearGradient
       inkscape:collect="always"
       xlink:href="#linearGradient989"
       id="linearGradient3430"
       gradientUnits="userSpaceOnUse"
       x1="37.141519"
       y1="32.388966"
       x2="47.948691"
       y2="32.388966"
       gradientTransform="matrix(3.7795276,0,0,3.7795276,128.8218,85.221768)" />
    <linearGradient
       inkscape:collect="always"
       xlink:href="#linearGradient3646"
       id="linearGradient3648"
       x1="1.1940061"
       y1="52.083611"
       x2="10.189717"
       y2="52.083611"
       gradientUnits="userSpaceOnUse" />
    <linearGradient
       inkscape:collect="always"
       xlink:href="#linearGradient3652"
       id="linearGradient3654"
       x1="1.1940061"
       y1="52.083612"
       x2="10.189717"
       y2="52.083612"
       gradientUnits="userSpaceOnUse" />
    <linearGradient
       inkscape:collect="always"
       xlink:href="#linearGradient3646"
       id="linearGradient3660"
       gradientUnits="userSpaceOnUse"
       x1="1.1940061"
       y1="52.083611"
       x2="10.189717"
       y2="52.083611"
       gradientTransform="matrix(-0.69969079,0.7144458,0.7144458,0.69969079,23.901435,-14.078713)" />
    <linearGradient
       inkscape:collect="always"
       xlink:href="#linearGradient3652"
       id="linearGradient3662"
       gradientUnits="userSpaceOnUse"
       x1="1.1940061"
       y1="52.083612"
       x2="10.189717"
       y2="52.083612"
       gradientTransform="matrix(-0.69969079,0.7144458,0.7144458,0.69969079,23.901435,-14.078713)" />
  </defs>
  <g
     inkscape:label="Camada 1"
     inkscape:groupmode="layer"
     id="layer1"
     transform="matrix(1.041726,0,0,1.049882,2.9462459,0)">
    <g
       id="g1763"
       inkscape:label="baby0"
       style="display:inline"
       transform="matrix(0.26458333,0,0,0.26458333,-54.568309,-11.483619)">
      <path
         style="display:inline;fill:url(#linearGradient3648);fill-opacity:1;stroke:url(#linearGradient3654);stroke-width:1.02047;stroke-dasharray:none"
         d="m 4.2317243,44.400554 c 0,0 -3.71089669,0.260414 -2.9296553,4.427035 0.7812414,4.16662 4.1666209,7.161379 4.1666209,7.161379 0,0 0.7175249,0.68186 0.9114483,1.757793 0.2307334,1.280163 1.1067587,2.083311 1.8880001,2.018207 0.7812414,-0.0651 1.5624829,-0.176242 1.8879997,-0.651034 0.3473,-0.506564 -1.9610015,-8.476768 -1.9610015,-8.476768 L 7.35669,47.851037 5.1431727,44.400554 Z"
         id="path3588"
         inkscape:label="orelhaE"
         sodipodi:nodetypes="cscssscccc"
         transform="matrix(3.7795276,0,0,3.7795276,210.0217,48.558785)" />
      <path
         style="display:inline;fill:url(#linearGradient3660);fill-opacity:1;stroke:url(#linearGradient3662);stroke-width:1.02047;stroke-dasharray:none"
         d="m 52.662326,20.011283 c 0,0 2.782531,-2.469025 5.212729,1.004476 2.430197,3.4735 2.201071,7.987576 2.201071,7.987576 0,0 -0.01489,0.989724 0.618116,1.881092 0.753164,1.060565 0.714024,2.248393 0.120883,2.760994 -0.593138,0.512605 -1.21917,0.992995 -1.786145,0.893351 -0.604915,-0.106311 -4.684096,-7.332146 -4.684096,-7.332146 l -1.403885,-2.548453 -0.916406,-3.995709 z"
         id="path3657"
         inkscape:label="orelhaD"
         sodipodi:nodetypes="cscssscccc"
         transform="matrix(3.7795276,0,0,3.7795276,210.0217,48.558785)" />
      <path
         class="st1"
         d="m 440.875,196.95 c 1.8,10.3 -3.175,22.65 -7.775,31.45 -19.8,38.1 -51.1,60.3 -93.4,67.2 -2.1,0.3 -4.3,0.8 -6.4,0.9 -3.5,0.3 -7,0.3 -10.5,0.5 -18.7,0.5 -36.7,-3 -54.3,-9.2 -5,-1.8 -17.825,-12.225 -20.825,-16.425 -12.65,-23.475 -16.55,-41.9 -25.375,-65.075 -4.1,-13 -7.6,-26.2 -8.6,-39.9 -0.6,-7.5 1.1,-14.6 3.9,-21.4 8.2,-19.5 22.375,-34.65 39.375,-46.65 8.60638,-5.963681 19.75857,-13.812743 31.075,-19.25 14.97198,-5.526546 21.6279,-4.671217 33.825,-4.275 24.8,0.2 49.125,3.475 68.225,22.075 4,3.9 7.1,8.4 9.6,13.3 10.5,21 22.775,41.25 32.975,62.35 4.1,8.4 6.6,14.9 8.2,24.4 z M 397.5,180.3 c 8,-5.2 10.5,-11.7 8,-21 -5.6,-20.8 -33.4,-31 -51,-18.6 -5.1,3.6 -8.8,8.2 -9.9,14.4 -3.2,18.4 13,33.6 27.6,31.9 8.7,0 19.3,-2.8 25.3,-6.7 z m -17.8,66.8 c 4.9,-6.5 7.9,-13.8 7.6,-22.2 -0.1,-2.7 -1,-4.2 -4,-2.8 l -68.7,29.4 c -3.5,1.5 -2.5,3 -0.2,4.9 7.8,6.3 16.9,8.9 26.8,9.5 15.6,-0.6 28.9,-6 38.5,-18.8 z m 2.6,-135.6 c 0.1,-1.8 -1.2,-2.2 -2.1,-2.6 -9.8,-4.3 -19.9,-6.5 -30.6,-5.2 -6.3,0.8 -12.4,2.4 -17.6,6.4 -1.1,0.9 -2,1.9 -1.2,3.4 0.8,1.4 2,1.6 3.4,0.8 0.7,-0.4 1.5,-0.7 2.3,-1 13,-6.5 26.5,-6.8 40.3,-2.8 1.7,0.4 3.4,1.8 5.5,1 z m -24.5,102.9 c 0.1,-0.5 0,-0.9 -0.3,-1.2 -0.1,-0.1 -0.2,-0.2 -0.3,-0.2 -0.1,-0.1 -0.3,-0.2 -0.5,-0.2 -0.1,0 -0.1,0 -0.2,-0.1 -0.3,-0.1 -0.7,-0.1 -1,-0.2 h -0.4 -0.1 c -0.2,0 -0.4,0.1 -0.7,0.2 -0.7,0.2 -1.4,0.7 -2,1.2 l -0.2,0.2 c -0.7,0.7 -1.2,1.5 -1.3,2.2 0,1.4 0.9,1.8 1.9,1.5 2.1,-0.7 4.5,-1.1 5.1,-3.4 z m 1.7,-10.2 c -7.7,-6 -18.6,-6.4 -26.1,-1.3 -7.6,5.2 -10.8,12.9 -12.1,21.6 3.4,-7.7 6.1,-15.9 13.9,-20.7 8,-5 16.2,-2.5 24.3,0.4 z m -25.7,21.5 c 2,-0.9 4.7,-0.6 5.6,-3.2 -0.8,-2 -2.2,-2.3 -3.7,-1.9 -2.1,0.6 -4.4,1.4 -4.6,4 0,1.6 1.7,1.6 2.7,1.1 z m -23.6,-17.5 c 1.1,-1.9 1.5,-4.1 0.9,-6.3 -4.1,-14.9 -15.8,-25.2 -30.4,-25 -2.5,0.4 -5,0.5 -7.4,1.1 -21.7,5.7 -31.2,31.6 -19.3,51.6 3.1,5.2 7.9,7.7 13.4,7 18.7,-2.5 33.2,-11.8 42.8,-28.4 z m -42.7,-64.8 c 2.1,-1.2 5.1,-2.7 3.3,-5.7 -1.7,-2.8 -4.3,-0.6 -6.2,0.3 -11.5,5.2 -19,14.3 -24.9,25.1 -3.1,5.7 -5,11.7 -5.6,19 2.8,-1.3 2.8,-3.1 3.3,-4.6 1.6,-4.8 4,-9.1 6.8,-13.3 6.1,-8.9 14.1,-15.5 23.3,-20.8 z"
         id="path1723"
         style="display:inline;fill:#fbc2ae"
         inkscape:label="cabeça"
         sodipodi:nodetypes="cccccccccccccccccsccccsccccccccccccsccccscscccsccscccccccccccccccccccccccccscc" />
      <path
         d="m 341.1,268.7 c -11.5,-0.7 -20.8,-4 -28.4,-10.1 -1.1,-0.9 -3.5,-2.8 -3.1,-5.5 0.4,-2.6 3.1,-3.8 4,-4.2 l 16.9,-7.2 c 17.2,-7.4 34.5,-14.8 51.7,-22.2 1.1,-0.5 2.1,-0.7 3.1,-0.7 1.4,0 4.7,0.6 4.9,6.1 0.3,8.4 -2.4,16.2 -8.2,24 -9.4,12.5 -23.1,19.2 -40.6,19.9 h -0.1 z"
         id="path1725"
         style="display:inline"
         inkscape:label="bocaContorno" />
      <path
         id="path1727"
         style="display:inline"
         inkscape:label="contorno1"
         d="m 305.9043,54.828125 c 0.29105,0.195617 0.56518,0.416318 0.84179,0.632813 -0.15768,-0.140366 -0.31946,-0.275147 -0.48632,-0.404297 -0.11696,-0.07875 -0.2363,-0.15322 -0.35547,-0.228516 z M 287.15039,77.51172 c -19.95097,9.804758 -23.4046,12.898444 -32.25,19.687495 -14.69946,10.799735 -33.3728,27.213955 -40.31641,47.060555 -2.82094,6.67606 -5.24954,15.23745 -4.38476,22.31445 0.78181,26.21031 9.62591,26.01513 20.75,68.60156 2.72477,17.26219 11.05027,34.9116 20.75,44.17383 3.69518,3.06847 6.77537,7.0409 16.47656,11.52539 18.48696,6.71223 33.42515,9.42539 54.34961,8.71289 6.08696,-0.0831 11.1754,-0.30864 17.19922,-0.88867 47.84091,-5.51972 77.96807,-34.07022 95.92578,-68.02344 5.56622,-10.71933 9.28483,-28.70176 6.77539,-42.35156 -4.02496,-14.2495 -4.55027,-10.89902 -19.75,-38.02344 -10.554,-17.10503 -11.04484,-18.91244 -20.42578,-42.02539 -3.36736,-6.82999 -5.75463,-9.281456 -10.02539,-13.599613 -15.09973,-13.899622 -35.52554,-19.476226 -55.125,-21.576172 -27.79686,-3.10183 -41.99507,1.04171 -49.94922,4.412115 z M 322,75.5 c 24.79946,0.2 49.00015,2.699705 68.09961,21.199219 4,3.799991 7.09961,8.400781 9.59961,13.300781 11.38361,28.60082 11.52829,26.8054 20.74414,42.24805 6.07496,10.34973 16.59336,27.61394 18.19336,37.01367 2.76066,12.95138 -0.58027,27.66979 -5.53711,39.03906 -19.79946,38.09892 -50.35147,60.54988 -92.65039,67.34961 -5.63373,1.12878 -12.40371,0.86118 -17.64844,1.15039 -18.69946,0.5 -35.81744,-2.47111 -54.30078,-9.20117 -9.9188,-5.43224 -12.74333,-9.00366 -16.40625,-12.76172 -9.837,-11.3495 -15.2182,-22.43905 -18.04297,-40.23828 -6.92816,-35.09674 -18.99801,-42.14959 -20.35156,-68.40039 -0.6,-7.49973 1.00039,-14.59871 3.90039,-21.39844 8.19973,-19.49946 22.50054,-33.90066 39.5,-45.900389 C 273.65843,88.065855 275.04992,86.263524 288.30078,80.27539 303.28722,74.814945 312.58519,75.689101 322,75.5 Z"
         sodipodi:nodetypes="cccccccccccccccccccccccccccccccccccc" />
      <path
         class="st9"
         d="m 314,67.6 c 5.6,20.6 -20.15355,40.21872 -38.85355,37.21872 -9.2,-1.5 -15.46517,-8.61872 -15.86517,-17.41872 -0.4,-9.3 4.6,-17.23033 12.5,-19.33033 3.8,-1 7.91872,0.01161 11.41872,0.711612 3.3,0.7 6.86517,1 10.16517,0.8 3.3,-0.2 4.66256,-1.511612 5.66256,-4.711612 1.1,-3.3 0.35355,-5.227728 -2.14645,-7.627728 -1.6,-1.5 -3.98839,-2.33033 -5.38839,-4.83033 12.1,-2 19.14194,2.585786 22.50711,15.188388 z"
         id="path1753"
         style="display:inline;fill:#2c1a0b;fill-opacity:1"
         inkscape:label="cabelho"
         sodipodi:nodetypes="cccccscccc" />
      <path
         id="path2579"
         style="display:inline"
         inkscape:label="cabeloContorno"
         d="M 296.86914,48.566406 C 294.88789,48.511716 292.9,48.750807 291,49.300781 c -1.4,0.4 -2.90078,0.999271 -3.30078,2.699219 -0.5,1.899948 0.90117,2.700026 2.20117,3.5 1.6,0.899974 3.29883,1.699245 4.79883,2.699219 2,1.399948 3.60117,3.300468 2.70117,5.90039 -0.7,2.299948 -2.79961,3.001172 -5.09961,3.201172 -3.99974,0.2 -7.90078,-0.400416 -11.80078,-1.40039 -8.69974,-2.199948 -17.20039,1.400598 -20.90039,9.40039 -1.19781,2.87288 -2.0023,4.242347 -2.73242,7.851563 -0.56215,3.441256 -0.37567,6.340733 0.73242,9.546875 0.93794,2.847241 1.3978,3.816072 3.90039,6.5 9.59974,9.799741 20.80104,9.301171 32.30078,4.701171 11.29974,-4.59987 19.59883,-12.500702 23.29883,-24.40039 0.65185,-2.848634 0.4201,-3.663273 0.59961,-8.099609 -0.71812,-11.526284 -9.60661,-22.261704 -20.83008,-22.833985 z m -0.54883,3.615235 c 9.49623,-0.124414 14.95508,5.618228 17.58008,15.417968 5.6,20.59948 -19.80052,39.599611 -38.5,36.599611 -9.09974,-1.5 -15.10117,-7.999454 -15.70117,-16.69922 -0.4,-9.299766 4.60026,-16.700833 12.5,-18.800781 3.7,-0.999974 7.30078,8.07e-4 10.80078,0.800781 3.3,0.699974 6.60039,1.000781 9.90039,0.800781 3.3,-0.2 5.90039,-1.600859 6.90039,-4.800781 1.1,-3.299922 0,-6.199687 -2.5,-8.599609 -1.5,-1.399974 -3.90078,-1.800834 -5.30078,-4.300782 1.525,-0.262474 2.96367,-0.400195 4.32031,-0.417968 z"
         sodipodi:nodetypes="ccccccccccccccccscccccscccs" />
      <path
         class="st6"
         d="m 404.775,166.2 c 1,7 -5.175,10.7 -11.075,13.9 -0.8,0.4 -5.1,1.8625 -5.8,1.5625 -1.2,-0.6 1.825,-3.225 2.225,-4.325 0.9,-3.1 0.875,-6.0125 0.275,-9.2125 -1.8,-9.6 -6.9,-15.425 -15.9,-17.225 -7,-1.4 -17,3.4 -21.4,10.2 -0.4,0.5 -0.6,1.2 -1,1.7 -1.2,1.6 -0.813,10.02993 -2.913,9.62993 -2.2,-0.5 -3.087,-8.70493 -3.287,-10.90493 -0.9,-10.5 7.8,-20.825 19.1,-23.425 13.1,-3 27.9,2.8 35.4,14 2.7,4.4 4.575,7.9 4.375,14.1 z"
         id="path1731"
         style="display:inline;fill:#ffffff"
         inkscape:label="olhoD"
         sodipodi:nodetypes="ccccssccccccc" />
      <path
         id="path313"
         style="display:inline;fill:#906749;fill-opacity:1;stroke:url(#linearGradient991);stroke-width:0.381732;stroke-dasharray:none"
         inkscape:label="olhoDN"
         transform="matrix(3.7795276,0,0,3.7795276,210.0217,48.558785)"
         d="m 42.544922,26.953125 a 5.4035864,5.4361382 0 0 0 -5.404297,5.435547 5.4035864,5.4361382 0 0 0 0.171875,1.314453 c 0.06506,0.05584 0.126552,0.115301 0.185547,0.177734 0.06262,0.06449 0.121104,0.132686 0.183594,0.197266 0.02171,0.02269 0.04053,0.048 0.06055,0.07227 0.07228,0.0489 0.145087,0.107072 0.21875,0.175781 0.05324,0.04966 0.111435,0.09696 0.166015,0.146484 0.09515,0.08476 0.176042,0.183151 0.263672,0.275391 0.07713,0.07746 0.149903,0.158438 0.226563,0.236328 0.01042,0.01043 0.02058,0.02107 0.03125,0.03125 0.0255,0.02432 0.05166,0.04892 0.07813,0.07227 0.03282,0.02894 0.04005,0.03752 0.02539,0.01953 0.07338,0.05089 0.147137,0.09883 0.222657,0.146484 0.03696,0.02203 0.07299,0.04546 0.109375,0.06836 0.0013,2.2e-5 0.0026,-2.5e-5 0.0039,0 0.03988,7.51e-4 0.0809,0.0024 0.123047,0.0059 0.120287,0.01 0.238396,0.03615 0.355469,0.06445 0.124065,0.0309 0.245637,0.07026 0.365234,0.115235 0.09987,0.03613 0.193944,0.08599 0.289062,0.132812 0.06482,0.03255 0.128269,0.06647 0.191407,0.101563 -0.0051,-0.0105 -0.0081,-0.0183 -0.01367,-0.0293 -4.5e-4,-8.84e-4 -0.0013,-0.0028 -0.002,-0.0039 -0.0063,-0.0116 -0.02023,-0.03304 -0.01367,-0.02539 0.0134,0.01563 0.01289,0.019 0.01953,0.02734 0.0032,0.003 0.0031,0.0033 0.0059,0.0059 0.03792,0.03537 0.04059,0.03633 0.08398,0.0625 0.02632,0.01794 0.05235,0.03609 0.07813,0.05469 0.0027,0.0017 0.0051,0.0042 0.0078,0.0059 0.06124,0.03844 0.115246,0.07855 0.166016,0.11914 0.0013,5.77e-4 0.0026,0.0014 0.0039,0.002 0.02573,0.01096 0.05179,0.01995 0.07813,0.03125 0.135814,0.05828 0.249053,0.124982 0.34375,0.197265 0.01172,0.0012 0.02343,0.0027 0.03516,0.0039 0.128221,-0.0385 0.277347,-0.06055 0.449219,-0.06055 h 0.261719 0.277344 0.271484 c 0.122652,-0.0021 0.245045,0.0144 0.365234,0.03711 0.104087,0.02191 0.209304,0.04235 0.314454,0.05859 0.100931,0.01417 0.202971,0.02019 0.304687,0.02539 0.07088,0.0072 0.140268,-4.59e-4 0.210938,-0.0059 0.09483,-0.0072 0.190107,-0.01087 0.285156,-0.01367 0.09024,-0.0022 0.179271,-0.0034 0.269531,-0.0039 0.07632,-3.84e-4 0.15415,6.9e-5 0.230469,0 0.0088,-0.0039 -0.01277,-4.53e-4 -0.0098,-0.002 0.01924,-0.0092 0.04146,-0.0082 0.0625,-0.01172 0.07572,-0.01262 0.07651,-0.01218 0.152344,-0.02148 0.09246,-0.01161 0.183801,-0.03017 0.275391,-0.04687 0.113127,-0.02242 0.22616,-0.03402 0.339843,-0.05273 0.124031,-0.02143 0.249558,-0.03717 0.375,-0.04687 0.0563,-0.0093 0.112114,-0.01635 0.167969,-0.02734 0.04567,-0.01398 0.08988,-0.02644 0.134766,-0.04297 0.07052,-0.03988 0.156628,-0.07041 0.236328,-0.09766 0.117253,-0.04359 0.24246,-0.05861 0.363281,-0.08789 0.07676,-0.01673 0.152323,-0.03639 0.228516,-0.05469 a 5.4035864,5.4361382 0 0 0 1.177734,-3.349609 5.4035864,5.4361382 0 0 0 -5.404297,-5.435547 z" />
      <ellipse
         style="display:inline;fill:#000000;fill-opacity:1;stroke:none;stroke-width:1.03274;stroke-dasharray:none"
         id="ellipse3254"
         cx="370.16965"
         cy="171.23476"
         rx="14.407844"
         ry="14.922353"
         inkscape:label="olhoIrisDN" />
      <path
         id="path1729"
         style="display:inline"
         inkscape:label="olhoD1"
         d="m 373.13194,135.3329 c -6.48861,-0.17285 -12.96387,1.49167 -18.43258,5.36663 -5.09996,3.5 -8.79915,8.10211 -9.89911,14.40207 -3.2,18.49992 13.00096,33.59715 27.60088,31.89715 8.49996,0 19.10181,-2.79538 25.20177,-6.69538 8,-5.19996 10.49459,-11.70151 7.99459,-21.00147 -3.85,-14.29996 -18.1906,-23.58873 -32.46555,-23.969 z m -0.84154,1.98573 c 10.9046,0.14663 21.81722,5.67858 27.91093,14.77854 2.9,4.3 4.45935,7.17937 4.25935,13.47933 -1.38991,9.2259 -6.27542,11.13457 -8.1941,12.23229 -2.22134,1.32116 -15.96302,6.50847 -24.10901,6.59116 -9.35135,-1.3156 -16.07026,-2.54193 -23.22347,-14.18791 -1.28076,-2.29924 -2.38076,-5.68207 -2.7313,-8.81398 -0.89996,-10.49996 7.29503,-20.69724 18.59499,-23.29724 2.45621,-0.5625 4.97619,-0.81632 7.49261,-0.78248 z m 12.77067,27.90354 c 0.0113,0.0507 0.0209,0.0983 0.0369,0.14764 0.003,0.0102 0.0319,0.0324 0.0295,0.0222 -0.0138,-0.059 -0.0443,-0.11291 -0.0664,-0.16979 z"
         sodipodi:nodetypes="scccccscccccccccccccsc" />
      <path
         class="st6"
         d="m 380.1571,153.61142 c 9.56428,4.33826 12.10657,17.19055 9.02897,26.82383 -0.7519,1.04249 -7.96761,3.92831 -17.81107,3.46475 -6.53057,-0.21121 -9.65566,-0.18034 -15.65,-5.9625 -3.075,-3.375 -6.23376,-5.67903 -6.12126,-7.94153 0.81507,-3.01555 3.32459,-10.86161 11.61647,-15.63027 3.70546,-1.69111 10.68527,-5.10098 18.93689,-0.75428 z"
         id="path5807"
         style="display:none;fill:#906749;fill-opacity:1"
         inkscape:label="irisDContorno"
         sodipodi:nodetypes="ccccccc" />
      <path
         class="st6"
         d="m 387.4625,180.0375 c -0.7519,1.04249 -6.24404,4.32606 -16.0875,3.8625 -6.53057,-0.21121 -9.65566,-0.18034 -15.65,-5.9625 -3.075,-3.375 -2.875,-5.9 -2.7625,-8.1625 0.1625,-4.4375 4.2375,-11.325 10.85,-14.2375 3.6,-1.0625 5.43125,-2.16875 10.49375,-1.28125 5.42171,1.76209 18.49381,4.78733 13.15625,25.78125 z"
         id="path4220"
         style="display:none;fill:#000000;fill-opacity:1"
         inkscape:label="irisD"
         sodipodi:nodetypes="ccccccc" />
      <path
         class="st7"
         d="m 387.3,225 c 0.3,8.4 -2.7,15.7 -7.6,22.2 -9.6,12.7 -22.9,18.2 -38.4,18.8 -9.8,-0.6 -18.9,-3.1 -26.8,-9.5 -2.3,-1.9 -3.3,-3.4 0.2,-4.9 l 68.7,-29.4 c 3,-1.4 3.8,0 3.9,2.8 z m -31.5,13.8 c 0.1,-1.4 -0.8,-2 -2.3,-1.9 -1.2,0.4 -2.9,0.6 -3,2.4 -0.1,1.3 0.9,2.1 2.2,2 1.5,-0.2 3,-0.6 3.1,-2.5 z"
         id="path1733"
         style="display:none;fill:#6a0919"
         inkscape:label="bocaD"
         sodipodi:nodetypes="scccccsccccc" />
      <path
         d="m 380.2,108.9 c 1,0.4 2.3,0.9 2.1,2.6 -2.1,0.7 -3.8,-0.6 -5.6,-1.1 -13.8,-3.9 -27.3,-3.6 -40.3,2.8 -0.8,0.4 -1.5,0.7 -2.3,1 -1.4,0.7 -2.6,0.6 -3.4,-0.8 -0.8,-1.5 0,-2.5 1.2,-3.4 5.2,-4 11.3,-5.6 17.6,-6.4 10.8,-1.2 20.9,1 30.7,5.3 z"
         id="path1735"
         style="display:inline"
         inkscape:label="sombrancelhaD" />
      <path
         class="st6"
         d="m 375.8,154.7 c 2.3,0.1 3.5,1.6 3.8,3.7 -0.5625,2.675 -1.7,4 -4,3.7 -2.2,-0.3 -3.6,-1.7 -3.4,-4.1 0.2,-2.1 1.5,-3.4 3.6,-3.3 z"
         id="path7050"
         style="display:inline;fill:#ffffff"
         inkscape:label="olhoBrilhoD2"
         sodipodi:nodetypes="ccccc" />
      <path
         class="st6"
         d="m 380.1125,157.325 c 1.65918,-0.23146 0.81694,2.19857 0.675,2.575 -0.5625,2.675 -0.69556,3.36677 -3.57257,2.73661 -0.71582,-0.34733 2.12097,-1.5542 2.11007,-2.69911 0.40071,-0.4737 0.14591,-2.04959 0.7875,-2.6125 z"
         id="path1737"
         style="display:inline;fill:#ffffff"
         inkscape:label="olhoBrilhoD"
         sodipodi:nodetypes="ccccc" />
      <path
         class="st8"
         d="m 368.9,253.4 c 0.5,1.2 -0.6,1.7 -1.4,2.3 -7.1,4.5 -14.8,7.4 -23.3,7.8 -1,0.1 -2.1,0.3 -2.5,-1 -0.3,-0.9 0.7,-1.4 1.1,-2.1 4.39376,-4.33032 15.63904,-8.70907 23.8,-7.9 1,0.2 2,0 2.3,0.9 z"
         id="path1739"
         style="display:inline;fill:#d91e1c"
         inkscape:label="lingua"
         sodipodi:nodetypes="ccccccc" />
      <path
         d="m 357.6,213.2 c 0.3,0.3 0.4,0.7 0.3,1.2 -0.6,2.3 -3,2.7 -5,3.4 -1,0.3 -2,-0.1 -1.9,-1.5 0,-0.7 0.5,-1.5 1.3,-2.2 0.1,-0.1 0.1,-0.1 0.2,-0.2 0.6,-0.5 1.3,-1 2,-1.2 0.2,-0.1 0.4,-0.1 0.7,-0.2 0,0 0.1,0 0.1,0 0.1,0 0.3,0 0.4,0 0.4,0 0.7,0.1 1,0.1 0.1,0 0.1,0 0.2,0.1 0.2,0.1 0.4,0.2 0.5,0.2 0,0.2 0.1,0.2 0.2,0.3 z"
         id="path1743"
         style="display:inline"
         inkscape:label="marizD" />
      <path
         class="st6"
         d="m 353.5,236.9 c 1.5,-0.1 2.4,0.5 2.3,1.9 -0.1,1.8 -1.7,2.3 -3.1,2.5 -1.3,0.2 -2.3,-0.7 -2.2,-2 0.1,-1.8 1.8,-2 3,-2.4 z"
         id="path1745"
         style="display:inline;fill:#ffffff"
         inkscape:label="denteD" />
      <path
         class="st6"
         d="m 347.6713,239.16188 c 1.5,-0.1 2.4,0.5 2.3,1.9 -0.1,1.8 -1.7,2.3 -3.1,2.5 -1.3,0.2 -2.3,-0.7 -2.2,-2 0.1,-1.8 1.8,-2 3,-2.4 z"
         id="path3455"
         style="display:inline;fill:#ffffff"
         inkscape:label="denteE" />
      <path
         d="m 333.3,202.9 c 7.5,-5.2 18.4,-4.7 26.1,1.3 -8.1,-2.9 -16.2,-5.3 -24.3,-0.3 -7.7,4.8 -10.4,13 -13.9,20.7 1.4,-8.8 4.6,-16.5 12.1,-21.7 z"
         id="path1749"
         style="display:inline"
         inkscape:label="nariz" />
      <path
         d="m 339.4,222.6 c -0.9,2.6 -3.6,2.3 -5.6,3.2 -1,0.4 -2.8,0.5 -2.7,-1.1 0.1,-2.6 2.5,-3.3 4.6,-4 1.5,-0.5 3,-0.2 3.7,1.9 z"
         id="path1751"
         style="display:inline"
         inkscape:label="narizE" />
      <path
         class="st6"
         d="m 303.25998,190.52752 c 4.54519,5.43919 6.54167,9.21769 6.98394,15.66709 -7.40671,11.59262 -12.00742,15.47062 -16.4585,18.98989 C 291.67917,226.65325 280.1,231.6 278.8,232.1 c -4.7,2.1 -9.6,2.5 -14.6,2.3 -2.9,-0.2 -5.1,-1.4 -6.8,-3.7 -7.6,-10.3 -8.7,-21.5 -3.7,-33 5.3,-12.1 14.8,-19.1 28.5,-18.8 7.9,0.2 17.88498,5.10877 21.05998,11.62752 z"
         id="path1757"
         style="display:inline;fill:#ffffff"
         inkscape:label="olhoEsquerdoW"
         sodipodi:nodetypes="ccccccccc" />
      <path
         id="ellipse3238"
         style="display:inline;fill:#906749;fill-opacity:1;stroke:url(#linearGradient3430);stroke-width:1.44277;stroke-dasharray:none"
         inkscape:label="olhoEN"
         d="m 289.62062,187.08733 c -11.27948,0.003 -20.42114,9.20375 -20.41831,20.55118 0.0339,11.1329 8.87531,20.21329 19.93849,20.47736 3.59628,-1.40797 6.4722,-3.90356 8.92573,-6.39248 5.19448,-4.90255 7.13219,-6.84224 10.48938,-12.74947 0.22618,-0.29435 1.22298,-3.36883 1.37192,-3.47617 -1.08678,-10.46165 -9.85194,-18.40796 -20.30758,-18.41043 z"
         sodipodi:nodetypes="cccccccc" />
      <ellipse
         style="display:inline;fill:#000000;fill-opacity:1;stroke:none;stroke-width:1.03274;stroke-dasharray:none"
         id="ellipse3387"
         cx="290.20004"
         cy="208.38986"
         rx="14.407844"
         ry="14.922353"
         inkscape:label="olhoIrisEN" />
      <path
         d="m 311.1,202 c 0.6,2.2 0.2,4.3 -0.9,6.3 -9.5,16.6 -24.1,25.8 -42.8,28.5 -5.5,0.8 -10.2,-1.7 -13.4,-7 -12,-20 -2.4,-45.9 19.3,-51.6 2.4,-0.6 4.9,-0.8 7.4,-1.1 14.6,-0.4 26.3,10 30.4,24.9 z m -7.24709,-9.92511 C 298.29103,184.1 290.1,179.1 282.2,178.9 c -13.7,-0.2 -23.2,6.7 -28.5,18.8 -5.1,11.4 -4,22.7 3.7,33 1.7,2.2 3.9,3.5 6.8,3.7 26.84645,-2.41338 36.61695,-17.28866 42.99908,-26.20449 3.49127,-5.1292 1.41233,-9.29983 -3.34617,-16.12062 z"
         id="path1755"
         style="display:inline"
         inkscape:label="olhoEsquerdo1"
         sodipodi:nodetypes="cccccccccccccc" />
      <path
         class="st6"
         d="m 298.04524,195.76249 c 1.04497,0.88501 0.94462,1.16143 1.08769,2.82512 -0.1558,1.23223 -0.97192,2.0948 -2.18318,2.35884 -1.55321,-0.31049 -0.33639,-1.65806 -0.22591,-1.99818 0.11162,-1.06594 0.4195,-3.18691 1.3214,-3.18578 z"
         id="path7053"
         style="display:inline;fill:#ffffff"
         inkscape:label="olhoBrilhoEsquerdo1"
         sodipodi:nodetypes="ccccc" />
      <path
         class="st6"
         d="m 292.3,191.1 c 3.1,0.2 4.9,2.2 4.8,5.3 -0.2,3 -1.9,5.1 -5.1,4.9 -3.1,-0.2 -4.8,-2.1 -4.8,-5.6 0.2,-2.9 1.9,-4.8 5.1,-4.6 z"
         id="path1759"
         style="display:inline;fill:#ffffff"
         inkscape:label="olhoBrilhoEsquerdo" />
      <path
         d="m 270.8,137.8 c 1.8,3 -1.2,4.5 -3.3,5.7 -9.2,5.3 -17.2,11.9 -23.3,20.8 -2.8,4.2 -5.2,8.5 -6.8,13.3 -0.5,1.5 -0.6,3.3 -3.3,4.6 0.6,-7.2 2.5,-13.3 5.6,-19 5.9,-10.7 13.4,-19.9 24.9,-25.1 1.9,-0.9 4.5,-3.2 6.2,-0.3 z"
         id="path1761"
         style="display:inline"
         inkscape:label="sombrancelhaEsquerda" />
    </g>
  </g>
</svg>
