<?xml version="1.0" encoding="utf-8"?>
<!-- Generator: Adobe Illustrator 24.0.2, SVG Export Plug-In . SVG Version: 6.00 Build 0)  -->
<svg version="1.1" id="Layer_1" xmlns="http://www.w3.org/2000/svg" xmlns:xlink="http://www.w3.org/1999/xlink" x="0px" y="0px"
	 viewBox="0 0 512 512" enable-background="new 0 0 512 512" xml:space="preserve">
<g>
	<path fill="#353F49" d="M413.3,263.5L413.3,263.5c-1.4-1.4-161.6-136.3-161.6-136.3L94.8,259.9c-6,3.3-10.2,9.6-10.2,16.8v202.8
		c0,10.6,8.6,19.2,19.2,19.2h295.7c10.5,0,19.2-8.7,19.2-19.2V276.8C418.7,264.7,413.3,263.5,413.3,263.5z"/>
</g>
<g>
	<path fill="#92E0EA" d="M251.7,423.6l-167-146.9v202.8c0,10.6,8.6,19.2,19.2,19.2h295.7c10.5,0,19.2-8.7,19.2-19.2V276.8
		L251.7,423.6z"/>
</g>
<g>
	<path fill="#7699CE" d="M399.5,498.5H103.8c-10.6,0-19.2-8.6-19.2-19.2l167-119l167.1,119C418.7,489.8,410.1,498.5,399.5,498.5z"/>
</g>
<g>
	<path fill="#9FCBD6" d="M294.7,365.9c0.4-2.3,1.1-4.8,0.6-6.5C295,361.7,294.3,364.2,294.7,365.9z"/>
	<path fill="#9FCBD6" d="M304.3,375c-1.1,2.6-3.8,5.7-3.4,8c0.1,0.3,0.2,0.6,0.4,0.9c1.1-2.8,4.2-6.1,3.4-8.4
		C304.6,375.3,304.4,375.1,304.3,375z"/>
	<path fill="#9FCBD6" d="M208,359.5c-0.5,1.6,0.2,4.1,0.6,6.4C209,364.1,208.4,361.7,208,359.5z"/>
</g>
<circle fill="#FFFFFF" cx="252.7" cy="397.5" r="53.8"/>
<g>
	<path fill="#1C4670" d="M304.6,412.1c-0.4-1.3-1.3-2.8-2.2-4.3C302.8,409.2,303.7,410.7,304.6,412.1z"/>
	<path fill="#1C4670" d="M220.9,435.9c0.6,2.6,0.7,5.9,2.1,7.3C222.5,440.5,222.4,437.2,220.9,435.9z"/>
</g>
<g>
	<path fill="#1C4670" d="M263.4,379.6h5.5l-3.8,21.3c-0.4,2.5-0.4,4.2-0.1,5.3c0.4,1.1,1.3,1.7,2.7,1.7c1.4,0,2.7-0.3,4-0.9
		c1.3-0.6,2.5-1.6,3.5-2.9c1-1.3,1.9-3,2.6-5c0.7-2,1-4.3,1-7.1c0-3.9-0.7-7.3-2-10.1c-1.3-2.8-3.1-5.1-5.4-6.9
		c-2.3-1.8-5-3.1-8.1-4c-3.1-0.9-6.4-1.3-10-1.3c-4.1,0-7.9,0.7-11.4,2.2c-3.5,1.5-6.6,3.5-9.2,6.1c-2.6,2.6-4.6,5.6-6.1,9.2
		c-1.5,3.5-2.2,7.4-2.2,11.5c0,4.1,0.6,7.8,1.8,11c1.2,3.2,3,6,5.4,8.3c2.4,2.3,5.3,4,8.8,5.3c3.5,1.2,7.5,1.8,12,1.8
		c1.5,0,3.2-0.2,5.2-0.5c1.9-0.4,3.7-0.9,5.3-1.6l2.4,7.5c-2.2,1.1-4.3,1.8-6.6,2.2c-2.2,0.4-4.8,0.6-7.7,0.6
		c-5.1,0-9.8-0.7-14.1-2.2c-4.3-1.5-8.1-3.6-11.2-6.5c-3.2-2.9-5.7-6.5-7.4-10.7c-1.8-4.3-2.7-9.2-2.7-14.8c0-5.7,1-10.9,3.1-15.5
		c2-4.6,4.8-8.6,8.3-11.8c3.5-3.2,7.5-5.7,12-7.5c4.6-1.7,9.4-2.6,14.5-2.6c4.8,0,9.3,0.7,13.4,2.1c4.1,1.4,7.7,3.4,10.8,6
		c3,2.6,5.4,5.8,7.2,9.5c1.7,3.8,2.6,8,2.6,12.8c0,3.4-0.6,6.5-1.8,9.4c-1.2,2.9-2.8,5.5-4.9,7.6c-2.1,2.1-4.5,3.8-7.2,5.1
		c-2.7,1.3-5.7,1.9-8.8,1.9c-1.3,0-2.5-0.1-3.7-0.4c-1.1-0.3-2.1-0.8-2.8-1.5c-0.8-0.7-1.3-1.6-1.7-2.7c-0.4-1.1-0.5-2.5-0.3-4.1
		H256c-0.8,1.1-1.6,2.2-2.6,3.2c-0.9,1-1.9,2-3,2.8c-1.1,0.8-2.3,1.5-3.6,1.9c-1.3,0.5-2.8,0.7-4.3,0.7c-1.3,0-2.5-0.3-3.6-0.8
		c-1.1-0.6-2.1-1.3-3-2.3c-0.8-1-1.5-2.2-2-3.6c-0.5-1.4-0.7-3-0.7-4.7c0-3.2,0.5-6.4,1.6-9.5c1-3.1,2.5-5.8,4.3-8.1
		c1.8-2.4,3.9-4.3,6.3-5.7c2.4-1.4,4.9-2.2,7.6-2.2c1.8,0,3.4,0.3,4.6,0.8c1.3,0.5,2.4,1.3,3.4,2.2L263.4,379.6z M258.5,389.1
		c-0.7-0.6-1.4-1-2.1-1.3c-0.7-0.3-1.7-0.5-2.8-0.5c-1.6,0-3,0.5-4.4,1.3c-1.3,0.9-2.5,2.1-3.5,3.5c-1,1.4-1.7,3-2.2,4.8
		c-0.5,1.7-0.8,3.5-0.8,5.2c0,1.7,0.4,3.1,1.1,4.2c0.7,1.1,1.9,1.7,3.7,1.7c0.7,0,1.5-0.2,2.4-0.7c0.8-0.4,1.7-1,2.4-1.8
		c0.8-0.7,1.5-1.6,2.3-2.5c0.7-0.9,1.4-1.9,2-3L258.5,389.1z"/>
</g>
<polygon fill="#FCD751" points="457.5,272.4 385.4,258.5 399.3,330.6 417.4,312.5 443.7,338.8 454.7,327.8 465.7,316.8 439.4,290.5 
	"/>
<g>
	<g>
		<path fill="#FCD751" d="M230,259.9c9,11.7,6.9,28.5-4.8,37.5c-11.7,9-28.5,6.8-37.5-4.8c-9-11.7-6.9-28.5,4.8-37.5
			C204.2,246,221,248.2,230,259.9z"/>
		<path fill="#FFA229" d="M226.5,262.6c7.5,9.7,5.7,23.7-4,31.2c-9.7,7.5-23.7,5.7-31.2-4c-7.5-9.7-5.7-23.7,4-31.2
			C205,251.1,219,252.9,226.5,262.6z"/>
		<path fill="#FCD751" d="M223.1,265.2c6.1,7.9,4.6,19.2-3.3,25.3c-7.9,6.1-19.2,4.6-25.3-3.3c-6.1-7.9-4.6-19.2,3.2-25.3
			C205.7,255.8,217.1,257.3,223.1,265.2z"/>
		<g>
			<path fill="#FFA229" d="M214.5,286.3c-1,0.7-1.9,1.2-2.7,1.6c-0.8,0.4-1.6,0.6-2.1,0.7l-1.2-3.6c0.5,0,1-0.2,1.7-0.4
				c0.7-0.3,1.4-0.6,2.2-1.1l-3.9-5c-0.7,0.2-1.4,0.3-2.1,0.4c-0.7,0.1-1.4,0.1-2.1,0c-0.7-0.1-1.4-0.3-2.1-0.7
				c-0.7-0.4-1.3-1-1.9-1.7c-1.1-1.4-1.6-2.8-1.4-4.2c0.1-1.4,0.8-2.7,1.9-3.9l-1.7-2.3l2.6-2l1.7,2.2c0.8-0.5,1.5-0.9,2.2-1.2
				c0.7-0.3,1.3-0.5,1.9-0.7l1.2,3.4c-0.4,0.1-0.8,0.2-1.4,0.4c-0.5,0.2-1.1,0.5-1.7,0.8l3.6,4.7c0.7-0.2,1.4-0.3,2.2-0.4
				c0.7-0.1,1.5-0.1,2.2,0c0.7,0.1,1.4,0.3,2.1,0.6c0.7,0.3,1.3,0.9,1.9,1.6c1.2,1.5,1.7,3,1.6,4.5c-0.1,1.4-0.8,2.8-1.9,4.1
				l1.8,2.3l-2.6,2L214.5,286.3z M203.2,273.6c0.4,0.5,0.9,0.8,1.5,0.8c0.7,0,1.4,0,2.2-0.2l-3.1-4.1c-0.8,0.6-1.2,1.3-1.2,1.8
				C202.6,272.5,202.8,273.1,203.2,273.6z M214.3,278.4c-0.4-0.5-0.9-0.8-1.6-0.8c-0.7,0-1.4,0.1-2.2,0.3l3.4,4.4
				c0.7-0.6,1-1.3,1.1-1.9C215,279.6,214.8,279,214.3,278.4z"/>
		</g>
	</g>
</g>
<g>
	<g>
		<path fill="#FCD751" d="M94.4,58.7c9.8,12.7,7.5,31-5.2,40.8c-12.7,9.8-31,7.5-40.8-5.2c-9.8-12.7-7.5-31,5.2-40.8
			C66.3,43.6,84.6,46,94.4,58.7z"/>
		<path fill="#FFA229" d="M90.5,61.7c8.2,10.6,6.2,25.8-4.4,33.9c-10.6,8.2-25.7,6.2-33.9-4.4c-8.2-10.6-6.2-25.7,4.4-33.9
			C67.1,49.2,82.3,51.1,90.5,61.7z"/>
		<path fill="#FCD751" d="M86.9,64.5c6.6,8.6,5,20.9-3.6,27.5c-8.5,6.6-20.9,5-27.5-3.6c-6.6-8.6-5-20.9,3.5-27.5
			C67.9,54.3,80.3,55.9,86.9,64.5z"/>
		<g>
			<path fill="#FFA229" d="M77.5,87.4c-1,0.8-2,1.3-3,1.8c-0.9,0.4-1.7,0.7-2.3,0.8l-1.3-3.9c0.5-0.1,1.1-0.2,1.8-0.5
				c0.7-0.3,1.5-0.7,2.4-1.3l-4.3-5.5c-0.7,0.2-1.5,0.3-2.3,0.4c-0.8,0.1-1.6,0.1-2.3,0c-0.8-0.1-1.5-0.4-2.3-0.8
				c-0.7-0.4-1.4-1-2.1-1.8c-1.2-1.6-1.7-3.1-1.6-4.6c0.1-1.5,0.8-2.9,2.1-4.2l-1.9-2.5l2.8-2.2l1.8,2.4c0.8-0.6,1.6-1,2.3-1.3
				c0.7-0.3,1.4-0.5,2.1-0.7l1.3,3.7c-0.4,0.1-0.9,0.3-1.5,0.5c-0.6,0.2-1.2,0.5-1.8,0.9l3.9,5.1c0.8-0.2,1.5-0.3,2.4-0.5
				c0.8-0.1,1.6-0.1,2.4,0c0.8,0.1,1.5,0.3,2.3,0.7c0.7,0.4,1.4,1,2,1.8c1.3,1.7,1.9,3.3,1.7,4.9c-0.1,1.6-0.8,3.1-2.1,4.5l1.9,2.5
				l-2.8,2.2L77.5,87.4z M65.1,73.7c0.4,0.6,1,0.9,1.7,0.9c0.7,0,1.5,0,2.4-0.2l-3.4-4.4c-0.8,0.7-1.2,1.4-1.3,2
				C64.5,72.5,64.7,73.1,65.1,73.7z M77.3,78.9c-0.4-0.6-1-0.9-1.8-0.9c-0.7,0-1.6,0.1-2.5,0.3l3.7,4.8c0.7-0.7,1.1-1.4,1.2-2.1
				C78,80.2,77.8,79.5,77.3,78.9z"/>
		</g>
	</g>
</g>
<g>
	<g>
		<path fill="#FCD751" d="M207.7,175.9c-10.8,25.9-40.5,38.1-66.4,27.3c-25.9-10.8-38.1-40.5-27.3-66.4
			c10.8-25.9,40.5-38.1,66.4-27.4C206.3,120.3,218.5,150,207.7,175.9z"/>
		<path fill="#FFA229" d="M199.8,172.6c-8.9,21.5-33.7,31.7-55.2,22.7c-21.5-9-31.7-33.7-22.7-55.2c9-21.5,33.7-31.7,55.2-22.7
			C198.6,126.4,208.8,151.1,199.8,172.6z"/>
		<path fill="#FCD751" d="M192.5,169.5c-7.2,17.4-27.3,25.7-44.8,18.4c-17.4-7.3-25.7-27.3-18.4-44.8c7.3-17.5,27.3-25.7,44.8-18.5
			C191.5,132,199.8,152.1,192.5,169.5z"/>
		<g>
			<path fill="#FFA229" d="M149.5,175.1c-2.1-0.9-3.8-1.9-5.2-3c-1.4-1-2.5-2-3.2-2.8l4.8-5.4c0.5,0.7,1.3,1.5,2.3,2.4
				c1,0.9,2.3,1.7,3.9,2.5l4.7-11.2c-0.9-1-1.8-2-2.7-3.1c-0.9-1.1-1.6-2.2-2.1-3.5c-0.5-1.3-0.8-2.6-0.8-4.1c0-1.5,0.3-3,1-4.7
				c1.3-3.2,3.2-5.3,5.6-6.3c2.4-1.1,5.1-1.2,8.2-0.6l2.1-5l5.7,2.4l-2,4.8c1.6,0.8,2.9,1.6,4,2.4c1.1,0.8,2,1.7,2.9,2.5l-4.5,5.3
				c-0.5-0.6-1.2-1.2-2-1.9c-0.8-0.7-1.8-1.4-3-2l-4.3,10.4c0.9,1,1.8,2.1,2.7,3.2c0.9,1.1,1.6,2.3,2.1,3.6c0.5,1.3,0.9,2.6,0.9,4.1
				c0.1,1.4-0.2,3-0.9,4.6c-1.4,3.4-3.4,5.7-5.9,6.9c-2.5,1.2-5.4,1.4-8.6,0.7l-2.1,5.1l-5.7-2.4L149.5,175.1z M159.8,144.5
				c-0.5,1.1-0.4,2.2,0.1,3.3c0.6,1.1,1.4,2.2,2.4,3.4l3.7-9c-1.8-0.7-3.1-0.7-4.1-0.2C161,142.5,160.3,143.4,159.8,144.5z
				 M162.3,167.4c0.5-1.2,0.4-2.3-0.2-3.4c-0.6-1.1-1.5-2.3-2.5-3.5l-4,9.7c1.7,0.5,3.1,0.5,4.2,0
				C160.9,169.6,161.8,168.7,162.3,167.4z"/>
		</g>
	</g>
</g>
<g>
	<path fill="#AEBFCE" d="M311.2,233.2c0,1.1-0.7,1.9-1.5,1.8l-7.5-0.4c-0.8-0.1-1.4-0.9-1.3-2l0.3-6c0.1-1.1,0.7-1.9,1.5-1.8
		l7.4,0.4c0.8,0,1.4,0.9,1.3,2L311.2,233.2z"/>
	<path fill="#AEBFCE" d="M308.2,291.6c0.1-1.1-0.5-2-1.3-2l-7.5-0.4c-0.8,0-1.5,0.8-1.5,1.8l-0.3,6c-0.1,1.1,0.5,1.9,1.3,2l7.5,0.4
		c0.8,0,1.4-0.8,1.5-1.8L308.2,291.6z"/>
	<path fill="#AEBFCE" d="M295.8,233.8c0.5,0.9,0.3,2-0.4,2.3l-6.6,3.4c-0.7,0.4-1.6-0.1-2.1-1.1l-2.7-5.4c-0.5-0.9-0.3-2,0.4-2.3
		l6.6-3.4c0.7-0.4,1.7,0.1,2.1,1.1L295.8,233.8z"/>
	<path fill="#AEBFCE" d="M322.5,285.9c-0.5-0.9-1.4-1.4-2.1-1.1l-6.6,3.4c-0.7,0.4-0.9,1.4-0.4,2.3l2.7,5.4c0.5,0.9,1.4,1.4,2.1,1.1
		l6.6-3.4c0.7-0.4,0.9-1.4,0.4-2.3L322.5,285.9z"/>
	<path fill="#AEBFCE" d="M282.8,241.9c0.9,0.6,1.3,1.6,0.8,2.2l-4.1,6.3c-0.4,0.7-1.5,0.7-2.4,0.1l-5-3.3c-0.9-0.6-1.3-1.6-0.8-2.2
		l4.1-6.3c0.4-0.6,1.5-0.7,2.4-0.1L282.8,241.9z"/>
	<path fill="#AEBFCE" d="M331.9,273.7c-0.9-0.6-1.9-0.5-2.4,0.1l-4,6.3c-0.4,0.7-0.1,1.7,0.8,2.2l5,3.3c0.9,0.6,2,0.5,2.4-0.1l4-6.3
		c0.4-0.6,0-1.6-0.8-2.2L331.9,273.7z"/>
	<path fill="#AEBFCE" d="M275.6,255.5c1.1,0,1.9,0.7,1.9,1.5l-0.4,7.5c0,0.8-0.9,1.4-2,1.3l-6-0.3c-1-0.1-1.9-0.7-1.8-1.5l0.4-7.4
		c0-0.8,0.9-1.4,2-1.3L275.6,255.5z"/>
	<path fill="#AEBFCE" d="M334.1,258.5c-1.1-0.1-1.9,0.5-2,1.3l-0.4,7.5c0,0.8,0.8,1.5,1.8,1.5l6,0.3c1.1,0,1.9-0.5,2-1.3l0.4-7.4
		c0-0.8-0.8-1.4-1.8-1.5L334.1,258.5z"/>
	<path fill="#AEBFCE" d="M276.2,270.9c0.9-0.5,2-0.3,2.3,0.4l3.4,6.6c0.4,0.7-0.1,1.7-1.1,2.1l-5.3,2.7c-0.9,0.5-2,0.3-2.3-0.4
		l-3.4-6.6c-0.3-0.7,0.1-1.6,1.1-2.1L276.2,270.9z"/>
	<path fill="#AEBFCE" d="M328.3,244.2c-0.9,0.5-1.4,1.4-1.1,2.1l3.4,6.6c0.3,0.7,1.4,0.9,2.3,0.4l5.3-2.7c0.9-0.5,1.4-1.4,1.1-2.1
		l-3.4-6.6c-0.3-0.7-1.4-0.9-2.3-0.4L328.3,244.2z"/>
	<path fill="#AEBFCE" d="M284.4,283.9c0.6-0.9,1.6-1.3,2.2-0.8l6.2,4.1c0.7,0.4,0.7,1.5,0.2,2.4l-3.3,5c-0.6,0.9-1.6,1.3-2.2,0.8
		l-6.2-4.1c-0.7-0.4-0.7-1.5-0.2-2.4L284.4,283.9z"/>
	<path fill="#AEBFCE" d="M316.2,234.8c-0.6,0.9-0.5,1.9,0.2,2.4l6.3,4.1c0.6,0.4,1.6,0.1,2.2-0.8l3.3-5c0.6-0.9,0.5-1.9-0.2-2.4
		l-6.3-4.1c-0.7-0.4-1.7-0.1-2.2,0.8L316.2,234.8z"/>
	<path fill="#768296" d="M306.2,230.7c-17.3-0.9-32.1,12.5-33,29.8c-0.9,17.3,12.5,32.1,29.8,33c17.3,0.9,32.1-12.5,33-29.8
		C336.9,246.4,323.5,231.6,306.2,230.7z M303.5,282.8c-11.4-0.6-20.2-10.3-19.6-21.7c0.6-11.4,10.3-20.2,21.7-19.6
		c11.4,0.6,20.2,10.3,19.6,21.7C324.7,274.6,315,283.4,303.5,282.8z"/>
</g>
<g>
	<path fill="#AEBFCE" d="M453.4,39.8c0,0.7-0.5,1.2-1,1.2l-4.8-0.2c-0.5,0-0.9-0.6-0.8-1.3l0.2-3.8c0-0.7,0.5-1.2,1-1.2l4.8,0.2
		c0.5,0,0.9,0.6,0.8,1.3L453.4,39.8z"/>
	<path fill="#AEBFCE" d="M451.5,77.2c0-0.7-0.3-1.2-0.8-1.3l-4.8-0.2c-0.5,0-0.9,0.5-1,1.2l-0.2,3.8c0,0.7,0.3,1.2,0.8,1.3l4.8,0.2
		c0.5,0,0.9-0.5,0.9-1.2L451.5,77.2z"/>
	<path fill="#AEBFCE" d="M443.6,40.2c0.3,0.6,0.2,1.3-0.2,1.5l-4.2,2.2c-0.4,0.2-1-0.1-1.4-0.7l-1.8-3.4c-0.3-0.6-0.2-1.3,0.2-1.5
		l4.2-2.2c0.5-0.2,1.1,0.1,1.4,0.7L443.6,40.2z"/>
	<path fill="#AEBFCE" d="M460.6,73.5c-0.3-0.6-0.9-0.9-1.4-0.7L455,75c-0.4,0.2-0.6,0.9-0.2,1.5l1.8,3.4c0.3,0.6,0.9,0.9,1.4,0.7
		l4.2-2.2c0.4-0.2,0.6-0.9,0.2-1.5L460.6,73.5z"/>
	<path fill="#AEBFCE" d="M435.3,45.4c0.6,0.4,0.8,1,0.5,1.4l-2.6,4c-0.3,0.4-0.9,0.5-1.5,0.1l-3.2-2.1c-0.6-0.4-0.8-1-0.5-1.4l2.6-4
		c0.3-0.4,1-0.4,1.5-0.1L435.3,45.4z"/>
	<path fill="#AEBFCE" d="M466.7,65.7c-0.6-0.4-1.2-0.3-1.5,0.1l-2.6,4c-0.3,0.4,0,1.1,0.5,1.4l3.2,2.1c0.6,0.4,1.2,0.3,1.5-0.1
		l2.6-4c0.3-0.4,0-1-0.5-1.4L466.7,65.7z"/>
	<path fill="#AEBFCE" d="M430.7,54.1c0.7,0,1.2,0.5,1.2,1l-0.2,4.8c0,0.5-0.6,0.9-1.3,0.8l-3.8-0.2c-0.7,0-1.2-0.5-1.2-1l0.2-4.7
		c0-0.5,0.6-0.9,1.3-0.8L430.7,54.1z"/>
	<path fill="#AEBFCE" d="M468,56c-0.7,0-1.2,0.3-1.3,0.8l-0.2,4.8c0,0.5,0.5,0.9,1.2,1l3.8,0.2c0.7,0,1.3-0.3,1.3-0.8l0.2-4.8
		c0-0.5-0.5-0.9-1.2-1L468,56z"/>
	<path fill="#AEBFCE" d="M431.1,63.9c0.6-0.3,1.3-0.2,1.5,0.2l2.2,4.3c0.2,0.4-0.1,1-0.7,1.4l-3.4,1.7c-0.6,0.3-1.3,0.2-1.5-0.3
		L427,67c-0.2-0.4,0.1-1,0.7-1.3L431.1,63.9z"/>
	<path fill="#AEBFCE" d="M464.3,46.9c-0.6,0.3-0.9,0.9-0.7,1.4l2.2,4.2c0.2,0.4,0.9,0.6,1.5,0.2l3.4-1.7c0.6-0.3,0.9-0.9,0.7-1.4
		l-2.2-4.2c-0.2-0.5-0.9-0.6-1.5-0.2L464.3,46.9z"/>
	<path fill="#AEBFCE" d="M436.3,72.2c0.4-0.6,1-0.8,1.4-0.5l4,2.6c0.4,0.3,0.5,0.9,0.1,1.5l-2.1,3.2c-0.4,0.6-1,0.8-1.4,0.5l-4-2.6
		c-0.4-0.3-0.5-0.9-0.1-1.5L436.3,72.2z"/>
	<path fill="#AEBFCE" d="M456.6,40.8c-0.4,0.6-0.3,1.2,0.1,1.5l4,2.6c0.4,0.3,1,0,1.4-0.5l2.1-3.2c0.4-0.6,0.3-1.2-0.1-1.5l-4-2.6
		c-0.4-0.3-1,0-1.4,0.5L456.6,40.8z"/>
	<path fill="#768296" d="M450.2,38.3c-11.1-0.6-20.5,8-21.1,19c-0.6,11.1,8,20.5,19,21.1c11.1,0.6,20.5-8,21.1-19
		C469.8,48.3,461.3,38.8,450.2,38.3z M448.5,71.5c-7.3-0.4-12.9-6.6-12.5-13.9c0.4-7.3,6.6-12.9,13.9-12.5
		c7.3,0.4,12.9,6.6,12.5,13.9C462,66.3,455.8,71.9,448.5,71.5z"/>
</g>
<g>
	<path fill="#AEBFCE" d="M409.5,156c0,0.8-0.6,1.5-1.2,1.5l-6-0.3c-0.6,0-1.1-0.7-1.1-1.6l0.2-4.8c0.1-0.8,0.6-1.5,1.2-1.5l6,0.3
		c0.6,0,1.1,0.7,1.1,1.6L409.5,156z"/>
	<path fill="#AEBFCE" d="M407.2,202.9c0-0.9-0.4-1.6-1.1-1.6l-6-0.3c-0.6,0-1.2,0.6-1.2,1.5l-0.2,4.8c0,0.8,0.4,1.6,1.1,1.6l6,0.3
		c0.6,0,1.2-0.6,1.2-1.5L407.2,202.9z"/>
	<path fill="#AEBFCE" d="M397.2,156.5c0.4,0.7,0.2,1.6-0.3,1.9l-5.3,2.7c-0.6,0.3-1.3-0.1-1.7-0.8l-2.2-4.3
		c-0.4-0.8-0.3-1.6,0.3-1.9l5.3-2.7c0.6-0.3,1.3,0.1,1.7,0.8L397.2,156.5z"/>
	<path fill="#AEBFCE" d="M418.6,198.3c-0.4-0.8-1.1-1.1-1.7-0.9l-5.3,2.7c-0.6,0.3-0.7,1.1-0.3,1.9l2.2,4.3c0.4,0.8,1.2,1.1,1.7,0.9
		l5.3-2.7c0.6-0.3,0.7-1.1,0.3-1.9L418.6,198.3z"/>
	<path fill="#AEBFCE" d="M386.8,163.1c0.7,0.5,1,1.3,0.7,1.8l-3.2,5c-0.3,0.5-1.2,0.6-1.9,0.1l-4-2.6c-0.7-0.5-1-1.3-0.7-1.8l3.2-5
		c0.3-0.5,1.2-0.6,1.9-0.1L386.8,163.1z"/>
	<path fill="#AEBFCE" d="M426.2,188.6c-0.7-0.5-1.6-0.4-1.9,0.1l-3.2,5c-0.3,0.5,0,1.3,0.7,1.8l4.1,2.6c0.7,0.5,1.6,0.4,1.9-0.1
		l3.2-5c0.3-0.5,0-1.3-0.7-1.8L426.2,188.6z"/>
	<path fill="#AEBFCE" d="M381,174c0.8,0,1.5,0.6,1.5,1.2l-0.3,6c0,0.6-0.7,1.1-1.6,1.1l-4.8-0.2c-0.8-0.1-1.5-0.6-1.5-1.2l0.3-6
		c0-0.6,0.7-1.1,1.6-1.1L381,174z"/>
	<path fill="#AEBFCE" d="M427.9,176.3c-0.8,0-1.6,0.4-1.6,1.1l-0.3,6c0,0.6,0.6,1.2,1.5,1.2l4.8,0.2c0.9,0,1.6-0.4,1.6-1.1l0.3-6
		c0-0.6-0.6-1.2-1.5-1.2L427.9,176.3z"/>
	<path fill="#AEBFCE" d="M381.5,186.3c0.8-0.4,1.6-0.2,1.9,0.3l2.7,5.3c0.3,0.6-0.1,1.3-0.9,1.7l-4.3,2.2c-0.8,0.4-1.6,0.2-1.9-0.3
		l-2.7-5.3c-0.3-0.6,0.1-1.3,0.9-1.7L381.5,186.3z"/>
	<path fill="#AEBFCE" d="M423.3,164.9c-0.8,0.4-1.1,1.1-0.9,1.7l2.7,5.3c0.3,0.6,1.1,0.7,1.9,0.3l4.3-2.2c0.8-0.4,1.1-1.2,0.8-1.7
		l-2.7-5.3c-0.3-0.6-1.1-0.7-1.9-0.3L423.3,164.9z"/>
	<path fill="#AEBFCE" d="M388,196.8c0.5-0.7,1.3-1,1.8-0.7l5,3.2c0.5,0.3,0.6,1.2,0.1,1.9l-2.6,4c-0.5,0.7-1.3,1-1.8,0.7l-5-3.2
		c-0.5-0.3-0.6-1.2-0.1-1.9L388,196.8z"/>
	<path fill="#AEBFCE" d="M413.5,157.3c-0.5,0.7-0.4,1.6,0.1,1.9l5,3.2c0.5,0.3,1.3,0,1.8-0.7l2.6-4c0.4-0.7,0.4-1.6-0.1-1.9l-5-3.2
		c-0.5-0.3-1.3,0-1.8,0.7L413.5,157.3z"/>
	<path fill="#768296" d="M405.5,154.1c-13.9-0.7-25.8,10-26.5,23.9c-0.7,13.9,10,25.8,23.9,26.5c13.9,0.7,25.7-10,26.5-23.9
		C430.1,166.6,419.4,154.8,405.5,154.1z M403.4,195.9c-9.2-0.5-16.2-8.3-15.7-17.4c0.5-9.2,8.3-16.2,17.4-15.7
		c9.2,0.5,16.2,8.3,15.8,17.4C420.4,189.3,412.6,196.3,403.4,195.9z"/>
</g>
<g>
	<path fill="#FFA229" d="M316.9,156.8l40.9-25.6l-37.9-29.9C306.9,117.7,306.4,140,316.9,156.8z"/>
	<path fill="#FFA229" d="M342.9,71.5l18,44.8L396,83.1c-1.6-1.7-3.3-3.3-5.2-4.8C376.7,67.2,358.4,65.2,342.9,71.5z"/>
	<path fill="#AEBFCE" d="M327.9,169.1c10,7.9,22.1,11.2,33.9,10.2l-3.9-48.1l-40.9,25.6C319.7,161.3,323.4,165.5,327.9,169.1z"/>
	<path fill="#AEBFCE" d="M319.9,101.2l37.9,29.9l-18-44.8C332.2,89.4,325.3,94.4,319.9,101.2z"/>
	<path fill="#AEBFCE" d="M357.8,131.2l46.4,13.2c4.6-16.1,0.5-33.8-11.3-46.3L357.8,131.2z"/>
	<path fill="#FFA229" d="M357.8,131.2l3.9,48.1c5.5-0.5,10.9-1.8,16-4.1c6.8-3.1,13.1-7.8,18-14.1c4-5.1,6.8-10.8,8.5-16.7
		L357.8,131.2z"/>
</g>
</svg>
