<?xml version="1.0" encoding="iso-8859-1"?>
<!-- Uploaded to: SVG Repo, www.svgrepo.com, Generator: SVG Repo Mixer Tools -->
<svg height="800px" width="800px" version="1.1" id="Layer_1" xmlns="http://www.w3.org/2000/svg" xmlns:xlink="http://www.w3.org/1999/xlink" 
	 viewBox="0 0 512 512" xml:space="preserve">
<path style="fill:#FF6464;" d="M451.88,40.063l-24.85,93.736c-2.797,11.496-13.094,19.587-24.926,19.587h-94.791
	c14.626-84.702,46.47-145.37,83.4-145.37h38.968C444.809,8.017,455.813,23.903,451.88,40.063z"/>
<path style="fill:#D2555A;" d="M427.03,133.799c-2.797,11.496-13.094,19.587-24.926,19.587h-21.304L418.72,8.017h10.964
	c15.126,0,26.13,15.886,22.198,32.047L427.03,133.799z"/>
<path style="fill:#FF6464;" d="M451.88,471.937l-24.85-93.736c-2.797-11.496-13.094-19.587-24.926-19.587h-94.791
	c14.626,84.702,46.47,145.37,83.4,145.37h38.968C444.809,503.983,455.813,488.097,451.88,471.937z"/>
<path style="fill:#D2555A;" d="M427.03,378.201c-2.797-11.496-13.094-19.587-24.926-19.587h-21.304l37.919,145.37h10.964
	c15.126,0,26.13-15.886,22.198-32.046L427.03,378.201z"/>
<path style="fill:#F0C087;" d="M409.893,177.668c-0.727-13.872-13.178-24.273-27.069-24.273h-75.51v-25.662h-60.458
	c-10.146,0-19.953,3.549-27.653,10.154c-15.482,13.281-40.156,32.601-74.361,41.152v0.009v171.023h32.194
	c12.718,0,25.415,1.051,37.961,3.141l13.611,2.268c12.545,2.091,25.241,3.141,37.96,3.141h90.603
	c13.89,0,26.343-10.401,27.069-24.275c0.775-14.793-10.993-27.032-25.618-27.032h7.101c13.89,0,26.343-10.401,27.069-24.275
	c0.775-14.793-10.993-27.032-25.618-27.032h7.101c13.89,0,26.343-10.401,27.069-24.275c0.775-14.793-10.993-27.032-25.618-27.032
	h8.551C398.899,204.702,410.667,192.463,409.893,177.668z"/>
<path style="fill:#E6AF78;" d="M170.496,170.012c-7.877,3.565-16.384,6.711-25.653,9.028v0.009v171.023h25.653V170.012z"/>
<path style="fill:#FF6464;" d="M135.057,358.622h-65.94c-5.404,0-9.786-4.381-9.786-9.786V180.283c0-5.404,4.381-9.786,9.786-9.786
	h65.94c5.404,0,9.786,4.381,9.786,9.786v32.974v135.58C144.842,354.242,140.461,358.622,135.057,358.622z"/>
<circle style="fill:#EFF2FA;" cx="102.09" cy="315.858" r="17.102"/>
<path d="M459.629,469.882l-24.83-93.661c-3.713-15.092-17.146-25.625-32.695-25.625h-14.973c2.973-4.639,4.809-10.028,5.113-15.83
	c0.47-8.983-2.533-17.531-8.477-24.19c9.732-5.572,16.421-15.531,17.029-27.117c0.47-8.983-2.533-17.531-8.477-24.19
	c9.732-5.572,16.421-15.531,17.029-27.117c0.465-8.873-2.461-17.322-8.26-23.944c2.794-1.608,5.367-3.617,7.615-5.987
	c6.42-6.765,9.686-15.634,9.197-24.973c-0.339-6.465-2.571-12.423-6.169-17.394c11.261-3.441,20.294-12.317,23.07-23.59
	l24.831-94.157c0.013-0.049,0.026-0.099,0.038-0.15c2.57-10.561,0.197-21.837-6.347-30.164C447.432,4.299,438.816,0,429.682,0
	h-38.969c-35.79,0-67.259,45.063-85.094,119.716h-58.765c-12.113,0-23.786,4.293-32.873,12.087
	c-15.479,13.278-36.59,29.249-64.781,37.715c-3.255-4.267-8.377-7.038-14.146-7.038h-65.94c-9.817,0-17.802,7.986-17.802,17.802
	v168.554c0,9.817,7.986,17.802,17.802,17.802h65.94c6.426,0,12.051-3.434,15.182-8.551h26.799c12.241,0,24.569,1.021,36.643,3.032
	l13.61,2.268c12.942,2.157,26.157,3.25,39.278,3.25h33.683c7.484,41.098,19.01,76.072,33.435,101.371
	c16.41,28.779,36.13,43.99,57.03,43.99h38.969c9.133,0,17.75-4.299,23.641-11.795c6.544-8.327,8.917-19.602,6.347-30.163
	C459.657,469.988,459.643,469.935,459.629,469.882z M440.716,21.702c3.516,4.473,4.78,10.598,3.391,16.398l-24.829,94.145
	c-0.013,0.049-0.026,0.099-0.037,0.149c-1.83,7.52-9.343,12.976-17.864,12.976h-10.409l33.935-129.336h4.779
	C433.925,16.033,437.843,18.046,440.716,21.702z M390.715,16.033h17.613L374.39,145.377l-57.837-0.004
	C331.203,67.603,360.549,16.033,390.715,16.033z M135.057,350.606h-65.94c-0.976,0-1.769-0.793-1.769-1.769V180.283
	c0-0.976,0.793-1.769,1.769-1.769h65.94c0.976,0,1.769,0.793,1.769,1.769v168.554C136.826,349.813,136.032,350.606,135.057,350.606z
	 M229.925,347.573l-13.61-2.268c-12.941-2.157-26.157-3.25-39.279-3.25h-24.178V185.157c31.51-9.233,54.68-26.702,71.563-41.186
	c6.181-5.303,14.149-8.223,22.434-8.223h55.237c-1.072,5.308-2.08,10.742-3.02,16.305c-0.392,2.326,0.26,4.707,1.782,6.51
	c1.523,1.802,3.762,2.841,6.123,2.841l75.844,0.006c10.029,0,18.582,7.481,19.063,16.677c0.257,4.903-1.453,9.554-4.815,13.097
	c-3.365,3.547-7.91,5.499-12.797,5.499h-8.551c-4.427,0-8.017,3.589-8.017,8.017s3.589,8.017,8.017,8.017
	c4.886,0,9.431,1.953,12.796,5.499c3.363,3.542,5.073,8.194,4.815,13.097c-0.482,9.196-9.033,16.677-19.063,16.677h-7.1
	c-4.427,0-8.017,3.589-8.017,8.017c0,4.427,3.589,8.017,8.017,8.017c4.886,0,9.431,1.953,12.796,5.499
	c3.363,3.542,5.073,8.194,4.815,13.097c-0.482,9.196-9.033,16.677-19.063,16.677h-7.1c-4.427,0-8.017,3.589-8.017,8.017
	c0,4.427,3.589,8.017,8.017,8.017c4.886,0,9.431,1.953,12.796,5.499c3.363,3.542,5.073,8.194,4.815,13.097
	c-0.479,9.14-8.932,16.579-18.883,16.668l-90.782,0.009C254.327,350.606,241.999,349.585,229.925,347.573z M316.556,366.639
	l58.051-0.009l33.735,129.336h-17.628C360.629,495.967,331.196,444.319,316.556,366.639z M440.716,490.298
	c-2.873,3.655-6.792,5.668-11.034,5.668h-4.769L391.177,366.63h10.927c8.16,0,15.207,5.538,17.137,13.467
	c0.013,0.052,0.026,0.106,0.041,0.158l24.827,93.649C445.496,479.703,444.231,485.827,440.716,490.298z"/>
<path d="M102.087,290.739c-13.851,0-25.119,11.268-25.119,25.119c0,13.851,11.268,25.119,25.119,25.119s25.119-11.268,25.119-25.119
	C127.206,302.007,115.937,290.739,102.087,290.739z M102.087,324.944c-5.01,0-9.086-4.076-9.086-9.086s4.076-9.086,9.086-9.086
	c5.01,0,9.086,4.076,9.086,9.086S107.096,324.944,102.087,324.944z"/>
</svg>