

<svg version="1.2" xmlns="http://www.w3.org/2000/svg" viewBox="0 0 998 179" width="998" height="179">
	<title>clouds</title>
	<style>
		.s0 { fill: #fefefe } 
		.s1 { fill: #f3b4b2 } 
		.s2 { fill: #fafafa } 
		.s3 { fill: #fdfdfd } 
		.s4 { fill: #fafbfb } 
		.s5 { fill: #fbfbfc } 
		.s6 { fill: #fbfbfb } 
		.s7 { fill: #fae2de } 
		.s8 { fill: #f8f8f9 } 
		.s9 { fill: #f9f9fa } 
		.s10 { fill: #f8e0dc } 
		.s11 { fill: #f9f9f9 } 
	</style>
	<g id="clouds">
		<path id="Layer" fill-rule="evenodd" class="s0" d="m998.5 51.5q0 63.5 0 127-500 0-1000 0 0-63 0-126 51.2 5.7 72 53 3.6-2.5 8-3.5 11-1 22 0.5 3-36.8 37-51.5 51-13.2 75 33.5 41.6-7 65 28 40.5-18.8 80 2 20.4-33.9 54-13 24.3-24.3 58-17 0.9-4.8 3.5-9 19.9-29.6 55.5-27.5 46.7 7.5 52 54.5 25.4-6.6 41.5 14 16.3-27.8 46.5-39.5 65.3-16.3 102 39.5 10.3-5.9 22-8.5 35.9-6.1 67.5 11.5 21.2-31.1 53-11 23.5-57.2 85.5-57z"/>
	</g>
	<g id="Layer">
		<path id="Layer" fill-rule="evenodd" class="s1" d="m970.5 7.5q2.5-0.3 4.5 1 1.5 3.4 1.5 7 15.4-0.2 3.5 9-0.5 4.5-1 9-0.8 0.8-2 1-4-1.7-7.5-4-13 6-7-7-9.8-11 5-11 2.2-2.2 3-5z"/>
	</g>
	<g id="Layer">
		<path id="Layer" fill-rule="evenodd" class="s2" d="m10.5 24.5q7.6-0.2 5.5 7-5.8 4.7-7.5-2.5 0-2.7 2-4.5z"/>
	</g>
	<g id="Layer">
		<path id="Layer" fill-rule="evenodd" class="s3" d="m455.5 27.5q2.5-0.3 4.5 1 2 5.4 3.5 11 19.9 6.7 0 13 1.6 22.3-13.5 6-19.8 7.2-8.5-10.5-14.4-17.2 8-13 2.8-4 6-7.5z"/>
	</g>
	<g id="Layer">
		<path id="Layer" fill-rule="evenodd" class="s1" d="m188.5 20.5q2-0.3 3.5 1 0.5 4.5 1 9 3.1 2.6 5.5 5.5-0.2 1.2-1 2-4 1.2-8 2.5-4 13.7-10 0.5-15.5 0.8-4-9.5-5.8-13.4 7.5-7 3.2-1.5 5.5-4z"/>
	</g>
	<g id="Layer">
		<path id="Layer" fill-rule="evenodd" class="s4" d="m491.5 30.5q10-0.8 5 7.5-8.6 0.6-5-7.5z"/>
	</g>
	<g id="Layer">
		<path id="Layer" fill-rule="evenodd" class="s5" d="m121.5 35.5q9.5-1.3 8.5 8-4.8 5.3-10.5 1-2.4-5.4 2-9z"/>
	</g>
	<g id="Layer">
		<path id="Layer" fill-rule="evenodd" class="s1" d="m680.5 32.5q4 2.4 6 7 4.3 1.1 8.5 2 1 1.5 0 3-2 2.6-3.5 5.5 1.1 4.2 1 8.5-4.8 0.4-9-2-13 10.1-9.5-6-5.4-2.2-5.5-8 4.2-0.1 8-2 1.2-4.5 4-8z"/>
	</g>
	<g id="Layer">
		<path id="Layer" fill-rule="evenodd" class="s3" d="m70.5 41.5q6 2.2 10 7.5 21.1-4.6 8 12.5 4.3 5.3 3.5 12-6.7 1.4-13.5 0.5-3.4 4.4-8.5 6.5-2.2-1.4-3-4-0.3-4.6-1.5-9-18.3-8 1-14 1.1-6.4 4-12z"/>
	</g>
	<g id="Layer">
		<path id="Layer" fill-rule="evenodd" class="s1" d="m374.5 51.5q5.3 0.8 7 6 4.4 1.5 9 1 0.2 2.1-0.5 4-2.8 2.3-4.5 5.5 5.6 12.7-7 6.5-4.5 3.3-10 3-0.2-3.8 1-7.5-2.4-2.9-5.5-5.5-0.7-1.9-0.5-4 3.9-0.9 8-1 0.7-4.3 3-8z"/>
	</g>
	<g id="Layer">
		<path id="Layer" fill-rule="evenodd" class="s3" d="m848.5 57.5q2.1-0.2 4 0.5 3.8 4.1 8 7.5 5.8-1.9 11.5 0-0.1 6.7-4.5 12 11.4 18.6-9 11-3.7 3-7 6.5-3.3 1.2-5.5-1.5-0.3-5.1-1.5-10-19.8-7.4 0-14 1.5-6.2 4-12z"/>
	</g>
	<g id="Layer">
		<path id="Layer" fill-rule="evenodd" class="s6" d="m724.5 59.5q11-0.4 6 9-6.9 2.8-8-4.5 0-2.7 2-4.5z"/>
	</g>
	<g id="Layer">
		<path id="Layer" fill-rule="evenodd" class="s7" d="m257.5 66.5q4.6-0.2 8 3 3.5-2.7 8-3-1.3 8.3 4 14.5-0.6 1.4-2 2-3.1 0.3-6 1.5-4.5 10-9 0-2.9-1.2-6-2-2.2-4.6 2.5-7 0.7-4.5 0.5-9z"/>
	</g>
	<g id="Layer">
		<path id="Layer" fill-rule="evenodd" class="s8" d="m314.5 66.5q8.4 0.7 7.5 9-5.6 6-11 0-1.5-5.9 3.5-9z"/>
	</g>
	<g id="Layer">
		<path id="Layer" fill-rule="evenodd" class="s5" d="m584.5 66.5q12.1 1.8 5 11.5-9.5 2-8.5-7.5 1.7-2.2 3.5-4z"/>
	</g>
	<g id="Layer">
		<path id="Layer" fill-rule="evenodd" class="s7" d="m773.5 64.5q1.6-0.2 3 0.5 2.4 8 11 7.5 0.2 1.6-0.5 3-2.8 2.3-4.5 5.5 2.8 12.1-7.5 4.5-4 2.1-8.5 3 0.2-5-0.5-10-4.1-2.4-3.5-7 4 0 8 0 0.8-3.8 3-7z"/>
	</g>
	<g id="Layer">
		<path id="Layer" fill-rule="evenodd" class="s9" d="m900.5 68.5q4.9-0.3 6 4.5-4.5 9-9 0 0.7-2.9 3-4.5z"/>
	</g>
	<g id="Layer">
		<path id="Layer" fill-rule="evenodd" class="s10" d="m611.5 72.5q4.5 0.9 8.5 3 3.9-2.2 8.5-2-3.2 7.1 2.5 12 0.7 1.9 0.5 4-4.1 0.4-8 2-4.5 9.8-9-0.5-3.5-1-7-1.5-0.2-2.5 0.5-5 3-1.2 4.5-4-1.3-3.9-1-8z"/>
	</g>
	<g id="Layer">
		<path id="Layer" fill-rule="evenodd" class="s11" d="m344.5 89.5q9.8-0.5 5 7.5-10.1 1.1-5-7.5z"/>
	</g>
</svg>