<svg xmlns="http://www.w3.org/2000/svg"
     width="169" height="13" viewBox="0 0 169 13" fill="none" >
    <g clip-path="url(#clip0_265_9767)" fill="#1b1d22">
        <path d="M16.334 12.7801V0.237793H17.476V12.7801H16.334Z" fill=""/>
        <path d="M29.0074 12.9983C26.8702 12.9983 25.2673 12.4624 24.1986 11.3907C23.13 10.319 22.5957 8.69119 22.5957 6.5073C22.5957 5.09548 22.8396 3.9073 23.3274 2.94276C23.793 2.00181 24.5607 1.23468 25.5139 0.757772C26.4828 0.264565 27.6798 0.0179597 29.105 0.0179597C29.9173 0.00684478 30.7274 0.102297 31.5136 0.301747C32.1639 0.464501 32.7753 0.749821 33.3133 1.14162C33.8034 1.51002 34.1928 1.99063 34.447 2.54086C34.7213 3.16194 34.8555 3.83324 34.8406 4.50932H33.5286C33.5464 3.95734 33.4311 3.40899 33.1922 2.90831C32.9786 2.48975 32.659 2.13124 32.2637 1.86667C31.8371 1.59087 31.3595 1.39865 30.8576 1.30074C30.2815 1.1813 29.6939 1.123 29.105 1.12686C28.3839 1.11865 27.6657 1.2154 26.9739 1.41392C26.3666 1.58931 25.8109 1.90306 25.3525 2.32926C24.8819 2.7811 24.5279 3.33543 24.3197 3.94667C24.0658 4.71399 23.9458 5.51748 23.9648 6.32358V6.70743C23.9648 7.95084 24.1644 8.95365 24.5636 9.71588C24.9264 10.441 25.5315 11.0242 26.2793 11.3694C27.1136 11.7295 28.0196 11.9043 28.9317 11.8812C30.0531 11.8812 30.9501 11.7319 31.6229 11.4334C32.2633 11.1612 32.7799 10.6707 33.0762 10.0538C33.3755 9.43264 33.5252 8.64635 33.5252 7.69493V7.38491H28.6693V6.28749H34.8372V12.7785H33.791L33.6228 11.0593C33.3242 11.5218 32.9157 11.9072 32.4319 12.183C31.9289 12.4732 31.3815 12.6831 30.8105 12.8047C30.2186 12.9338 29.6139 12.9987 29.0074 12.9983V12.9983Z" fill=""/>
        <path d="M41.0059 12.7801V0.237793H42.5196V12.7801H41.0059Z" fill=""/>
        <path d="M51.8874 12.7801V1.69937H47.4453V0.237793H58.0738V1.69937H53.6131V12.7801H51.8874Z" fill=""/>
        <path d="M60.4492 12.7801L65.5103 0.237793H68.0232L73.1045 12.7801H71.0037L69.8044 9.77988H63.6181L62.4407 12.7785L60.4492 12.7801ZM64.2555 8.17231H69.1669L67.6666 4.35023C67.6161 4.24032 67.5573 4.09104 67.4883 3.9024L67.2545 3.26266C67.1671 3.0248 67.0863 2.7853 67.0022 2.54089C66.9181 2.29647 66.834 2.07174 66.7667 1.86341H66.6541L66.3547 2.70492L66.0183 3.62846C65.9117 3.92701 65.8209 4.1676 65.7458 4.35023L64.2555 8.17231Z" fill=""/>
        <path d="M77.5859 12.7801V0.237793H79.7422V10.9511H86.1724V12.7801H77.5859Z" fill=""/>
        <path d="M90.8223 12.7802V0.237831H93.2225V5.35089H99.2776V0.23291H101.678V12.7752H99.2776V7.362H93.2225V12.7752L90.8223 12.7802Z" fill=""/>
        <path d="M113.115 12.9982C111.77 12.9982 110.604 12.7636 109.618 12.2944C108.645 11.8333 107.853 11.0762 107.359 10.1373C106.835 9.16843 106.572 7.95838 106.572 6.50719C106.572 5.03413 106.835 3.81861 107.359 2.86063C107.859 1.93208 108.65 1.18451 109.618 0.728138C110.599 0.25899 111.765 0.0244141 113.115 0.0244141C114.49 0.0244141 115.667 0.25899 116.647 0.728138C117.612 1.18632 118.4 1.93364 118.898 2.86063C119.423 3.81642 119.685 5.03194 119.685 6.50719C119.685 7.95947 119.423 9.16952 118.898 10.1373C118.406 11.0746 117.617 11.8314 116.647 12.2944C115.668 12.7636 114.491 12.9982 113.115 12.9982ZM113.115 10.8657C113.677 10.8756 114.236 10.7861 114.765 10.6016C115.223 10.4354 115.634 10.1655 115.964 9.8142C116.303 9.4448 116.555 9.00829 116.705 8.53469C116.883 7.96343 116.969 7.36842 116.959 6.77129V6.27917C116.968 5.67831 116.883 5.07962 116.705 4.50429C116.557 4.02774 116.304 3.58832 115.964 3.21659C115.634 2.86528 115.223 2.59543 114.765 2.42921C113.695 2.07705 112.536 2.07705 111.465 2.42921C111.009 2.5939 110.6 2.86408 110.274 3.21659C109.941 3.58949 109.694 4.02896 109.553 4.50429C109.381 5.08069 109.299 5.67898 109.309 6.27917V6.77129C109.298 7.36774 109.38 7.96233 109.553 8.53469C109.695 9.0071 109.942 9.44366 110.274 9.8142C110.6 10.1667 111.009 10.4369 111.465 10.6016C111.995 10.7842 112.554 10.8715 113.115 10.8591V10.8657Z" fill=""/>
        <path d="M130.249 12.9985C129.049 12.9985 128.021 12.8158 127.166 12.4506C126.344 12.1151 125.654 11.5323 125.196 10.7872C124.74 10.0447 124.512 9.11841 124.512 8.00842V0.218262H127.477V7.92805C127.477 8.79417 127.715 9.46782 128.19 9.94899C128.666 10.4302 129.347 10.6708 130.234 10.6708C131.131 10.6708 131.822 10.4302 132.306 9.94899C132.79 9.46782 133.031 8.79417 133.028 7.92805V0.218262H136.008V8.00842C136.008 9.11732 135.777 10.0436 135.313 10.7872C134.85 11.5306 134.159 12.1126 133.337 12.4506C132.479 12.8169 131.45 12.9995 130.249 12.9985Z" fill=""/>
        <path d="M146.727 12.9985C145.959 13.0032 145.193 12.9328 144.439 12.7885C143.776 12.6661 143.139 12.4342 142.555 12.1028C142.025 11.7996 141.583 11.3686 141.272 10.8512C140.942 10.267 140.78 9.60676 140.803 8.94019V8.77615C140.801 8.72685 140.808 8.67764 140.821 8.63015H144.066C144.065 8.67569 144.062 8.72115 144.056 8.76631C144.05 8.81201 144.046 8.85801 144.046 8.90409C144.029 9.24405 144.139 9.57837 144.355 9.84568C144.587 10.0982 144.891 10.2766 145.228 10.3575C145.656 10.4704 146.097 10.5256 146.54 10.5215C146.797 10.5221 147.053 10.5095 147.309 10.4838C147.525 10.4633 147.739 10.4204 147.946 10.3558C148.124 10.3018 148.294 10.2251 148.451 10.1278C148.584 10.0467 148.694 9.9338 148.77 9.79974C148.841 9.66063 148.876 9.50705 148.873 9.35192C148.875 9.21891 148.846 9.08724 148.787 8.96698C148.729 8.84672 148.643 8.74104 148.537 8.65804C148.275 8.452 147.976 8.29665 147.655 8.20037C147.286 8.07899 146.871 7.96307 146.409 7.85261C145.946 7.74271 145.465 7.62788 144.966 7.50486C144.474 7.38603 143.991 7.23364 143.521 7.04883C143.074 6.87438 142.655 6.64031 142.275 6.35331C141.904 6.0712 141.603 5.71196 141.393 5.30183C141 4.54219 140.915 3.66611 141.155 2.84808C141.395 2.03004 141.942 1.33007 142.687 0.887569C143.228 0.56911 143.82 0.343302 144.439 0.219933C145.136 0.0759869 145.846 0.00559214 146.559 0.00996501C147.256 0.00541925 147.951 0.078616 148.631 0.228133C149.238 0.361022 149.817 0.59284 150.345 0.913815C150.848 1.2105 151.262 1.63134 151.545 2.1339C151.828 2.63646 151.971 3.20296 151.958 3.77628V3.99444H148.733V3.8665C148.738 3.60199 148.656 3.343 148.5 3.12668C148.319 2.89564 148.075 2.7184 147.797 2.61489C147.426 2.47702 147.031 2.4118 146.634 2.42297C146.238 2.41472 145.842 2.45774 145.457 2.55091C145.186 2.61194 144.934 2.73762 144.725 2.91671C144.645 2.98857 144.581 3.07607 144.538 3.17356C144.494 3.27105 144.472 3.37635 144.473 3.48264C144.472 3.61015 144.502 3.7361 144.56 3.85016C144.619 3.96421 144.704 4.06312 144.809 4.13879C145.077 4.33446 145.379 4.48272 145.699 4.57678C146.075 4.69817 146.494 4.81081 146.956 4.9147C147.418 5.01968 147.896 5.12795 148.39 5.24278C148.877 5.35753 149.356 5.50385 149.823 5.68076C150.272 5.85041 150.694 6.0783 151.08 6.35823C151.45 6.62756 151.755 6.97383 151.971 7.37198C152.205 7.82546 152.32 8.32794 152.308 8.8352C152.308 9.83364 152.067 10.638 151.586 11.2482C151.076 11.8776 150.383 12.3428 149.598 12.5835C148.671 12.8754 147.701 13.0156 146.727 12.9985Z" fill=""/>
        <path d="M157.113 12.7803V0.200195H168.119V3.0889H161.014V5.00978H167.37V7.78858H161.014V9.89155H168.246V12.7803H157.113Z" fill=""/>
        <path d="M6.14872 12.7652H0.25V0.239258H6.14872C7.49773 0.240561 8.79111 0.763777 9.74501 1.69408C10.6989 2.62438 11.2354 3.88577 11.2367 5.20141V7.81125C11.2332 9.12547 10.6957 10.3848 9.74204 11.3133C8.78838 12.2418 7.49628 12.7639 6.14872 12.7652V12.7652ZM1.27097 11.7711H6.14872C7.22595 11.7698 8.2588 11.3525 9.0213 10.6104C9.78381 9.86826 10.2139 8.86182 10.2174 7.81125V5.20141C10.2161 4.14941 9.78701 3.14086 9.02427 2.39699C8.26153 1.65311 7.2274 1.23463 6.14872 1.23333H1.27097V11.7711Z" fill=""/>
    </g>
    <defs>
        <clipPath id="clip0_265_9767">
            <rect width="168" height="13" transform="translate(0.25)"/>
        </clipPath>
    </defs>
</svg>
