<svg width="24px" height="24px" viewBox="0 0 24 24" fill="none" xmlns="http://www.w3.org/2000/svg">
<path d="M2.88539 8.84875C3.55805 6.13983 5.70602 4.04534 8.43056 3.44162L8.88443 3.34105C10.9366 2.88632 13.0634 2.88632 15.1156 3.34105L15.5694 3.44162C18.294 4.04534 20.442 6.13984 21.1146 8.84875C21.6285 10.9182 21.6285 13.0819 21.1146 15.1512C20.442 17.8602 18.294 19.9547 15.5694 20.5584L15.1156 20.659C13.0634 21.1137 10.9366 21.1137 8.88443 20.659L8.43056 20.5584C5.70601 19.9547 3.55805 17.8602 2.88539 15.1513C2.37154 13.0819 2.37154 10.9181 2.88539 8.84875Z" fill="#363853" fill-opacity="0.15" stroke="#363853" stroke-width="1.5"/>
<path fill-rule="evenodd" clip-rule="evenodd" d="M12.0002 7C12.3826 7 12.6926 7.29199 12.6926 7.65217V8.18573H12.7692C14.0567 8.18573 15 9.24015 15 10.4189C15 10.7791 14.69 11.0711 14.3077 11.0711C13.9253 11.0711 13.6154 10.7791 13.6154 10.4189C13.6154 9.85137 13.1811 9.49008 12.7692 9.49008H12.6926V11.5432L13.6273 11.8634C14.4767 12.1544 15 12.9457 15 13.7838C15 14.8506 14.1451 15.8142 12.9666 15.8142H12.6926V16.3478C12.6926 16.708 12.3826 17 12.0002 17C11.6179 17 11.3079 16.708 11.3079 16.3478V15.8142H11.2308C9.94328 15.8142 9 14.7598 9 13.581C9 13.2208 9.30996 12.9288 9.69231 12.9288C10.0747 12.9288 10.3846 13.2208 10.3846 13.581C10.3846 14.1486 10.8189 14.5098 11.2308 14.5098H11.3079V12.4568L10.3727 12.1365C9.5233 11.8455 9 11.0542 9 10.2161C9 9.14934 9.85491 8.18573 11.0334 8.18573H11.3079V7.65217C11.3079 7.29199 11.6179 7 12.0002 7ZM11.3079 9.49008H11.0334C10.7306 9.49008 10.3846 9.76055 10.3846 10.2161C10.3846 10.5645 10.6001 10.8265 10.8459 10.9107L11.3079 11.0689V9.49008ZM12.6926 12.9312V14.5098H12.9666C13.2694 14.5098 13.6154 14.2394 13.6154 13.7838C13.6154 13.4355 13.3999 13.1735 13.1541 13.0893L12.6926 12.9312Z" fill="#363853"/>
</svg>
