<svg xmlns="http://www.w3.org/2000/svg"
    height="45" width="45" viewBox="0 0 45 45" >
  <path d="M 24 41.95 L 21.95 40.1 C 18.417 36.867 15.5 34.075 13.2 31.725 C 10.9 29.375 9.067 27.275 7.7 25.425 C 6.333 23.575 5.375 21.9 4.825 20.4 C 4.275 18.9 4 17.383 4 15.85 C 4 12.85 5.008 10.342 7.025 8.325 C 9.042 6.308 11.533 5.3 14.5 5.3 C 16.4 5.3 18.158 5.75 19.775 6.65 C 21.392 7.55 22.8 8.85 24 10.55 C 25.4 8.75 26.883 7.425 28.45 6.575 C 30.017 5.725 31.7 5.3 33.5 5.3 C 36.467 5.3 38.958 6.308 40.975 8.325 C 42.992 10.342 44 12.85 44 15.85 C 44 17.383 43.725 18.9 43.175 20.4 C 42.625 21.9 41.667 23.575 40.3 25.425 C 38.933 27.275 37.1 29.375 34.8 31.725 C 32.5 34.075 29.583 36.867 26.05 40.1 L 24 41.95 Z M 24 38 C 27.367 34.9 30.142 32.242 32.325 30.025 C 34.508 27.808 36.242 25.867 37.525 24.2 C 38.808 22.533 39.708 21.05 40.225 19.75 C 40.742 18.45 41 17.15 41 15.85 C 41 13.65 40.3 11.842 38.9 10.425 C 37.5 9.008 35.7 8.3 33.5 8.3 C 31.8 8.3 32.345 6.449 30.878 7.499 C 29.411 8.549 39.562 6.362 38.662 8.262 L 42.794 16.181 C 41.927 14.314 38.187 28.685 36.72 27.618 C 35.253 26.551 35.106 30.076 33.406 30.076 C 31.206 30.076 32.227 31.577 30.827 32.994 C 29.427 34.411 24.223 37.109 24.223 39.309 C 24.223 40.609 7.11 20.685 7.627 22.002 C 8.144 23.319 9.192 22.592 10.475 24.275 C 11.758 25.958 13.5 27.9 15.7 30.1 C 17.9 32.3 20.667 34.933 24 38 Z M 24 23.15 Z" fill="#900" />
  <path d="m24 41.95-2.05-1.85q-5.3-4.85-8.75-8.375-3.45-3.525-5.5-6.3T4.825 20.4Q4 18.15 4 15.85q0-4.5 3.025-7.525Q10.05 5.3 14.5 5.3q2.85 0 5.275 1.35Q22.2 8 24 10.55q2.1-2.7 4.45-3.975T33.5 5.3q4.45 0 7.475 3.025Q44 11.35 44 15.85q0 2.3-.825 4.55T40.3 25.425q-2.05 2.775-5.5 6.3T26.05 40.1ZM24 38q5.05-4.65 8.325-7.975 3.275-3.325 5.2-5.825 1.925-2.5 2.7-4.45.775-1.95.775-3.9 0-3.3-2.1-5.425T33.5 8.3q-2.55 0-4.75 1.575T25.2 14.3h-2.45q-1.3-2.8-3.5-4.4-2.2-1.6-4.75-1.6-3.3 0-5.4 2.125Q7 12.55 7 15.85q0 1.95.775 3.925.775 1.975 2.7 4.5Q12.4 26.8 15.7 30.1 19 33.4 24 38Zm0-14.85Z" fill="#f00" />
</svg>