<?xml version="1.0" encoding="UTF-8"?>
<!DOCTYPE svg PUBLIC "-//W3C//DTD SVG 1.1//EN" "http://www.w3.org/Graphics/SVG/1.1/DTD/svg11.dtd">
<svg xmlns="http://www.w3.org/2000/svg" version="1.1" width="6648px" height="2909px" style="shape-rendering:geometricPrecision; text-rendering:geometricPrecision; image-rendering:optimizeQuality; fill-rule:evenodd; clip-rule:evenodd" xmlns:xlink="http://www.w3.org/1999/xlink">
<g><path style="opacity:0.998" fill="#fefefe" d="M 3867.5,-0.5 C 3872.17,-0.5 3876.83,-0.5 3881.5,-0.5C 3920.36,6.37541 3959.03,14.8754 3997.5,25C 4007.23,27.6868 4016.56,31.3535 4025.5,36C 4041.5,47.3333 4057.5,58.6667 4073.5,70C 4084.03,83.5667 4094.2,97.4001 4104,111.5C 4110.07,135.949 4115.9,160.449 4121.5,185C 4120.38,194.56 4118.88,204.06 4117,213.5C 4110.33,241.5 4103.67,269.5 4097,297.5C 4091.68,317.449 4084.02,336.449 4074,354.5C 4065.11,369.114 4055.61,383.281 4045.5,397C 4090.22,458.485 4129.38,523.652 4163,592.5C 4172.22,546.377 4182.72,500.544 4194.5,455C 4195.09,452.21 4196.26,449.71 4198,447.5C 4206.58,436.009 4214.91,424.343 4223,412.5C 4237.22,401.282 4251.72,390.448 4266.5,380C 4295.09,372.686 4323.75,365.686 4352.5,359C 4412.65,347.317 4473.31,339.65 4534.5,336C 4663.42,325.421 4792.08,327.754 4920.5,343C 4943.84,348.668 4967.17,354.335 4990.5,360C 5004.6,369.8 5018.43,379.967 5032,390.5C 5041.09,403.676 5050.42,416.676 5060,429.5C 5067.24,443.889 5072.91,458.889 5077,474.5C 5085.95,509.629 5093.95,544.962 5101,580.5C 5104.73,618.784 5102.73,656.784 5095,694.5C 5087.27,728.751 5078.6,762.751 5069,796.5C 5058.61,812.229 5047.44,827.396 5035.5,842C 5022.09,851.754 5008.42,861.087 4994.5,870C 4971.61,875.264 4948.78,880.764 4926,886.5C 4916.54,883.757 4907.04,881.59 4897.5,880C 4900.24,888.926 4901.74,898.093 4902,907.5C 4902.9,926.712 4902.4,945.878 4900.5,965C 4900.75,966.326 4901.42,967.326 4902.5,968C 4925.84,973.668 4949.17,979.335 4972.5,985C 4985.32,994.579 4998.32,1003.91 5011.5,1013C 5013.33,1014.83 5015.17,1016.67 5017,1018.5C 5029.67,1035.83 5042.33,1053.17 5055,1070.5C 5071.36,1095.22 5083.69,1121.89 5092,1150.5C 5100.47,1184.05 5108.47,1217.72 5116,1251.5C 5120.14,1274.79 5120.47,1298.12 5117,1321.5C 5111.29,1347.67 5104.96,1373.67 5098,1399.5C 5087.8,1412.73 5077.97,1426.23 5068.5,1440C 5055.22,1448.95 5042.22,1458.28 5029.5,1468C 4972.79,1501.69 4912.46,1527.02 4848.5,1544C 4798.12,1556.93 4747.45,1568.6 4696.5,1579C 4564.82,1602.16 4433.15,1602.16 4301.5,1579C 4279.2,1573.51 4256.87,1568.18 4234.5,1563C 4231.96,1561.23 4229.29,1559.73 4226.5,1558.5C 4187.5,1569.92 4148.17,1580.08 4108.5,1589C 4079.19,1595.9 4049.53,1599.9 4019.5,1601C 3997.14,1595.79 3974.8,1590.46 3952.5,1585C 3936.24,1574.95 3920.74,1563.78 3906,1551.5C 3897.39,1538.56 3888.39,1525.89 3879,1513.5C 3873.33,1490.17 3867.67,1466.83 3862,1443.5C 3858.71,1420.65 3854.55,1397.99 3849.5,1375.5C 3835.11,1378.28 3820.94,1381.61 3807,1385.5C 3801.98,1407.58 3796.65,1429.58 3791,1451.5C 3776.61,1473.22 3761.44,1494.39 3745.5,1515C 3732.32,1524.09 3719.32,1533.42 3706.5,1543C 3682.61,1548.76 3658.78,1554.6 3635,1560.5C 3619.79,1556.46 3604.45,1552.79 3589,1549.5C 3532.03,1555.62 3475.53,1552.79 3419.5,1541C 3396.98,1535.58 3374.48,1530.08 3352,1524.5C 3316.72,1534.49 3280.89,1541.66 3244.5,1546C 3196.55,1549.78 3148.55,1550.44 3100.5,1548C 3083.74,1546.73 3067.08,1544.73 3050.5,1542C 3028.2,1536.54 3005.86,1531.21 2983.5,1526C 2968.97,1515.97 2954.3,1506.13 2939.5,1496.5C 2915.93,1502.45 2892.27,1507.95 2868.5,1513C 2788.15,1520.91 2708.65,1515.74 2630,1497.5C 2627.85,1497.64 2626.18,1498.64 2625,1500.5C 2617.55,1511.61 2609.72,1522.45 2601.5,1533C 2588.32,1542.09 2575.32,1551.42 2562.5,1561C 2529.74,1569.48 2496.74,1576.82 2463.5,1583C 2392.56,1593.33 2321.56,1594 2250.5,1585C 2226.8,1579.49 2203.13,1573.82 2179.5,1568C 2172.91,1563.12 2166.07,1558.62 2159,1554.5C 2145.36,1559.6 2131.53,1564.1 2117.5,1568C 2085.5,1575.67 2053.5,1583.33 2021.5,1591C 1996.41,1596.23 1971.07,1599.73 1945.5,1601.5C 1920.7,1596.24 1896.04,1590.41 1871.5,1584C 1856.72,1573.55 1842.22,1562.72 1828,1551.5C 1819.39,1538.56 1810.39,1525.89 1801,1513.5C 1795.33,1490.17 1789.67,1466.83 1784,1443.5C 1780.71,1420.65 1776.55,1397.99 1771.5,1375.5C 1752.63,1379.44 1733.8,1383.44 1715,1387.5C 1709.21,1410.12 1703.54,1432.79 1698,1455.5C 1688.42,1468.32 1679.09,1481.32 1670,1494.5C 1656.43,1505.03 1642.6,1515.2 1628.5,1525C 1594.44,1533.94 1560.11,1541.61 1525.5,1548C 1466.89,1555.29 1408.56,1553.62 1350.5,1543C 1329.08,1538.15 1307.75,1532.98 1286.5,1527.5C 1241.45,1540.67 1195.45,1547.84 1148.5,1549C 1107.76,1550.36 1067.1,1549.36 1026.5,1546C 993.138,1540.79 960.138,1533.79 927.5,1525C 914.246,1515.13 900.746,1505.63 887,1496.5C 863.619,1502.51 840.119,1508.01 816.5,1513C 735.983,1520.9 656.316,1515.73 577.5,1497.5C 575.617,1497.88 574.117,1498.88 573,1500.5C 565.554,1511.61 557.721,1522.45 549.5,1533C 536.324,1542.09 523.324,1551.42 510.5,1561C 488.5,1566.33 466.5,1571.67 444.5,1577C 373.378,1590.49 301.711,1594.49 229.5,1589C 215.996,1588.12 202.662,1586.12 189.5,1583C 167.306,1577.95 145.306,1572.29 123.5,1566C 110.5,1556.5 97.5,1547 84.5,1537.5C 74.4729,1523.97 64.6396,1510.31 55,1496.5C 37.1669,1429.17 24.8336,1360.84 18,1291.5C 7.50621,1188.27 1.33954,1084.93 -0.5,981.5C -0.5,938.833 -0.5,896.167 -0.5,853.5C 0.966645,774.784 5.79998,696.117 14,617.5C 20.2279,564.361 30.5612,512.027 45,460.5C 54.5785,447.676 63.9119,434.676 73,421.5C 86.5667,410.967 100.4,400.8 114.5,391C 132.116,381.905 150.449,374.572 169.5,369C 221.97,354.632 274.97,342.632 328.5,333C 369.678,327.801 411.011,326.134 452.5,328C 465.294,328.718 477.961,330.384 490.5,333C 513.581,338.415 536.581,344.082 559.5,350C 572.324,359.579 585.324,368.912 598.5,378C 609.033,391.567 619.2,405.4 629,419.5C 641.076,442.319 652.076,465.653 662,489.5C 676.872,526.454 691.538,563.454 706,600.5C 736.236,524.463 769.569,449.796 806,376.5C 815.833,362.833 825.667,349.167 835.5,335.5C 849.482,324.842 863.815,314.675 878.5,305C 918.132,294.092 958.132,284.759 998.5,277C 1072.69,267.444 1146.69,268.777 1220.5,281C 1251.95,287.823 1283.28,295.157 1314.5,303C 1329.28,313.448 1343.78,324.282 1358,335.5C 1366.61,348.445 1375.61,361.111 1385,373.5C 1386.37,378.984 1388.03,384.317 1390,389.5C 1396.45,380.051 1403.28,370.884 1410.5,362C 1423.68,352.912 1436.68,343.579 1449.5,334C 1471.79,322.571 1495.12,313.904 1519.5,308C 1553.73,299.527 1588.06,291.527 1622.5,284C 1660.89,276.804 1699.55,274.471 1738.5,277C 1759.63,279.066 1780.63,282.066 1801.5,286C 1825.13,291.824 1848.8,297.491 1872.5,303C 1885.32,312.579 1898.32,321.912 1911.5,331C 1926.11,345.274 1939.61,360.441 1952,376.5C 1985.98,421.105 2016.98,467.772 2045,516.5C 2054.33,533.833 2063.67,551.167 2073,568.5C 2079.89,532.59 2087.89,496.924 2097,461.5C 2106.83,447.833 2116.67,434.167 2126.5,420.5C 2140.36,410.14 2154.36,399.973 2168.5,390C 2191.22,378.81 2214.89,370.143 2239.5,364C 2279.95,353.72 2320.62,344.386 2361.5,336C 2413.21,327.541 2465.21,325.207 2517.5,329C 2548.42,334.397 2579.09,341.064 2609.5,349C 2624.89,359.06 2639.73,369.894 2654,381.5C 2663.09,394.676 2672.42,407.676 2682,420.5C 2710.65,479.45 2735.98,539.784 2758,601.5C 2788.31,525.203 2821.65,450.203 2858,376.5C 2867.58,363.676 2876.91,350.676 2886,337.5C 2899.88,326.614 2914.05,316.114 2928.5,306C 2968.7,294.449 3009.37,284.783 3050.5,277C 3129.88,266.635 3208.88,268.969 3287.5,284C 3309.8,289.493 3332.13,294.493 3354.5,299C 3362.25,266.845 3370.08,234.679 3378,202.5C 3383.17,184.833 3390.5,168.167 3400,152.5C 3412.33,135.167 3424.67,117.833 3437,100.5C 3447.23,87.6341 3459.07,76.4675 3472.5,67C 3487.83,56.3333 3503.17,45.6667 3518.5,35C 3529.57,29.0871 3541.24,24.7538 3553.5,22C 3577.5,16.3333 3601.5,10.6667 3625.5,5C 3640.57,2.74079 3655.57,3.07412 3670.5,6C 3695.53,11.8726 3720.53,17.8726 3745.5,24C 3754.32,26.9942 3762.49,31.1609 3770,36.5C 3780.16,29.6817 3790.32,22.8484 3800.5,16C 3823.07,10.9402 3845.4,5.44022 3867.5,-0.5 Z"/></g>
<g><path style="opacity:1" fill="#f190a3" d="M 3869.5,158.5 C 3900.06,158.911 3929.06,165.744 3956.5,179C 3959.85,180.503 3961.85,183.003 3962.5,186.5C 3955.73,253.568 3926.39,308.068 3874.5,350C 3845.15,371.895 3812.15,381.895 3775.5,380C 3749.4,375.869 3727.56,364.035 3710,344.5C 3696.98,325.14 3681.48,307.973 3663.5,293C 3632.35,270.574 3606.51,275.407 3586,307.5C 3574.2,327.427 3566.04,348.76 3561.5,371.5C 3543.15,369.663 3525.48,365.163 3508.5,358C 3507.44,313.506 3516.94,271.339 3537,231.5C 3554.39,199.103 3580.56,177.269 3615.5,166C 3640.16,158.725 3664.16,160.391 3687.5,171C 3691.17,173.333 3694.83,175.667 3698.5,178C 3710.83,191.667 3723.83,204.667 3737.5,217C 3750.99,229.245 3765.99,239.245 3782.5,247C 3821.47,258.765 3847.3,245.265 3860,206.5C 3865.08,190.852 3868.25,174.852 3869.5,158.5 Z"/></g>
<g><path style="opacity:1" fill="#f190a3" d="M 1059.5,429.5 C 1105.36,427.903 1151.03,430.07 1196.5,436C 1212.31,438.247 1227.98,441.247 1243.5,445C 1248.01,462.89 1251.18,481.057 1253,499.5C 1259.24,562.028 1263.57,624.694 1266,687.5C 1271.08,885.862 1270.08,1084.2 1263,1282.5C 1261.39,1313.56 1259.06,1344.56 1256,1375.5C 1252.57,1376.8 1249.07,1377.96 1245.5,1379C 1187.63,1389.46 1129.3,1393.46 1070.5,1391C 1047.02,1389.62 1023.69,1387.12 1000.5,1383.5C 999.334,1364.84 999.167,1346.18 1000,1327.5C 1003.5,1264.46 1007.5,1201.46 1012,1138.5C 1015.98,1075.1 1015.31,1011.77 1010,948.5C 1005.08,904.111 999.743,859.777 994,815.5C 976.719,856.405 961.386,898.072 948,940.5C 905.932,1072.11 873.932,1206.11 852,1342.5C 839.619,1349.07 826.452,1353.24 812.5,1355C 738.824,1361.74 665.824,1357.57 593.5,1342.5C 583.52,1304.39 572.02,1266.73 559,1229.5C 517.288,1118.7 476.955,1007.37 438,895.5C 430.667,872.833 423.333,850.167 416,827.5C 407.3,884.862 401.3,942.528 398,1000.5C 396.131,1111.92 404.464,1222.59 423,1332.5C 427.844,1361.58 433.01,1390.58 438.5,1419.5C 358.193,1434.07 277.526,1436.4 196.5,1426.5C 185.572,1365.89 177.405,1304.89 172,1243.5C 157.301,1066.69 154.634,889.685 164,712.5C 167.513,658.88 173.513,605.547 182,552.5C 183.183,545.751 184.683,539.084 186.5,532.5C 204.374,523.15 223.041,515.65 242.5,510C 316.106,488.79 391.106,481.457 467.5,488C 474.214,488.935 480.881,490.102 487.5,491.5C 506.845,528.857 524.012,567.19 539,606.5C 595.207,757.584 652.541,908.25 711,1058.5C 720.774,1021.17 731.774,984.174 744,947.5C 795.685,797.474 854.019,650.141 919,505.5C 928.061,486.377 937.395,467.377 947,448.5C 950.202,446.428 953.702,444.928 957.5,444C 991.179,436.02 1025.18,431.187 1059.5,429.5 Z"/></g>
<g><path style="opacity:1" fill="#f190a3" d="M 3107.5,429.5 C 3171.17,426.635 3234.17,431.635 3296.5,444.5C 3304.67,490.49 3310.17,536.823 3313,583.5C 3321.1,737.729 3323.77,892.063 3321,1046.5C 3320.69,1133.22 3318.35,1219.89 3314,1306.5C 3312.49,1329.57 3310.49,1352.57 3308,1375.5C 3290.55,1380.66 3272.72,1384.16 3254.5,1386C 3186.82,1394.15 3119.32,1393.32 3052,1383.5C 3051.67,1348.47 3052.67,1313.47 3055,1278.5C 3059.04,1220.2 3062.71,1161.86 3066,1103.5C 3067.87,1047.38 3066.2,991.38 3061,935.5C 3056.48,895.763 3051.48,856.096 3046,816.5C 3028.17,858.321 3012.5,900.988 2999,944.5C 2957.44,1074.75 2925.94,1207.42 2904.5,1342.5C 2891.36,1349.38 2877.36,1353.54 2862.5,1355C 2789.17,1361.79 2716.51,1357.62 2644.5,1342.5C 2636.18,1305.9 2625.68,1269.9 2613,1234.5C 2571.29,1123.7 2530.96,1012.37 2492,900.5C 2483.6,875.957 2475.6,851.291 2468,826.5C 2459.88,885.944 2453.88,945.611 2450,1005.5C 2448.82,1091.85 2453.82,1177.85 2465,1263.5C 2472.53,1315.67 2481.03,1367.67 2490.5,1419.5C 2413.6,1433.45 2336.27,1436.28 2258.5,1428C 2255.15,1427.75 2251.98,1426.92 2249,1425.5C 2231.41,1327.59 2220.41,1228.92 2216,1129.5C 2209.18,998.179 2208.85,866.845 2215,735.5C 2217.78,676.489 2223.78,617.822 2233,559.5C 2234.87,550.471 2236.87,541.471 2239,532.5C 2255.71,523.564 2273.21,516.397 2291.5,511C 2367.02,488.845 2444.02,481.179 2522.5,488C 2528.38,489.175 2534.21,490.342 2540,491.5C 2560.18,531.195 2578.18,571.862 2594,613.5C 2649.2,761.901 2705.53,909.901 2763,1057.5C 2774.76,1014.89 2787.76,972.556 2802,930.5C 2845.02,807.432 2892.35,686.099 2944,566.5C 2961.36,525.955 2980.19,486.122 3000.5,447C 3025.97,439.314 3051.97,434.314 3078.5,432C 3088.33,431.298 3098,430.465 3107.5,429.5 Z"/></g>
<g><path style="opacity:1" fill="#f190a3" d="M 1690.5,434.5 C 1727.9,433.8 1764.9,437.3 1801.5,445C 1829.11,473.594 1853.27,504.761 1874,538.5C 1911.18,599.189 1944.52,662.189 1974,727.5C 2059.86,918.582 2130.53,1115.25 2186,1317.5C 2189,1329.5 2191.67,1341.5 2194,1353.5C 2163.15,1379.02 2128.65,1398.52 2090.5,1412C 2042.67,1429.53 1993.34,1439.7 1942.5,1442.5C 1938.73,1415.56 1933.57,1388.89 1927,1362.5C 1913.62,1303.38 1899.12,1244.55 1883.5,1186C 1778.63,1219.01 1671.29,1240.17 1561.5,1249.5C 1559.55,1294.15 1557.88,1338.82 1556.5,1383.5C 1533.15,1388.88 1509.48,1392.04 1485.5,1393C 1444.28,1395.03 1403.28,1393.03 1362.5,1387C 1349.46,1384.74 1336.79,1381.24 1324.5,1376.5C 1323.34,1370.53 1323.17,1364.53 1324,1358.5C 1334.92,1246.46 1350.92,1135.12 1372,1024.5C 1393.49,908.538 1419.16,793.538 1449,679.5C 1460.71,635.714 1474.04,592.38 1489,549.5C 1498.07,523.861 1508.9,499.028 1521.5,475C 1563.07,455.356 1606.74,443.023 1652.5,438C 1665.28,436.434 1677.95,435.267 1690.5,434.5 Z"/></g>
<g><path style="opacity:1" fill="#f190a3" d="M 3635.5,1368.5 C 3634.51,1373.31 3634.18,1378.31 3634.5,1383.5C 3590.31,1392.47 3545.65,1395.64 3500.5,1393C 3466.89,1392.71 3434.23,1387.21 3402.5,1376.5C 3401.34,1370.53 3401.17,1364.53 3402,1358.5C 3413.42,1241.04 3430.42,1124.37 3453,1008.5C 3477.69,876.407 3508.36,745.74 3545,616.5C 3554.54,585.88 3564.87,555.547 3576,525.5C 3582.71,508.376 3590.37,491.709 3599,475.5C 3636.23,457.399 3675.4,445.566 3716.5,440C 3771.14,431.405 3825.48,433.071 3879.5,445C 3904,470.485 3925.83,497.985 3945,527.5C 3993.97,607.107 4036.97,690.107 4074,776.5C 4154.89,963.155 4221.05,1154.99 4272.5,1352C 4259.97,1364.18 4245.97,1374.52 4230.5,1383C 4165.05,1418.7 4095.05,1438.53 4020.5,1442.5C 4016.73,1415.56 4011.57,1388.89 4005,1362.5C 3991.62,1303.38 3977.12,1244.55 3961.5,1186C 3856.63,1219.01 3749.29,1240.17 3639.5,1249.5C 3637.53,1289.14 3636.2,1328.81 3635.5,1368.5 Z"/></g>
<g><path style="opacity:1" fill="#f190a3" d="M 4652.5,488.5 C 4741.82,486.739 4830.82,491.073 4919.5,501.5C 4942.22,551.535 4949.72,603.868 4942,658.5C 4940.06,680.977 4935.23,702.81 4927.5,724C 4927.28,725.621 4926.44,726.788 4925,727.5C 4877.25,714.083 4828.75,704.249 4779.5,698C 4728.86,691.575 4678.03,687.742 4627,686.5C 4589.48,688.562 4551.98,690.896 4514.5,693.5C 4503.67,739.841 4497.67,786.841 4496.5,834.5C 4496.32,850.256 4497.32,865.923 4499.5,881.5C 4526.5,877.97 4553.5,874.47 4580.5,871C 4633.54,867.65 4686.21,870.65 4738.5,880C 4740.91,886.596 4742.41,893.43 4743,900.5C 4743.67,918.833 4743.67,937.167 4743,955.5C 4739.68,983.246 4735.85,1010.91 4731.5,1038.5C 4652.77,1035.46 4575.43,1044.13 4499.5,1064.5C 4498.63,1113.47 4503.63,1161.8 4514.5,1209.5C 4647.31,1204.51 4775.31,1177.01 4898.5,1127C 4899.5,1126.33 4900.5,1126.33 4901.5,1127C 4943.22,1179.82 4962.72,1239.98 4960,1307.5C 4959.37,1314.27 4958.21,1320.94 4956.5,1327.5C 4892.25,1364.75 4823.92,1391.92 4751.5,1409C 4603.05,1442.5 4453.89,1446.34 4304,1420.5C 4298.64,1382.34 4294.97,1344.01 4293,1305.5C 4285.74,1137.74 4287.4,970.078 4298,802.5C 4302.86,731.137 4310.86,660.137 4322,589.5C 4326.46,567.051 4331.46,544.718 4337,522.5C 4350.85,518 4365.02,514.5 4379.5,512C 4470.16,498.584 4561.16,490.751 4652.5,488.5 Z"/></g>
<g><path style="opacity:1" fill="#fefefe" d="M 1674.5,656.5 C 1677.56,660.258 1680.39,664.258 1683,668.5C 1742.95,773.843 1791.79,884.177 1829.5,999.5C 1747.82,1029.17 1665.16,1055.84 1581.5,1079.5C 1580.53,1068.17 1580.69,1056.83 1582,1045.5C 1593.6,947.249 1612.93,850.582 1640,755.5C 1650.39,722.064 1661.89,689.064 1674.5,656.5 Z"/></g>
<g><path style="opacity:1" fill="#fefefe" d="M 3752.5,656.5 C 3755.56,660.258 3758.39,664.258 3761,668.5C 3820.95,773.843 3869.79,884.177 3907.5,999.5C 3825.82,1029.17 3743.16,1055.84 3659.5,1079.5C 3658.53,1068.17 3658.69,1056.83 3660,1045.5C 3671.6,947.249 3690.93,850.582 3718,755.5C 3728.39,722.064 3739.89,689.064 3752.5,656.5 Z"/></g>
<g><path style="opacity:0.998" fill="#fefefe" d="M 6647.5,2587.5 C 6647.5,2597.83 6647.5,2608.17 6647.5,2618.5C 6641.78,2648.93 6634.94,2679.26 6627,2709.5C 6617.33,2723.17 6607.67,2736.83 6598,2750.5C 6555.76,2783.72 6509.26,2809.88 6458.5,2829C 6438.45,2836.79 6418.12,2843.79 6397.5,2850C 6332.51,2868 6266.85,2883 6200.5,2895C 6148.94,2902.55 6097.27,2907.05 6045.5,2908.5C 6028.83,2908.5 6012.17,2908.5 5995.5,2908.5C 5953.47,2906.94 5911.47,2903.27 5869.5,2897.5C 5857.58,2899.77 5845.75,2902.44 5834,2905.5C 5810.16,2899.67 5786.33,2893.83 5762.5,2888C 5741.19,2874.03 5721.03,2858.53 5702,2841.5C 5692.33,2827.83 5682.67,2814.17 5673,2800.5C 5671.02,2793.91 5669.35,2787.25 5668,2780.5C 5667.59,2780.04 5667.09,2779.71 5666.5,2779.5C 5623.21,2804.14 5577.55,2823.3 5529.5,2837C 5482.72,2849.22 5435.72,2860.56 5388.5,2871C 5273.97,2891.91 5158.64,2897.91 5042.5,2889C 5018.83,2883.33 4995.17,2877.67 4971.5,2872C 4957.83,2862.33 4944.17,2852.67 4930.5,2843C 4928.3,2839.81 4925.8,2836.97 4923,2834.5C 4900.82,2842.67 4878.32,2849.84 4855.5,2856C 4808.73,2868.02 4761.73,2879.02 4714.5,2889C 4651.52,2900.46 4588.19,2906.96 4524.5,2908.5C 4507.83,2908.5 4491.17,2908.5 4474.5,2908.5C 4418.91,2906.57 4363.58,2900.74 4308.5,2891C 4286.2,2885.51 4263.87,2880.18 4241.5,2875C 4226.82,2865.32 4212.48,2855.16 4198.5,2844.5C 4188.81,2831.31 4179.31,2817.97 4170,2804.5C 4167.99,2797.44 4165.82,2790.44 4163.5,2783.5C 4118.77,2807.91 4071.77,2826.74 4022.5,2840C 3974.13,2852.59 3925.46,2863.93 3876.5,2874C 3766.79,2892.39 3656.46,2897.39 3545.5,2889C 3521.87,2883.18 3498.2,2877.51 3474.5,2872C 3461.68,2862.42 3448.68,2853.09 3435.5,2844C 3424.61,2830.12 3414.11,2815.95 3404,2801.5C 3386.2,2737.84 3373.53,2673.17 3366,2607.5C 3356.46,2521.1 3351.13,2434.43 3350,2347.5C 3347.4,2207.49 3353.06,2067.82 3367,1928.5C 3369.34,1908.46 3372.01,1888.46 3375,1868.5C 3380.54,1840 3386.88,1811.66 3394,1783.5C 3403.25,1769.25 3412.91,1755.25 3423,1741.5C 3436.88,1730.61 3451.05,1720.11 3465.5,1710C 3490.77,1700.46 3516.44,1692.13 3542.5,1685C 3596.39,1670.94 3650.72,1658.94 3705.5,1649C 3793.6,1635.33 3881.93,1633.33 3970.5,1643C 4016.21,1651.67 4061.54,1662.01 4106.5,1674C 4149.36,1686.59 4188.02,1706.76 4222.5,1734.5C 4226.28,1729.55 4230.28,1724.71 4234.5,1720C 4247.68,1710.91 4260.68,1701.58 4273.5,1692C 4311.95,1682.05 4350.61,1673.05 4389.5,1665C 4463.75,1653.61 4538.42,1646.61 4613.5,1644C 4718.49,1638.65 4823.15,1642.31 4927.5,1655C 4949.8,1660.49 4972.13,1665.82 4994.5,1671C 5003.97,1676.98 5013.31,1683.14 5022.5,1689.5C 5063.99,1678.63 5105.66,1668.47 5147.5,1659C 5250.66,1637.45 5354.66,1631.79 5459.5,1642C 5514.24,1651.52 5568.24,1664.19 5621.5,1680C 5646.01,1688.42 5669.01,1699.76 5690.5,1714C 5705.33,1724.83 5720.17,1735.67 5735,1746.5C 5740.82,1739.52 5746.16,1732.19 5751,1724.5C 5765.22,1713.28 5779.72,1702.45 5794.5,1692C 5803.03,1689.95 5811.37,1687.45 5819.5,1684.5C 5824.33,1665.17 5829.17,1645.84 5834,1626.5C 5848.73,1596.02 5865.73,1567.02 5885,1539.5C 5904.51,1511.81 5924.51,1484.48 5945,1457.5C 5968.54,1428.63 5993.38,1400.8 6019.5,1374C 6033.5,1364 6047.5,1354 6061.5,1344C 6089.72,1336.86 6118.05,1330.2 6146.5,1324C 6182.69,1316.89 6219.02,1315.89 6255.5,1321C 6285.2,1327.84 6314.87,1334.84 6344.5,1342C 6358.67,1352.17 6372.83,1362.33 6387,1372.5C 6396.67,1386.17 6406.33,1399.83 6416,1413.5C 6431.32,1453.84 6452.99,1490.17 6481,1522.5C 6491.36,1533.2 6502.03,1543.53 6513,1553.5C 6523,1567.5 6533,1581.5 6543,1595.5C 6548.76,1619.35 6554.59,1643.19 6560.5,1667C 6557.44,1677.04 6555.28,1687.21 6554,1697.5C 6556.18,1698.93 6558.18,1700.6 6560,1702.5C 6569.09,1715.68 6578.42,1728.68 6588,1741.5C 6597.92,1762.27 6605.26,1783.93 6610,1806.5C 6615.82,1830.8 6621.49,1855.13 6627,1879.5C 6632.74,1918.58 6632.07,1957.58 6625,1996.5C 6616.92,2034.16 6607.59,2071.49 6597,2108.5C 6586.61,2124.23 6575.44,2139.4 6563.5,2154C 6550.56,2162.61 6537.89,2171.61 6525.5,2181C 6501.65,2186.75 6477.82,2192.59 6454,2198.5C 6444.54,2195.76 6435.04,2193.59 6425.5,2192C 6428.24,2200.93 6429.74,2210.09 6430,2219.5C 6430.9,2238.71 6430.4,2257.88 6428.5,2277C 6428.75,2278.33 6429.42,2279.33 6430.5,2280C 6453.84,2285.67 6477.17,2291.33 6500.5,2297C 6513.32,2306.58 6526.32,2315.91 6539.5,2325C 6541.33,2326.83 6543.17,2328.67 6545,2330.5C 6557.67,2347.83 6570.33,2365.17 6583,2382.5C 6597.52,2404.21 6608.85,2427.54 6617,2452.5C 6629.57,2497.11 6639.74,2542.11 6647.5,2587.5 Z"/></g>
<g><path style="opacity:1" fill="#f194a6" d="M 3636.5,1399.5 C 3635.84,1397.02 3635.5,1394.36 3635.5,1391.5C 3635.6,1388.23 3636.27,1385.23 3637.5,1382.5C 3641.83,1381 3646.16,1379.83 3650.5,1379C 3645.45,1385.6 3640.79,1392.44 3636.5,1399.5 Z"/></g>
<g><path style="opacity:1" fill="#f6b9c5" d="M 3635.5,1368.5 C 3634.9,1373.62 3635.56,1378.29 3637.5,1382.5C 3636.27,1385.23 3635.6,1388.23 3635.5,1391.5C 3635.5,1394.36 3635.84,1397.02 3636.5,1399.5C 3636.22,1400.29 3635.72,1400.96 3635,1401.5C 3634.5,1395.51 3634.33,1389.51 3634.5,1383.5C 3634.18,1378.31 3634.51,1373.31 3635.5,1368.5 Z"/></g>
<g><path style="opacity:1" fill="#47c8ef" d="M 6189.5,1476.5 C 6214.01,1475.39 6238.35,1476.89 6262.5,1481C 6266.51,1482.17 6270.51,1483.33 6274.5,1484.5C 6303.57,1554.55 6345.9,1615.21 6401.5,1666.5C 6374.14,1696.52 6341.14,1718.02 6302.5,1731C 6289.1,1735.13 6275.77,1739.47 6262.5,1744C 6260.74,1744.8 6259.07,1744.63 6257.5,1743.5C 6250.39,1729.62 6243.56,1715.62 6237,1701.5C 6217.99,1659.13 6198.99,1616.8 6180,1574.5C 6149.27,1604.55 6123.94,1638.55 6104,1676.5C 6093.91,1695.68 6084.08,1715.01 6074.5,1734.5C 6048.36,1731.63 6023.03,1725.13 5998.5,1715C 5989.27,1711.56 5981.27,1706.4 5974.5,1699.5C 5995.75,1655.97 6021.25,1615.3 6051,1577.5C 6076.33,1544.83 6103.83,1514 6133.5,1485C 6152.19,1481.35 6170.86,1478.52 6189.5,1476.5 Z"/></g>
<g><path style="opacity:0.993" fill="#fefefe" d="M 2737.5,1601.5 C 2752.5,1601.33 2767.5,1601.5 2782.5,1602C 2813.5,1607.08 2844.16,1613.75 2874.5,1622C 2888.07,1626.29 2901.07,1631.95 2913.5,1639C 2937.63,1654.46 2960.63,1671.46 2982.5,1690C 3008.97,1719.48 3031.13,1751.98 3049,1787.5C 3051,1792.83 3053,1798.17 3055,1803.5C 3062.3,1831 3068.97,1858.67 3075,1886.5C 3079.79,1912.89 3079.63,1939.22 3074.5,1965.5C 3082.31,1968.23 3090.31,1970.4 3098.5,1972C 3108.17,1979 3117.83,1986 3127.5,1993C 3134.67,2002.83 3141.83,2012.67 3149,2022.5C 3152.84,2038.88 3156.84,2055.21 3161,2071.5C 3164.33,2093.5 3164.33,2115.5 3161,2137.5C 3157.49,2153.21 3154.15,2168.88 3151,2184.5C 3156.67,2188.83 3162.33,2193.17 3168,2197.5C 3174.67,2206.83 3181.33,2216.17 3188,2225.5C 3212.67,2278.83 3237.33,2332.17 3262,2385.5C 3267.44,2402.94 3272.11,2420.61 3276,2438.5C 3276.67,2441.83 3276.67,2445.17 3276,2448.5C 3272.31,2464.58 3268.31,2480.58 3264,2496.5C 3256.84,2505.48 3250.18,2514.81 3244,2524.5C 3234.5,2531.33 3225,2538.17 3215.5,2545C 3206.4,2549.25 3197.07,2552.92 3187.5,2556C 3154.25,2565.25 3120.58,2572.58 3086.5,2578C 3035.02,2581.45 2984.35,2576.45 2934.5,2563C 2915.38,2558.61 2896.38,2553.78 2877.5,2548.5C 2836.25,2576.1 2791.25,2595.26 2742.5,2606C 2723.53,2610.49 2704.53,2614.83 2685.5,2619C 2635.85,2626.36 2586.52,2624.69 2537.5,2614C 2517.17,2609 2496.83,2604 2476.5,2599C 2452.11,2591.63 2429.11,2581.3 2407.5,2568C 2388.89,2555.05 2370.55,2541.72 2352.5,2528C 2344,2520.17 2335.83,2512 2328,2503.5C 2308.1,2478.72 2290.44,2452.38 2275,2424.5C 2270.07,2412.72 2265.74,2400.72 2262,2388.5C 2257.16,2367.47 2252.16,2346.47 2247,2325.5C 2241.88,2298.28 2241.21,2270.95 2245,2243.5C 2250.35,2218.76 2256.02,2194.1 2262,2169.5C 2267.53,2149.44 2275.53,2130.44 2286,2112.5C 2301.2,2088.77 2317.87,2066.1 2336,2044.5C 2363.74,2018.22 2394.24,1995.72 2427.5,1977C 2422.42,1945.91 2422.25,1914.75 2427,1883.5C 2433.39,1852.61 2440.72,1821.94 2449,1791.5C 2453.6,1780.37 2458.6,1769.37 2464,1758.5C 2478.17,1736.66 2493.51,1715.66 2510,1695.5C 2530.14,1678.01 2551.31,1661.84 2573.5,1647C 2589.3,1637.73 2605.97,1630.4 2623.5,1625C 2648.45,1618.85 2673.45,1612.85 2698.5,1607C 2711.58,1604.65 2724.58,1602.82 2737.5,1601.5 Z"/></g>
<g><path style="opacity:1" fill="#464646" d="M 3047.5,2076.5 C 3047.44,2081.73 3048.11,2086.73 3049.5,2091.5C 3050.49,2124.76 3044.65,2156.76 3032,2187.5C 3024.37,2204.76 3015.7,2221.43 3006,2237.5C 2994.08,2255.67 2981.91,2273.67 2969.5,2291.5C 2975.96,2293.77 2982.63,2294.94 2989.5,2295C 3015.06,2297.2 3040.06,2294.53 3064.5,2287C 3071.78,2284.03 3078.78,2280.53 3085.5,2276.5C 3111.24,2330.98 3136.74,2385.65 3162,2440.5C 3162.78,2441.94 3162.61,2443.28 3161.5,2444.5C 3132.22,2457.26 3101.55,2464.09 3069.5,2465C 3016.21,2466.44 2964.21,2459.1 2913.5,2443C 2894.78,2437.09 2876.28,2430.59 2858,2423.5C 2799.15,2471.8 2731.65,2500.3 2655.5,2509C 2602.16,2513.61 2550.5,2506.61 2500.5,2488C 2415.96,2451.78 2368.13,2387.95 2357,2296.5C 2353.59,2201.47 2392.42,2129.64 2473.5,2081C 2499.59,2066.69 2527.25,2056.86 2556.5,2051.5C 2548.68,2021.59 2542.84,1991.26 2539,1960.5C 2537.4,1941.84 2537.24,1923.17 2538.5,1904.5C 2539.89,1899.73 2540.56,1894.73 2540.5,1889.5C 2551.29,1804.07 2597.95,1749.24 2680.5,1725C 2721.46,1714.95 2762.79,1712.95 2804.5,1719C 2880.75,1738.25 2930.92,1785.42 2955,1860.5C 2976.45,1951.28 2955.62,2030.78 2892.5,2099C 2902.85,2098.08 2913.18,2096.75 2923.5,2095C 2964.76,2087.52 3006.1,2080.35 3047.5,2073.5C 3047.5,2074.5 3047.5,2075.5 3047.5,2076.5 Z"/></g>
<g><path style="opacity:1" fill="#47c8ef" d="M 3827.5,1795.5 C 3868.56,1794.71 3909.56,1795.87 3950.5,1799C 4003.2,1804.03 4053.2,1818.36 4100.5,1842C 4142.58,1864.08 4173.75,1896.58 4194,1939.5C 4207.1,1973 4209.76,2007.33 4202,2042.5C 4193.95,2075.7 4179.95,2106.04 4160,2133.5C 4147.66,2150.52 4133.82,2166.35 4118.5,2181C 4099.83,2192 4081.17,2203 4062.5,2214C 4099.2,2213.41 4134.86,2219.08 4169.5,2231C 4226.63,2254.49 4259.46,2296.99 4268,2358.5C 4274.01,2415.46 4261.68,2468.13 4231,2516.5C 4208.42,2551.75 4180.26,2581.91 4146.5,2607C 4107.33,2635.42 4065,2658.42 4019.5,2676C 3946.49,2703.07 3871.15,2720.07 3793.5,2727C 3710.94,2735.29 3628.27,2736.46 3545.5,2730.5C 3534.31,2678.66 3526.14,2626.32 3521,2573.5C 3509.96,2446.07 3505.96,2318.41 3509,2190.5C 3510.83,2113.69 3515.16,2037.02 3522,1960.5C 3525.88,1924.4 3530.54,1888.4 3536,1852.5C 3582.05,1834.11 3629.55,1820.61 3678.5,1812C 3727.95,1803.27 3777.62,1797.77 3827.5,1795.5 Z"/></g>
<g><path style="opacity:1" fill="#47c8ef" d="M 5320.5,1795.5 C 5383.1,1792.24 5445.1,1796.74 5506.5,1809C 5553.03,1819.1 5595.36,1838.1 5633.5,1866C 5701.35,1923.9 5719.18,1994.73 5687,2078.5C 5669.86,2117.64 5645.69,2151.81 5614.5,2181C 5595.83,2192 5577.17,2203 5558.5,2214C 5602.99,2212.47 5645.33,2221.13 5685.5,2240C 5728.17,2264.78 5754,2301.61 5763,2350.5C 5770.3,2397.4 5763.97,2442.4 5744,2485.5C 5717.27,2538.57 5679.44,2582.07 5630.5,2616C 5582.7,2648.4 5531.03,2673.07 5475.5,2690C 5395.55,2713.65 5313.89,2727.65 5230.5,2732C 5167.46,2735.72 5104.46,2735.22 5041.5,2730.5C 5029.32,2675.43 5020.82,2619.76 5016,2563.5C 4999.56,2356.72 5000.89,2150.05 5020,1943.5C 5023.1,1913.72 5027.1,1884.05 5032,1854.5C 5032.32,1852.94 5033.15,1851.77 5034.5,1851C 5098.82,1826.73 5165.16,1810.73 5233.5,1803C 5262.59,1799.73 5291.59,1797.23 5320.5,1795.5 Z"/></g>
<g><path style="opacity:1" fill="#47c8ef" d="M 4652.5,1800.5 C 4734.7,1798.8 4816.7,1801.96 4898.5,1810C 4907.98,1810.68 4917.32,1812.18 4926.5,1814.5C 4949.62,1864.86 4957.12,1917.53 4949,1972.5C 4946.76,1994.06 4942.09,2015.06 4935,2035.5C 4934.48,2037.22 4933.48,2038.56 4932,2039.5C 4857.72,2019.81 4782.22,2007.31 4705.5,2002C 4681.37,2000.15 4657.2,1998.98 4633,1998.5C 4596.15,2000.62 4559.32,2003.12 4522.5,2006C 4506,2067.55 4500.66,2130.05 4506.5,2193.5C 4530.12,2190.01 4553.78,2186.84 4577.5,2184C 4617.53,2180.48 4657.53,2180.82 4697.5,2185C 4713.89,2186.77 4730.23,2188.93 4746.5,2191.5C 4747.98,2197.75 4749.15,2204.09 4750,2210.5C 4752.34,2257.95 4748.17,2304.78 4737.5,2351C 4659.43,2347.57 4582.76,2356.07 4507.5,2376.5C 4506.23,2425.72 4510.89,2474.39 4521.5,2522.5C 4654.81,2516.38 4783.31,2488.38 4907,2438.5C 4908.61,2439.1 4909.94,2440.1 4911,2441.5C 4954.59,2498.94 4972.59,2563.61 4965,2635.5C 4964.78,2636.94 4964.28,2638.27 4963.5,2639.5C 4898.15,2677.68 4828.48,2705.18 4754.5,2722C 4617.46,2751.94 4479.46,2757.28 4340.5,2738C 4330.51,2736.75 4320.68,2734.92 4311,2732.5C 4309.07,2721.21 4307.4,2709.87 4306,2698.5C 4296.65,2577.68 4293.32,2456.68 4296,2335.5C 4297.62,2229.61 4303.28,2123.95 4313,2018.5C 4317.91,1968.81 4325.24,1919.47 4335,1870.5C 4337.69,1858.42 4340.69,1846.42 4344,1834.5C 4357.81,1829.74 4371.98,1826.24 4386.5,1824C 4439.86,1815.3 4493.53,1809.3 4547.5,1806C 4582.63,1803.7 4617.63,1801.87 4652.5,1800.5 Z"/></g>
<g><path style="opacity:1" fill="#47c8ef" d="M 6166.5,1800.5 C 6256.7,1798.52 6346.7,1802.35 6436.5,1812C 6440.27,1812.41 6443.94,1813.24 6447.5,1814.5C 6470.62,1864.86 6478.12,1917.53 6470,1972.5C 6467.76,1994.06 6463.09,2015.06 6456,2035.5C 6455.48,2037.22 6454.48,2038.56 6453,2039.5C 6378.72,2019.81 6303.22,2007.31 6226.5,2002C 6202.37,2000.15 6178.2,1998.98 6154,1998.5C 6117.15,2000.62 6080.32,2003.12 6043.5,2006C 6027,2067.55 6021.66,2130.05 6027.5,2193.5C 6051.12,2190.01 6074.78,2186.84 6098.5,2184C 6138.53,2180.48 6178.53,2180.82 6218.5,2185C 6234.89,2186.77 6251.23,2188.93 6267.5,2191.5C 6268.98,2197.75 6270.15,2204.09 6271,2210.5C 6273.34,2257.95 6269.17,2304.78 6258.5,2351C 6180.43,2347.57 6103.76,2356.07 6028.5,2376.5C 6027.23,2425.72 6031.89,2474.39 6042.5,2522.5C 6175.81,2516.38 6304.31,2488.38 6428,2438.5C 6429.61,2439.1 6430.94,2440.1 6432,2441.5C 6472.78,2495.19 6491.45,2555.85 6488,2623.5C 6487.37,2628.97 6486.2,2634.31 6484.5,2639.5C 6419.15,2677.68 6349.48,2705.18 6275.5,2722C 6128.56,2754.12 5980.89,2757.95 5832.5,2733.5C 5832.44,2738 5832.94,2742.33 5834,2746.5C 5827.59,2740.72 5821.09,2735.05 5814.5,2729.5C 5819.67,2729.77 5825,2730.77 5830.5,2732.5C 5830.15,2721.19 5828.99,2709.86 5827,2698.5C 5817.65,2577.68 5814.32,2456.68 5817,2335.5C 5818.62,2229.61 5824.28,2123.95 5834,2018.5C 5838.91,1968.81 5846.24,1919.47 5856,1870.5C 5858.69,1858.42 5861.69,1846.42 5865,1834.5C 5874.89,1830.82 5885.05,1827.99 5895.5,1826C 5946.15,1816.96 5997.15,1810.63 6048.5,1807C 6087.96,1804.23 6127.29,1802.06 6166.5,1800.5 Z"/></g>
<g><path style="opacity:1" fill="#fefefe" d="M 2752.5,1899.5 C 2770.6,1896.81 2785.77,1902.15 2798,1915.5C 2804.61,1926.72 2806.27,1938.72 2803,1951.5C 2796.55,1967.29 2786.38,1980.12 2772.5,1990C 2752.56,2003.31 2730.89,2012.31 2707.5,2017C 2698.91,1990.89 2697.41,1964.39 2703,1937.5C 2712.07,1915.06 2728.57,1902.39 2752.5,1899.5 Z"/></g>
<g><path style="opacity:1" fill="#8b8b8b" d="M 2540.5,1889.5 C 2540.56,1894.73 2539.89,1899.73 2538.5,1904.5C 2538.44,1899.27 2539.11,1894.27 2540.5,1889.5 Z"/></g>
<g><path style="opacity:1" fill="#fefefe" d="M 3852.5,1967.5 C 3875.9,1966.44 3898.9,1968.94 3921.5,1975C 3975.84,1992.18 3995,2028.01 3979,2082.5C 3969.33,2101.33 3955.83,2116.83 3938.5,2129C 3911.48,2147.17 3882.15,2160.5 3850.5,2169C 3806.6,2180.78 3761.94,2187.28 3716.5,2188.5C 3712.34,2129.48 3712.51,2070.48 3717,2011.5C 3759.28,1987.68 3804.45,1973.02 3852.5,1967.5 Z"/></g>
<g><path style="opacity:1" fill="#fefefe" d="M 5348.5,1967.5 C 5377.14,1965.41 5404.81,1969.58 5431.5,1980C 5475.9,2000.3 5490.73,2033.8 5476,2080.5C 5466.52,2100.98 5452.36,2117.48 5433.5,2130C 5404.55,2148.88 5373.21,2162.55 5339.5,2171C 5297.8,2181.36 5255.46,2187.2 5212.5,2188.5C 5209.68,2129.49 5209.85,2070.49 5213,2011.5C 5255.32,1987.67 5300.49,1973 5348.5,1967.5 Z"/></g>
<g><path style="opacity:1" fill="#8c8c8c" d="M 3047.5,2076.5 C 3048.89,2081.27 3049.56,2086.27 3049.5,2091.5C 3048.11,2086.73 3047.44,2081.73 3047.5,2076.5 Z"/></g>
<g><path style="opacity:1" fill="#fcfcfc" d="M 2867.5,2123.5 C 2872.22,2149.04 2870.72,2174.37 2863,2199.5C 2859.61,2208.61 2854.95,2216.94 2849,2224.5C 2828.76,2210.1 2810.93,2193.1 2795.5,2173.5C 2821.27,2159.29 2845.27,2142.62 2867.5,2123.5 Z"/></g>
<g><path style="opacity:1" fill="#fefefe" d="M 2621.5,2224.5 C 2627.51,2224.33 2633.51,2224.5 2639.5,2225C 2648.24,2237.74 2657.74,2249.91 2668,2261.5C 2689.35,2283.35 2710.52,2305.35 2731.5,2327.5C 2695.25,2349.05 2656.25,2356.55 2614.5,2350C 2588.57,2344.13 2567.73,2330.63 2552,2309.5C 2533.76,2274.9 2542.59,2249.73 2578.5,2234C 2592.55,2229.07 2606.89,2225.9 2621.5,2224.5 Z"/></g>
<g><path style="opacity:1" fill="#fefefe" d="M 3903.5,2312.5 C 3926.47,2311.64 3949.14,2313.81 3971.5,2319C 4001.27,2326.11 4021.44,2343.95 4032,2372.5C 4035.33,2399.52 4028.33,2423.52 4011,2444.5C 3991.71,2465.57 3969.21,2482.4 3943.5,2495C 3874.6,2526.15 3802.26,2541.65 3726.5,2541.5C 3717.66,2481.51 3713.66,2421.18 3714.5,2360.5C 3760.7,2341.53 3808.37,2327.36 3857.5,2318C 3872.95,2315.82 3888.28,2313.99 3903.5,2312.5 Z"/></g>
<g><path style="opacity:1" fill="#fefefe" d="M 5395.5,2312.5 C 5421.27,2310.9 5446.6,2313.4 5471.5,2320C 5500.56,2328.4 5519.73,2346.9 5529,2375.5C 5531.06,2404 5522.39,2428.67 5503,2449.5C 5475.66,2476.27 5443.82,2496.1 5407.5,2509C 5347.82,2530.7 5286.32,2541.2 5223,2540.5C 5213.59,2480.88 5209.42,2420.88 5210.5,2360.5C 5258.64,2340.84 5308.3,2326.34 5359.5,2317C 5371.63,2315.32 5383.63,2313.82 5395.5,2312.5 Z"/></g>
</svg>
