<svg width="24px" height="24px" viewBox="0 0 24 24" fill="none" xmlns="http://www.w3.org/2000/svg">
<path d="M14.5411 15C13.1377 15 12 16.0313 12 17.3034C12 17.5919 12.044 17.879 12.1306 18.1565L12.214 18.4236C12.6071 19.6826 13.7484 20.6338 15.1653 20.8835C16.0469 21.0388 16.9531 21.0388 17.8347 20.8835C19.2516 20.6338 20.3929 19.6826 20.786 18.4236L20.8694 18.1565C20.956 17.879 21 17.5919 21 17.3034C21 16.0313 19.8623 15 18.4589 15H14.5411Z" fill="#363853" fill-opacity="0.15"/>
<path d="M9 5.54106C9.00001 4.13768 7.96874 3 6.69661 3C6.40813 3 6.12103 3.04396 5.84345 3.13063L5.57641 3.21402C4.31744 3.60713 3.36618 4.74842 3.1165 6.16532C2.96117 7.04686 2.96117 7.95315 3.1165 8.83468C3.36618 10.2516 4.31744 11.3929 5.57641 11.786L5.84345 11.8694C6.12103 11.956 6.40813 12 6.69661 12C7.96874 12 9.00001 10.8623 9 9.45894L9 5.54106Z" fill="#363853" fill-opacity="0.15"/>
<path d="M15.1653 20.8835C16.0469 21.0388 16.9531 21.0388 17.8347 20.8835C19.2516 20.6338 20.3929 19.6826 20.786 18.4236L20.8694 18.1565C20.956 17.879 21 17.5919 21 17.3034C21 16.0313 19.8623 15 18.4589 15H14.5411C13.1377 15 12 16.0313 12 17.3034C12 17.5919 12.044 17.879 12.1306 18.1565L12.214 18.4236C12.6071 19.6826 13.7484 20.6338 15.1653 20.8835ZM15.1653 20.8835C9.04195 19.7489 4.25108 14.958 3.1165 8.83468M3.1165 8.83468C2.96117 7.95315 2.96117 7.04686 3.1165 6.16532C3.36618 4.74842 4.31744 3.60713 5.57641 3.21402L5.84345 3.13063C6.12103 3.04396 6.40813 3 6.69661 3C7.96874 3 9.00001 4.13768 9 5.54106L9 9.45894C9.00001 10.8623 7.96874 12 6.69661 12C6.40813 12 6.12103 11.956 5.84345 11.8694L5.57641 11.786C4.31744 11.3929 3.36618 10.2516 3.1165 8.83468Z" stroke="#363853" stroke-width="1.5"/>
</svg>
