

<svg xmlns="http://www.w3.org/2000/svg"
     viewBox="0 0 32 32" style="enable-background:new 0 0 32 32;" >
  <defs>
    <style type="text/css">
        .pikituchos-class0{fill:none;stroke:#000000;stroke-width:2;stroke-linecap:round;stroke-linejoin:round;stroke-miterlimit:10;}
        .pikituchos-class1{fill:none;stroke:#000000;stroke-width:2;stroke-linejoin:round;stroke-miterlimit:10;}
    </style>
  </defs>
    <path style="stroke: rgb(0, 0, 0); vector-effect: non-scaling-stroke; fill: rgb(254, 217, 207);" d="M 5.353 20.096 C 4.505 19.884 3.569 19.281 3.144 18.43 C 2.954 18.051 3.076 17.268 3.076 16.799 C 3.076 16.578 2.932 16.066 3.042 15.847 C 3.131 15.668 3.393 15.519 3.518 15.269 C 3.582 15.14 3.601 14.921 3.79 14.827 C 4.237 14.603 4.89 14.441 5.251 14.079 C 5.908 13.423 5.864 12.31 6.577 11.598 C 6.871 11.304 6.968 10.731 7.257 10.442 C 7.397 10.301 7.355 9.934 7.563 9.83 C 7.813 9.705 8.394 9.237 8.583 9.048 C 8.766 8.865 8.865 8.533 9.127 8.402 C 9.408 8.261 9.769 7.998 10.011 7.756 C 10.166 7.601 10.552 7.623 10.69 7.484 C 11.176 6.999 12.085 6.781 12.832 6.532 C 13.353 6.359 13.801 6.473 14.294 6.226 C 14.683 6.032 15.37 6.09 15.858 6.09 C 17.134 6.09 18.2 6.157 19.325 6.532 C 19.655 6.642 19.848 6.911 20.141 7.008 C 20.478 7.121 20.85 7.108 21.195 7.28 C 21.649 7.507 21.907 7.874 22.419 8.13 C 22.796 8.319 23.01 8.833 23.302 8.98 C 23.508 9.083 23.87 9.276 24.05 9.456 C 24.631 10.037 25.067 10.915 25.682 11.53 C 25.773 11.62 25.661 11.861 25.716 11.971 C 25.87 12.28 26.067 12.47 26.192 12.719 C 26.36 13.056 26.254 13.632 26.532 13.909 C 26.92 14.298 27.443 14.596 27.892 14.895 C 28.356 15.205 28.537 15.642 28.878 15.983 C 28.956 16.061 28.825 16.354 28.878 16.459 C 28.987 16.678 28.946 17.119 28.946 17.445 C 28.946 18.255 28.337 19.329 27.62 19.688 C 27.271 19.863 26.805 19.789 26.532 20.062 C 26.29 20.304 26.193 20.706 26.022 21.048 C 25.852 21.387 25.911 22.043 25.648 22.306 C 25.578 22.376 25.194 22.648 25.138 22.816 C 25.062 23.044 25.066 23.398 24.9 23.564 C 24.395 24.069 23.867 24.699 23.37 25.195 C 22.529 26.037 21.446 26.27 20.617 27.099 C 20.433 27.283 20.019 27.219 19.767 27.303 C 19.245 27.477 18.231 27.547 17.863 27.915 C 17.769 28.009 16.915 27.983 16.776 27.983 C 15.711 27.983 14.425 28.133 13.58 27.711 C 13.249 27.545 12.803 27.667 12.424 27.541 C 11.96 27.386 11.459 27.313 11.03 27.099 C 9.89 26.529 9.025 25.536 8.141 24.651 C 7.811 24.322 7.307 24.003 7.087 23.564 C 6.96 23.31 6.666 22.82 6.476 22.63 C 6.339 22.492 6.418 22.196 6.288 22.066 C 6.275 22.053 6.239 21.915 6.137 21.813 C 5.85 21.526 5.659 21.128 5.659 20.606" />
    <path class="pikituchos-class0" d="M11.9,6.8c-3.2,1.3-5.6,4-6.5,7.3C4,14.3,3,15.5,3,17c0,1.5,1,2.7,2.4,2.9C6.7,24.6,10.9,28,16,28 s9.3-3.4,10.6-8.1C28,19.7,29,18.5,29,17c0-1.5-1-2.7-2.4-2.9c-0.9-3.3-3.3-6-6.5-7.3" style="stroke-width: 1px; fill-rule: nonzero; fill-opacity: 0; stroke: rgb(70, 70, 70);" />
    <path style="fill: rgb(216, 216, 216); stroke-linecap: round; stroke-miterlimit: 1; stroke-dashoffset: -50px; paint-order: fill; fill-rule: nonzero; fill-opacity: 0; stroke: rgb(70, 70, 70);" d="M 11.943 6.766 C 11.882 6.793 15.17 5.09 20.216 6.858" transform="matrix(0.999987, -0.005147, 0.005147, 0.999987, -0.03276, 0.082916)" />
    <path class="pikituchos-class0" d="M 18.615 5.13 C 17.944 4.57 17.051 4.243 16.351 4.243 C 15.651 4.243 14.74 4.508 14.148 5.005" style="stroke-width: 1px; stroke-linecap: square; stroke: rgb(70, 70, 70);" transform="matrix(0.906308, -0.422618, 0.422618, 0.906308, -0.445783, 7.362205)" />
    <path class="pikituchos-class0" d="M 18.209 20.926 C 17.538 21.486 16.645 21.813 15.945 21.813 C 15.245 21.813 14.334 21.548 13.742 21.051" style="stroke-width: 1px; stroke-linecap: square; stroke: rgb(70, 70, 70);" />
  <!-- [ closed ] -->
  <g id="pkt-eyes">
    <path class="pikituchos-class0" d="M 13.757 16.921 C 13.086 16.361 12.193 16.034 11.493 16.034 C 10.793 16.034 9.882 16.299 9.29 16.796" style="stroke-width: 1px; stroke-linecap: square; stroke: rgb(70, 70, 70);" />
    <path class="pikituchos-class0" d="M 22.931 16.921 C 22.26 16.361 21.367 16.034 20.667 16.034 C 19.967 16.034 19.056 16.299 18.464 16.796" style="stroke-width: 1px; stroke-linecap: square; stroke: rgb(70, 70, 70);" />
  </g>
  <!-- [ opened ] -->
  <!-- <g id="pkt-eyes">
    <path class="pikituchos-class0" d="M 13.757 14.921 C 13.086 14.361 12.193 14.034 11.493 14.034 C 10.793 14.034 9.882 14.299 9.29 14.796" style="stroke-width: 1px; stroke-linecap: square; stroke: rgb(70, 70, 70);" />
    <path class="pikituchos-class0" d="M 22.931 14.921 C 22.26 14.361 21.367 14.034 20.667 14.034 C 19.967 14.034 19.056 14.299 18.464 14.796" style="stroke-width: 1px; stroke-linecap: square; stroke: rgb(70, 70, 70);" />
    <path style="fill: rgb(216, 216, 216); stroke-linecap: round; stroke-linejoin: round; stroke: rgb(70, 70, 70); stroke-width: 2px;" d="M 11.328 15.237 L 11.802 15.237" transform="matrix(0.037625, -0.999291, 0.999292, 0.037625, -4.096353, 26.220512)"/>
    <path style="fill: rgb(216, 216, 216); stroke-linecap: round; stroke-linejoin: round; stroke: rgb(70, 70, 70); stroke-width: 2px;" d="M 20.328 15.237 L 20.802 15.237" transform="matrix(0.037625, -0.999291, 0.999292, 0.037625, 4.565021, 35.214133)"/>
  </g> -->
</svg>