<svg width="24px" height="24px" viewBox="0 0 24 24" fill="none" xmlns="http://www.w3.org/2000/svg">
<path d="M7.66722 19.3041C6.25126 18.4876 5.54328 18.0794 5.0106 17.5199C4.40391 16.8827 3.9589 16.1027 3.71455 15.2483C3.5 14.498 3.5 13.6654 3.5 12C3.5 10.3346 3.5 9.50196 3.71455 8.75174C3.9589 7.8973 4.40391 7.11731 5.0106 6.4801C5.54328 5.92061 6.25126 5.51238 7.66722 4.69591L7.83278 4.60045C9.35286 3.72395 10.1129 3.28571 10.9188 3.11398C11.632 2.96201 12.368 2.96201 13.0812 3.11398C13.8871 3.28571 14.6471 3.72395 16.1672 4.60045L16.3328 4.69591C17.7487 5.51238 18.4567 5.92061 18.9894 6.4801C19.5961 7.11731 20.0411 7.8973 20.2855 8.75174C20.5 9.50196 20.5 10.3346 20.5 12C20.5 13.6654 20.5 14.498 20.2855 15.2483C20.0411 16.1027 19.5961 16.8827 18.9894 17.5199C18.4567 18.0794 17.7487 18.4876 16.3328 19.3041L16.1672 19.3995C14.6471 20.276 13.8871 20.7143 13.0812 20.886C12.368 21.038 11.632 21.038 10.9188 20.886C10.1129 20.7143 9.35286 20.276 7.83278 19.3996L7.66722 19.3041Z" fill="#363853" fill-opacity="0.15"/>
<path d="M16.1672 19.3995L15.7926 18.7498L15.7926 18.7498L16.1672 19.3995ZM13.0812 20.886L12.9249 20.1525L13.0812 20.886ZM7.83278 19.3996L7.45814 20.0493L7.45814 20.0493L7.83278 19.3996ZM10.9188 20.886L11.0751 20.1525L10.9188 20.886ZM20.2855 15.2483L19.5644 15.042L20.2855 15.2483ZM16.3328 19.3041L16.7074 19.9538H16.7074L16.3328 19.3041ZM18.9894 17.5199L18.4462 17.0027L18.9894 17.5199ZM16.3328 4.69591L15.9581 5.34564L15.9581 5.34564L16.3328 4.69591ZM18.9894 6.4801L18.4462 6.99725V6.99725L18.9894 6.4801ZM20.2855 8.75174L19.5644 8.95796L20.2855 8.75174ZM7.83278 4.60045L8.20742 5.25018L7.83278 4.60045ZM10.9188 3.11398L10.7625 2.38045L10.9188 3.11398ZM16.1672 4.60045L16.5419 3.95072L16.5419 3.95072L16.1672 4.60045ZM13.0812 3.11398L13.2375 2.38045L13.0812 3.11398ZM3.5 12H2.75H3.5ZM3.71455 8.75174L4.43564 8.95796L3.71455 8.75174ZM7.66722 4.69591L7.29258 4.04619L7.66722 4.69591ZM5.0106 6.4801L5.55378 6.99725L5.0106 6.4801ZM3.71455 15.2483L2.99346 15.4545L3.71455 15.2483ZM7.66722 19.3041L8.04186 18.6544L8.04186 18.6544L7.66722 19.3041ZM5.0106 17.5199L4.46741 18.0371L5.0106 17.5199ZM8.04186 5.34564L8.20742 5.25018L7.45814 3.95072L7.29258 4.04619L8.04186 5.34564ZM15.7926 5.25018L15.9581 5.34564L16.7074 4.04619L16.5419 3.95072L15.7926 5.25018ZM15.9581 18.6544L15.7926 18.7498L16.5419 20.0493L16.7074 19.9538L15.9581 18.6544ZM8.20743 18.7498L8.04186 18.6544L7.29258 19.9538L7.45814 20.0493L8.20743 18.7498ZM15.7926 18.7498C14.2287 19.6516 13.5875 20.0113 12.9249 20.1525L13.2375 21.6195C14.1867 21.4173 15.0656 20.9005 16.5419 20.0493L15.7926 18.7498ZM7.45814 20.0493C8.9344 20.9005 9.81328 21.4173 10.7625 21.6195L11.0751 20.1525C10.4125 20.0113 9.77132 19.6516 8.20742 18.7498L7.45814 20.0493ZM12.9249 20.1525C12.3148 20.2825 11.6852 20.2825 11.0751 20.1525L10.7625 21.6195C11.5787 21.7935 12.4213 21.7935 13.2375 21.6195L12.9249 20.1525ZM19.75 12C19.75 13.7102 19.7431 14.417 19.5644 15.042L21.0065 15.4545C21.2569 14.5791 21.25 13.6205 21.25 12H19.75ZM16.7074 19.9538C18.0839 19.1601 18.9075 18.6936 19.5326 18.0371L18.4462 17.0027C18.0059 17.4652 17.4136 17.8151 15.9581 18.6544L16.7074 19.9538ZM19.5644 15.042C19.353 15.7812 18.9685 16.4542 18.4462 17.0027L19.5326 18.0371C20.2237 17.3112 20.7292 16.4242 21.0065 15.4545L19.5644 15.042ZM15.9581 5.34564C17.4136 6.18489 18.0059 6.53478 18.4462 6.99725L19.5326 5.96294C18.9075 5.30643 18.0839 4.83986 16.7074 4.04619L15.9581 5.34564ZM21.25 12C21.25 10.3795 21.2569 9.42087 21.0065 8.54552L19.5644 8.95796C19.7431 9.58304 19.75 10.2898 19.75 12H21.25ZM18.4462 6.99725C18.9685 7.5458 19.353 8.21879 19.5644 8.95796L21.0065 8.54552C20.7292 7.57581 20.2237 6.68883 19.5326 5.96294L18.4462 6.99725ZM8.20742 5.25018C9.77132 4.34841 10.4125 3.9887 11.0751 3.84751L10.7625 2.38045C9.81328 2.58271 8.93439 3.0995 7.45814 3.95072L8.20742 5.25018ZM16.5419 3.95072C15.0656 3.0995 14.1867 2.58271 13.2375 2.38045L12.9249 3.84751C13.5875 3.9887 14.2287 4.34841 15.7926 5.25018L16.5419 3.95072ZM11.0751 3.84751C11.6852 3.7175 12.3148 3.7175 12.9249 3.84751L13.2375 2.38045C12.4213 2.20652 11.5787 2.20652 10.7625 2.38045L11.0751 3.84751ZM4.25 12C4.25 10.2898 4.25688 9.58304 4.43564 8.95796L2.99346 8.54552C2.74312 9.42087 2.75 10.3795 2.75 12H4.25ZM7.29258 4.04619C5.91614 4.83986 5.09246 5.30643 4.46741 5.96294L5.55378 6.99725C5.99409 6.53478 6.58638 6.18489 8.04186 5.34564L7.29258 4.04619ZM4.43564 8.95796C4.64703 8.21879 5.03152 7.5458 5.55378 6.99725L4.46741 5.96294C3.77631 6.68883 3.27078 7.57581 2.99346 8.54552L4.43564 8.95796ZM2.75 12C2.75 13.6205 2.74312 14.5791 2.99346 15.4545L4.43564 15.042C4.25688 14.417 4.25 13.7102 4.25 12H2.75ZM8.04186 18.6544C6.58638 17.8151 5.99409 17.4652 5.55378 17.0027L4.46741 18.0371C5.09247 18.6936 5.91614 19.1601 7.29258 19.9538L8.04186 18.6544ZM2.99346 15.4545C3.27078 16.4242 3.77631 17.3112 4.46741 18.0371L5.55378 17.0027C5.03152 16.4542 4.64703 15.7812 4.43564 15.042L2.99346 15.4545ZM12 13.9729C10.9646 13.9729 10.0938 13.1072 10.0938 12H8.59375C8.59375 13.9004 10.1014 15.4729 12 15.4729V13.9729ZM13.9062 12C13.9062 13.1072 13.0354 13.9729 12 13.9729V15.4729C13.8986 15.4729 15.4062 13.9004 15.4062 12H13.9062ZM12 10.0271C13.0354 10.0271 13.9062 10.8928 13.9062 12H15.4062C15.4062 10.0996 13.8986 8.5271 12 8.5271V10.0271ZM12 8.5271C10.1014 8.5271 8.59375 10.0996 8.59375 12H10.0938C10.0938 10.8928 10.9646 10.0271 12 10.0271V8.5271Z" fill="#363853"/>
</svg>
