<?xml version="1.0" encoding="iso-8859-1"?>
<svg version="1.1" xmlns="http://www.w3.org/2000/svg" xmlns:xlink="http://www.w3.org/1999/xlink" 
     x="0px" y="0px" viewBox="0 0 491.123 491.123" >
     <g fill="#fff">
        <path d="M470.223,0.561h-89.7c-9.4,0-16.7,6.3-19.8,14.6l-83.4,263.8h-178.3l-50-147h187.7c11.5,0,20.9-9.4,20.9-20.9
            s-9.4-20.9-20.9-20.9h-215.9c-18.5,0.9-23.2,18-19.8,26.1l63.6,189.7c3.1,8.3,11.5,13.6,19.8,13.6h207.5c9.4,0,17.7-5.2,19.8-13.6
            l83.4-263.8h75.1c11.5,0,20.9-9.4,20.9-20.9S481.623,0.561,470.223,0.561z"/>
        <path d="M103.223,357.161c-36.5,0-66.7,30.2-66.7,66.7s30.2,66.7,66.7,66.7s66.7-30.2,66.7-66.7S139.723,357.161,103.223,357.161z
                M128.223,424.861c0,14.6-11.5,26.1-25,26.1c-13.6,0-25-11.5-25-26.1s11.5-26.1,25-26.1
            C117.823,398.861,129.323,410.261,128.223,424.861z"/>
        <path d="M265.823,357.161c-36.5,0-66.7,30.2-66.7,66.7s30.2,66.7,66.7,66.7c37.5,0,66.7-30.2,66.7-66.7
            C332.623,387.361,302.323,357.161,265.823,357.161z M290.923,424.861c0,14.6-11.5,26.1-25,26.1c-13.5,0-25-11.5-25-26.1
            s11.5-26.1,25-26.1C280.423,398.861,291.923,410.261,290.923,424.861z"/>
    </g>
</svg>
